<?xml version="1.0" encoding="UTF-8"?>
<svg width="327px" height="311px" viewBox="0 0 327 311" version="1.1" xmlns="http://www.w3.org/2000/svg" xmlns:xlink="http://www.w3.org/1999/xlink">
    <!-- Generator: Sketch 43.2 (39069) - http://www.bohemiancoding.com/sketch -->
    <title>Group</title>
    <desc>Created with Sketch.</desc>
    <defs></defs>
    <g id="Page-1" stroke="none" stroke-width="1" fill="none" fill-rule="evenodd">
        <g id="Group" transform="translate(-8.000000, 0.000000)">
            <polygon id="Star" fill="#D0011B" points="171.5 257.25 70.6948292 310.246415 89.9469037 197.998207 8.39380746 118.503585 121.097415 102.126793 171.5 0 221.902585 102.126793 334.606193 118.503585 253.053096 197.998207 272.305171 310.246415"></polygon>
            <path d="M119.65,122.77 L222.61,122.77 L222.61,135.9 L202.2,135.9 L202.2,165.8 L229.11,165.8 L229.11,178.93 L202.2,178.93 L202.2,234.7 L188.55,234.7 L188.55,178.93 L154.88,178.93 C153.58,191.67 150.98,202.46 147.21,211.17 C142.14,222.09 133.82,230.54 122.25,236.39 L114.84,224.82 C125.37,218.71 132.39,211.04 136.03,201.94 C138.37,195.44 140.06,187.77 141.1,178.93 L113.02,178.93 L113.02,165.8 L142.01,165.8 C142.01,165.02 142.14,164.37 142.14,163.59 L142.14,135.9 L119.65,135.9 L119.65,122.77 Z M155.92,135.9 L155.92,163.59 C155.92,164.37 155.79,165.02 155.79,165.8 L188.55,165.8 L188.55,135.9 L155.92,135.9 Z" id="开" fill="#FFFFFF"></path>
        </g>
    </g>
</svg>
