<?xml version="1.0" encoding="UTF-8"?>
<svg width="669px" height="575px" viewBox="0 0 669 575" version="1.1" xmlns="http://www.w3.org/2000/svg" xmlns:xlink="http://www.w3.org/1999/xlink">
    <title>Group 2</title>
    <g id="Page-1" stroke="none" stroke-width="1" fill="none" fill-rule="evenodd">
        <g id="Group-2" transform="translate(0.000000, 0.000000)" fill-rule="nonzero">
            <path d="M283.954102,484 C284.387695,484 284.71875,483.897461 284.947266,483.692383 C285.175781,483.487305 285.301758,483.302734 285.325195,483.138672 C285.348633,482.974609 285.360352,482.746094 285.360352,482.453125 L285.360352,482.453125 L285.360352,480.976562 C285.360352,480.542969 285.269531,480.217773 285.087891,480.000977 C284.90625,479.78418 284.733398,479.658203 284.569336,479.623047 C284.405273,479.587891 284.165039,479.570312 283.848633,479.570312 L283.848633,479.570312 L283.77832,479.570312 C283.344727,479.570312 282.996094,479.655273 282.732422,479.825195 C282.46875,479.995117 282.336914,480.378906 282.336914,480.976562 L282.336914,480.976562 L282.336914,481.292969 L274.954102,481.292969 C275.52832,480.8125 276.37793,480.118164 277.50293,479.209961 C278.62793,478.301758 279.413086,477.654297 279.858398,477.267578 C280.303711,476.880859 280.916016,476.338867 281.695312,475.641602 C282.474609,474.944336 283.016602,474.387695 283.321289,473.97168 C283.625977,473.555664 283.974609,473.040039 284.367187,472.424805 C284.759766,471.80957 285.023437,471.220703 285.158203,470.658203 C285.292969,470.095703 285.360352,469.492187 285.360352,468.847656 C285.360352,466.738281 284.592773,465.021484 283.057617,463.697266 C281.522461,462.373047 279.612305,461.710937 277.327148,461.710937 C275.241211,461.710937 273.536133,462.329102 272.211914,463.56543 C270.887695,464.801758 270.225586,466.164062 270.225586,467.652344 C270.225586,468.25 270.383789,468.674805 270.700195,468.926758 C271.016602,469.178711 271.368164,469.304687 271.754883,469.304687 C272.200195,469.304687 272.548828,469.155273 272.800781,468.856445 C273.052734,468.557617 273.193359,468.317383 273.222656,468.135742 C273.251953,467.954102 273.266602,467.78125 273.266602,467.617187 C273.336914,466.808594 273.670898,466.073242 274.268555,465.411133 C274.866211,464.749023 275.692383,464.417969 276.74707,464.417969 C278.188477,464.417969 279.480469,464.801758 280.623047,465.569336 C281.765625,466.336914 282.336914,467.441406 282.336914,468.882812 C282.336914,469.269531 282.304687,469.635742 282.240234,469.981445 C282.175781,470.327148 282.043945,470.693359 281.844727,471.080078 C281.645508,471.466797 281.449219,471.80957 281.255859,472.108398 C281.0625,472.407227 280.743164,472.791016 280.297852,473.259766 C279.852539,473.728516 279.457031,474.124023 279.111328,474.446289 C278.765625,474.768555 278.238281,475.228516 277.529297,475.826172 C276.820312,476.423828 276.208008,476.933594 275.692383,477.355469 C275.176758,477.777344 274.417969,478.401367 273.416016,479.227539 C272.414062,480.053711 271.555664,480.765625 270.84082,481.363281 C270.430664,481.726562 270.225586,482.171875 270.225586,482.699219 C270.249023,483.566406 270.717773,484 271.631836,484 L271.631836,484 L283.954102,484 Z M295.151367,484 C296.077148,484 296.540039,483.542969 296.540039,482.628906 C296.551758,481.738281 296.088867,481.292969 295.151367,481.292969 L295.151367,481.292969 L293.481445,481.292969 L293.481445,475.685547 C293.481445,473.904297 293.926758,472.606445 294.817383,471.791992 C295.708008,470.977539 296.657227,470.570312 297.665039,470.570312 C298.625977,470.570312 299.244141,470.822266 299.519531,471.326172 C299.794922,471.830078 299.932617,472.609375 299.932617,473.664062 L299.932617,473.664062 L299.932617,481.292969 L298.930664,481.292969 C298.473633,481.292969 298.130859,481.389648 297.902344,481.583008 C297.673828,481.776367 297.547852,481.943359 297.524414,482.083984 C297.500977,482.224609 297.489258,482.441406 297.489258,482.734375 C297.489258,483.578125 297.958008,484 298.895508,484 L298.895508,484 L304.643555,484 C305.53418,484 305.979492,483.542969 305.979492,482.628906 C305.979492,481.738281 305.522461,481.292969 304.608398,481.292969 L304.608398,481.292969 L302.920898,481.292969 L302.920898,473.628906 C302.920898,472.890625 302.879883,472.257812 302.797852,471.730469 C302.71582,471.203125 302.53418,470.608398 302.25293,469.946289 C301.97168,469.28418 301.491211,468.771484 300.811523,468.408203 C300.131836,468.044922 299.276367,467.863281 298.245117,467.863281 C296.463867,467.863281 294.875977,468.537109 293.481445,469.884766 L293.481445,469.884766 L293.481445,469.304687 C293.481445,468.449219 293.024414,468.021484 292.110352,468.021484 L292.110352,468.021484 L288.665039,468.021484 C287.821289,468.021484 287.399414,468.4375 287.399414,469.269531 C287.399414,469.703125 287.484375,470.03418 287.654297,470.262695 C287.824219,470.491211 287.991211,470.623047 288.155273,470.658203 C288.319336,470.693359 288.547852,470.710937 288.84082,470.710937 L288.84082,470.710937 L290.458008,470.710937 L290.458008,481.292969 L290.458008,481.292969 L288.805664,481.292969 C287.868164,481.292969 287.399414,481.75 287.399414,482.664062 C287.399414,483.554687 287.856445,484 288.770508,484 L288.770508,484 L295.151367,484 Z M314.15332,484.140625 C315.899414,484.140625 317.446289,483.443359 318.793945,482.048828 L318.793945,482.048828 L318.793945,482.664062 C318.782227,483.554687 319.186523,484 320.006836,484 L320.006836,484 L323.540039,484 C324.430664,484 324.875977,483.595703 324.875977,482.787109 L324.875977,482.787109 L324.875977,482.664062 C324.875977,481.75 324.395508,481.292969 323.43457,481.292969 L323.43457,481.292969 L321.817383,481.292969 L321.817383,463.626953 C321.817383,463.287109 321.805664,463.032227 321.782227,462.862305 C321.758789,462.692383 321.638672,462.507812 321.421875,462.308594 C321.205078,462.109375 320.879883,462.009766 320.446289,462.009766 L320.446289,462.009766 L316.983398,462.009766 C316.151367,462.021484 315.735352,462.419922 315.735352,463.205078 L315.735352,463.205078 L315.735352,463.328125 C315.735352,464.265625 316.192383,464.734375 317.106445,464.734375 L317.106445,464.734375 L318.793945,464.734375 L318.793945,469.568359 C317.516602,468.431641 316.063477,467.863281 314.43457,467.863281 C313.614258,467.863281 312.808594,468.009766 312.017578,468.302734 C311.226562,468.595703 310.464844,469.035156 309.732422,469.621094 C309,470.207031 308.405273,471.056641 307.948242,472.169922 C307.491211,473.283203 307.262695,474.583984 307.262695,476.072266 C307.262695,478.474609 307.907227,480.419922 309.196289,481.908203 C310.485352,483.396484 312.137695,484.140625 314.15332,484.140625 Z M314.610352,481.451172 C313.461914,481.451172 312.457031,481.017578 311.595703,480.150391 C310.734375,479.283203 310.303711,477.900391 310.303711,476.001953 C310.303711,474.349609 310.728516,473.03125 311.578125,472.046875 C312.427734,471.0625 313.561523,470.570312 314.979492,470.570312 C316.03418,470.570312 316.933594,470.942383 317.677734,471.686523 C318.421875,472.430664 318.793945,473.189453 318.793945,473.962891 L318.793945,473.962891 L318.793945,477.126953 C318.817383,477.888672 318.445312,478.799805 317.677734,479.860352 C316.910156,480.920898 315.887695,481.451172 314.610352,481.451172 Z M328.514648,486.988281 C329.077148,486.988281 329.516602,486.654297 329.833008,485.986328 L329.833008,485.986328 L341.575195,461.253906 C341.739258,460.960937 341.821289,460.65625 341.821289,460.339844 C341.821289,460.011719 341.692383,459.709961 341.43457,459.43457 C341.176758,459.15918 340.854492,459.021484 340.467773,459.021484 C340.31543,459.021484 340.186523,459.039062 340.081055,459.074219 C339.975586,459.109375 339.873047,459.162109 339.773437,459.232422 C339.673828,459.302734 339.588867,459.367187 339.518555,459.425781 C339.448242,459.484375 339.37793,459.575195 339.307617,459.698242 C339.237305,459.821289 339.19043,459.90625 339.166992,459.953125 C339.143555,460 339.102539,460.079102 339.043945,460.19043 C338.985352,460.301758 338.956055,460.369141 338.956055,460.392578 L338.956055,460.392578 L327.424805,484.720703 C327.237305,485.107422 327.143555,485.417969 327.143555,485.652344 C327.143555,486.015625 327.28125,486.329102 327.556641,486.592773 C327.832031,486.856445 328.151367,486.988281 328.514648,486.988281 Z M360.032227,484 C360.969727,484 361.438477,483.542969 361.438477,482.628906 C361.49707,481.714844 361.045898,481.257812 360.084961,481.257812 C360.026367,481.257812 359.961914,481.263672 359.891602,481.275391 C359.821289,481.287109 359.774414,481.292969 359.750977,481.292969 L359.750977,481.292969 L357.764648,481.292969 L357.764648,477.953125 L360.436523,477.953125 C361.327148,477.929687 361.772461,477.472656 361.772461,476.582031 C361.772461,475.691406 361.338867,475.246094 360.47168,475.246094 L360.47168,475.246094 L357.764648,475.246094 L357.764648,463.292969 C357.764648,462.964844 357.74707,462.704102 357.711914,462.510742 C357.676758,462.317383 357.553711,462.135742 357.342773,461.96582 C357.131836,461.795898 356.821289,461.710937 356.411133,461.710937 L356.411133,461.710937 L354.530273,461.710937 C354.120117,461.710937 353.818359,461.763672 353.625,461.869141 C353.431641,461.974609 353.217773,462.220703 352.983398,462.607422 L352.983398,462.607422 L345.56543,474.314453 C345.495117,474.431641 345.407227,474.575195 345.301758,474.745117 C345.196289,474.915039 345.128906,475.029297 345.099609,475.087891 C345.070312,475.146484 345.043945,475.231445 345.020508,475.342773 C344.99707,475.454102 344.985352,475.603516 344.985352,475.791016 L344.985352,475.791016 L344.985352,476.546875 C344.985352,476.957031 345.064453,477.276367 345.222656,477.504883 C345.380859,477.733398 345.541992,477.865234 345.706055,477.900391 C345.870117,477.935547 346.086914,477.953125 346.356445,477.953125 L346.356445,477.953125 L355.321289,477.953125 L355.321289,481.292969 L353.352539,481.292969 C353.317383,481.292969 353.264648,481.287109 353.194336,481.275391 C353.124023,481.263672 353.06543,481.257812 353.018555,481.257812 C352.104492,481.257812 351.647461,481.714844 351.647461,482.628906 C351.647461,483.039062 351.732422,483.352539 351.902344,483.569336 C352.072266,483.786133 352.233398,483.912109 352.385742,483.947266 C352.538086,483.982422 352.749023,484 353.018555,484 L353.018555,484 L360.032227,484 Z M355.321289,475.246094 L348.09668,475.246094 L355.321289,463.837891 L355.321289,475.246094 Z M377.680664,484 C378.571289,484 379.016602,483.542969 379.016602,482.628906 C379.063477,481.738281 378.606445,481.292969 377.645508,481.292969 L377.645508,481.292969 L374.288086,481.292969 L374.288086,463.117187 C374.299805,462.179687 373.895508,461.710937 373.075195,461.710937 C372.524414,461.722656 372.102539,462.050781 371.80957,462.695312 C370.918945,464.535156 369.741211,465.636719 368.276367,466 C368.182617,466.023437 367.974609,466.052734 367.652344,466.087891 C367.330078,466.123047 367.101562,466.164062 366.966797,466.210937 C366.832031,466.257812 366.694336,466.383789 366.553711,466.588867 C366.413086,466.793945 366.342773,467.078125 366.342773,467.441406 C366.342773,468.355469 366.782227,468.8125 367.661133,468.8125 C368.844727,468.8125 370.045898,468.355469 371.264648,467.441406 L371.264648,467.441406 L371.264648,481.292969 L367.924805,481.292969 C366.987305,481.292969 366.518555,481.75 366.518555,482.664062 C366.518555,483.027344 366.621094,483.334961 366.826172,483.586914 C367.03125,483.838867 367.338867,483.976562 367.749023,484 L367.749023,484 L377.680664,484 Z M391.180664,484.28125 C393.65332,484.28125 395.578125,483.633789 396.955078,482.338867 C398.332031,481.043945 399.020508,479.447266 399.020508,477.548828 C399.020508,476.494141 398.727539,475.462891 398.141602,474.455078 C397.555664,473.447266 396.553711,472.65625 395.135742,472.082031 C397.03418,470.757812 397.983398,469.041016 397.983398,466.931641 C397.983398,465.443359 397.388672,464.201172 396.199219,463.205078 C395.009766,462.208984 393.348633,461.710937 391.21582,461.710937 C388.813477,461.710937 387.073242,462.138672 385.995117,462.994141 C384.916992,463.849609 384.37793,464.792969 384.37793,465.824219 C384.37793,466.328125 384.500977,466.735352 384.74707,467.045898 C384.993164,467.356445 385.356445,467.511719 385.836914,467.511719 C386.129883,467.511719 386.378906,467.458984 386.583984,467.353516 C386.789062,467.248047 386.938477,467.104492 387.032227,466.922852 C387.125977,466.741211 387.205078,466.571289 387.269531,466.413086 C387.333984,466.254883 387.37793,466.09375 387.401367,465.929687 L387.401367,465.929687 L387.436523,465.71875 C387.729492,464.851562 388.989258,464.417969 391.21582,464.417969 C392.575195,464.417969 393.539062,464.675781 394.107422,465.191406 C394.675781,465.707031 394.959961,466.287109 394.959961,466.931641 C394.959961,467.892578 394.599609,468.727539 393.878906,469.436523 C393.158203,470.145508 392.317383,470.535156 391.356445,470.605469 C391.110352,470.628906 390.791016,470.652344 390.398437,470.675781 C390.005859,470.699219 389.724609,470.716797 389.554687,470.728516 C389.384766,470.740234 389.173828,470.77832 388.921875,470.842773 C388.669922,470.907227 388.49707,470.986328 388.40332,471.080078 C388.30957,471.173828 388.21875,471.302734 388.130859,471.466797 C388.042969,471.630859 387.999023,471.847656 387.999023,472.117187 C387.999023,473.03125 388.397461,473.488281 389.194336,473.488281 L389.194336,473.488281 L390.776367,473.488281 C392.745117,473.488281 394.107422,473.895508 394.863281,474.709961 C395.619141,475.524414 395.99707,476.458984 395.99707,477.513672 C395.99707,478.568359 395.619141,479.511719 394.863281,480.34375 C394.107422,481.175781 392.879883,481.591797 391.180664,481.591797 C389.879883,481.591797 388.749023,481.363281 387.788086,480.90625 C387.495117,480.765625 387.249023,480.610352 387.049805,480.44043 C386.850586,480.270508 386.701172,480.088867 386.601562,479.895508 C386.501953,479.702148 386.428711,479.549805 386.381836,479.438477 C386.334961,479.327148 386.299805,479.177734 386.276367,478.990234 L386.276367,478.990234 L386.276367,478.708984 C386.229492,478.345703 386.074219,478.038086 385.810547,477.786133 C385.546875,477.53418 385.209961,477.408203 384.799805,477.408203 C384.389648,477.408203 384.035156,477.545898 383.736328,477.821289 C383.4375,478.09668 383.288086,478.498047 383.288086,479.025391 C383.288086,480.583984 384.032227,481.849609 385.520508,482.822266 C387.008789,483.794922 388.895508,484.28125 391.180664,484.28125 Z" id="2nd/413" fill="#000000"></path>
            <path d="M106.008225,322.578082 C115.074891,332.606082 123.448224,343.047415 130.928224,353.990081 C131.781557,355.376748 132.808224,356.715415 133.688224,358.088748 C134.594891,359.458081 135.448224,360.832748 136.234891,362.206081 C137.87489,364.926081 139.381557,367.567414 140.368224,370.171414 C140.608224,370.824748 140.861557,371.459414 141.101557,372.076748 C141.328224,372.699414 141.528224,373.316748 141.701557,373.928748 C142.03489,375.150081 142.23489,376.348747 142.301557,377.511414 C142.368224,378.671414 142.248224,379.810081 142.03489,380.880747 C141.808224,381.944747 141.421557,382.966081 140.848224,383.935414 C138.781557,387.360747 135.141557,388.416747 130.648224,387.788747 C128.368224,387.490081 126.061557,386.684747 123.554891,385.612747 C122.314891,385.071414 121.048224,384.451414 119.781558,383.768747 C118.501558,383.087414 117.194891,382.352747 115.994891,381.527414 C104.528225,374.216748 94.5415582,362.559415 87.6482251,348.354082 C80.9815586,334.622082 75.4215587,320.004749 71.1415588,304.711416 L68.1548922,293.12475 L65.661559,281.298083 L63.7148923,269.28475 C63.341559,267.258084 63.1682257,265.24475 62.9282257,263.20475 L62.261559,257.08475 C59.2615591,291.818083 62.7682257,327.126082 72.3948921,360.512748 C82.9015585,371.270081 94.0082249,380.704747 105.434891,388.791414 C116.888224,396.86208 128.754891,403.535413 140.661557,408.89408 C152.75489,414.34608 164.421556,420.47408 175.448223,427.432746 C176.83489,428.295413 178.181556,429.191413 179.501556,430.114079 C180.861556,430.980746 182.194889,431.864746 183.461556,432.782079 C184.728223,433.688746 185.914889,434.655413 187.048223,435.590079 C188.221556,436.496746 189.301556,437.432746 190.274889,438.395413 C191.248222,439.356746 192.114889,440.348746 192.861556,441.366079 C193.634889,442.344746 194.301556,443.332746 194.808222,444.362079 C195.821556,446.416746 196.234889,448.596746 195.874889,450.883412 C195.261556,454.888746 192.301556,457.364745 187.994889,458.552745 C183.714889,459.735412 177.928223,459.798079 172.181556,458.814079 C158.928223,456.780745 145.328224,450.230079 133.621557,440.055413 C121.568224,429.615413 110.274891,417.779413 100.008225,404.671413 C89.7148917,391.576747 80.5948919,377.147414 72.7282254,361.684748 C77.9682253,379.800747 85.2082251,397.263414 93.9815582,413.832747 C96.0882249,418.02208 98.5148915,422.03008 100.861558,426.08208 C102.008225,428.128746 103.288225,430.078079 104.554891,432.051413 L108.328225,437.962079 C113.621558,445.650079 119.061558,453.248746 125.074891,460.366079 C146.968224,480.194078 171.51489,495.775411 197.168222,506.619411 C212.914889,513.226077 228.354888,520.263411 243.528221,528.108744 C245.408221,529.098077 247.328221,530.000744 249.181554,531.010077 C251.061554,531.988744 252.874888,533.060744 254.648221,534.062077 C258.221554,535.990077 261.514887,538.098077 264.301554,540.234077 C269.928221,544.298077 273.48822,548.890077 272.541554,553.76741 C271.701554,558.072743 267.408221,560.548743 261.128221,561.760743 C260.341554,561.91141 259.528221,562.044743 258.688221,562.158076 C257.861554,562.254076 256.994888,562.30341 256.114888,562.350076 C254.354888,562.434076 252.501554,562.446076 250.568221,562.39541 C248.661554,562.322076 246.648221,562.284743 244.661554,562.018076 C242.648221,561.774076 240.621555,561.476743 238.568221,561.13941 C229.221555,559.642076 219.994888,556.640743 211.128222,552.744743 C208.928222,551.748743 206.768222,550.61941 204.621555,549.49941 L201.421556,547.772743 C200.354889,547.194077 199.314889,546.596743 198.288222,545.932743 C196.234889,544.636743 194.208222,543.304743 192.221556,541.942077 C191.221556,541.256743 190.234889,540.578077 189.261556,539.86741 L186.408223,537.626077 C160.821557,517.399411 139.208224,493.056745 122.434891,466.347412 C120.474891,463.959412 118.448224,461.634079 116.554891,459.192745 L110.941558,451.823412 C109.101558,449.346079 107.381558,446.768746 105.594891,444.244746 C104.728225,442.964746 103.781558,441.735413 102.981558,440.414079 L100.474891,436.499413 C98.8082248,433.884746 97.1015582,431.300746 95.5948915,428.59008 C94.0482249,425.90208 92.4348916,423.244746 90.9415583,420.527413 L86.5948918,412.284747 C85.8482251,410.923413 85.2082251,409.50608 84.5282252,408.103413 L82.5282252,403.89008 C91.3148916,437.327413 106.528225,470.146078 127.768224,499.804744 C138.39489,514.626077 148.31489,529.596744 156.501557,544.514077 C158.27489,547.78341 160.008223,550.978076 161.421557,554.096743 C162.848223,557.202076 163.968223,560.19141 164.67489,562.76341 C166.03489,567.966076 165.448223,572.026076 161.128223,573.492743 C156.19489,575.227409 149.341557,572.603409 141.91489,567.772743 C138.288224,565.240743 134.501557,562.190076 130.821557,558.782076 C129.008224,557.02741 127.221557,555.202076 125.461557,553.338076 C124.581557,552.39941 123.714891,551.458076 122.834891,550.516743 C121.968224,549.576743 121.128224,548.614077 120.328224,547.614077 C107.088225,531.90741 97.9682248,514.392744 93.0082249,497.456744 C88.1682251,480.984745 84.8748918,464.483412 82.9148919,448.330079 C80.9815586,432.158079 80.3815586,416.320746 81.1415586,400.96608 C66.7682256,369.350081 58.2882258,334.890082 56.0748925,300.031416 C52.3015593,332.326082 53.9682259,366.376748 61.7148924,400.02208 C65.821559,417.951413 69.2615589,435.696746 71.0615588,452.722079 C71.4748921,456.427412 71.7682255,460.115412 71.8615588,463.560745 C72.0215588,466.964745 71.9948921,470.100745 71.6082255,472.787412 C70.8482255,478.142078 68.7415589,481.638078 64.2482257,481.207412 C61.7015591,480.962078 59.0748925,479.578078 56.4348925,477.336745 C55.0882259,476.231412 53.8482259,474.839412 52.5815593,473.294078 C51.3148926,471.742078 50.0615593,470.014078 48.8348927,468.143412 C43.9415595,460.648745 39.7415596,450.708746 36.6615597,440.874079 C30.4482265,421.076746 28.7415599,401.256747 30.6882265,383.676747 C32.5415598,367.034081 35.5682264,351.035415 39.7948929,335.816749 C44.0882262,320.591416 49.448226,306.191416 55.6615592,292.738083 C55.5948925,288.551416 55.4348925,284.351416 55.4482259,280.151417 L55.7548925,267.551417 C55.9815592,263.36475 56.3415592,259.178084 56.6348925,254.991417 C56.7282258,253.938084 56.7548925,252.884751 56.8882258,251.844751 L57.2748925,248.724751 L58.0348925,242.471418 C60.2748924,225.831418 63.9148923,209.391418 68.9548922,193.431419 L67.6082256,195.924752 C67.1548923,196.764752 66.7015589,197.604752 66.3148923,198.458085 L63.8482257,203.578085 L61.3815591,208.751418 L60.7682257,210.058085 L60.2082258,211.378085 L59.1015591,214.018085 L56.8748925,219.338085 L55.7548925,222.018085 L55.2082259,223.364751 L54.7148926,224.711418 L50.7548927,235.684751 C45.8348928,250.471417 41.9682262,265.871417 39.1815596,281.711417 C38.514893,286.231416 37.674893,290.711416 36.754893,295.16475 C35.9815597,299.604749 35.0882264,304.004749 34.0482264,308.364749 C33.1682264,312.711416 32.1682265,317.004749 31.0348932,321.244749 C29.9548932,325.468749 28.9015599,329.619415 27.6348932,333.703415 C26.4748933,337.286082 25.4748933,340.760748 24.2748933,343.947415 C23.0882267,347.128748 21.8082267,350.007415 20.3948934,352.312748 C17.6882268,356.898081 14.4748936,359.228748 10.448227,357.003415 C8.14156039,355.748748 6.34156044,353.382081 4.82156048,350.232748 C4.0615605,348.656748 3.39489385,346.883415 2.79489386,344.951415 C2.50156053,343.986082 2.22156054,342.979415 1.95489388,341.939415 C1.71489389,340.895415 1.51489389,339.812748 1.32822723,338.702082 C0.954893907,336.479415 0.661560581,334.136749 0.421560587,331.716749 C0.194893926,329.295415 -0.0184394022,326.799415 0.00822726373,324.246082 C-0.0184394022,321.698082 0.0215605968,319.111416 0.101560595,316.511416 C0.194893926,313.924749 0.30156059,311.324749 0.608227249,308.764749 C2.5282272,288.138083 8.42156039,269.418084 16.9682268,254.138084 L19.8348934,248.911417 C20.8482267,247.191417 21.90156,245.484751 22.94156,243.791417 C25.0082266,240.404751 27.0882266,237.071418 29.1682265,233.804751 C31.3815598,230.564751 33.6082264,227.378085 35.8215597,224.244751 C36.9415597,222.684751 38.034893,221.124751 39.1682263,219.604751 L42.7015595,215.084752 C45.0748928,212.111418 47.3682261,209.178085 49.768226,206.338085 C52.2615593,203.511418 54.7282259,200.738085 57.1815592,198.031419 C59.5815591,195.311419 62.221559,192.711419 64.7948923,190.164752 L68.6482255,186.391419 C69.9148922,185.138086 71.1815588,183.911419 72.5415588,182.724752 C77.914892,167.578086 84.7282251,153.018086 92.5948916,139.098087 C100.474891,125.204754 109.488225,111.991421 119.501558,99.6714206 C116.781558,101.831421 114.274891,104.231421 111.688224,106.564754 L107.794891,110.111421 L106.821558,111.004754 L105.901558,111.924754 L104.034891,113.791421 C101.568225,116.298087 99.0348915,118.778087 96.5948915,121.351421 L89.4348917,129.298087 C88.848225,129.964754 88.2215584,130.618087 87.6482251,131.31142 L85.9548918,133.378087 L82.5415585,137.564753 L79.1282253,141.79142 L75.8882254,146.15142 L72.6615588,150.55142 C71.5815588,152.03142 70.4615588,153.498086 69.4882255,155.03142 L63.3948923,164.244753 C53.7282259,179.538086 43.7548928,194.218085 33.0748931,207.164752 C30.7682265,210.004752 28.4082266,212.751418 26.0615599,215.164752 C25.4748933,215.778085 24.8882266,216.364751 24.3148933,216.924751 C23.7682267,217.484751 23.2082267,218.031418 22.66156,218.551418 C21.5682267,219.578085 20.4882268,220.498085 19.4215601,221.271418 C15.1815602,224.364751 11.3015603,225.178085 8.48822705,221.511418 C6.90156042,219.431418 6.03489378,216.511418 5.76822712,212.991418 C5.60822712,209.498085 6.08822711,205.418085 7.00822709,201.018085 C7.23489375,199.924752 7.48822708,198.804752 7.76822707,197.671419 C7.91489373,197.098085 8.0615604,196.524752 8.22156039,195.951419 C8.39489372,195.378085 8.58156038,194.818085 8.76822704,194.231419 C9.51489369,191.938085 10.3548937,189.591419 11.2748936,187.231419 C12.1948936,184.871419 13.1682269,182.498086 14.2082269,180.151419 C15.3282269,177.831419 16.5015602,175.524753 17.7015602,173.271419 C18.9015601,171.004753 20.1282268,168.778086 21.3682267,166.604753 C22.62156,164.418086 24.0482267,162.35142 25.4082266,160.298086 C26.7948933,158.244753 28.1948932,156.244753 29.6215599,154.298086 C30.3415598,153.324753 31.0215598,152.35142 31.7815598,151.418086 C32.5548931,150.498086 33.3148931,149.578087 34.0748931,148.67142 C37.1682263,145.058087 40.2215596,141.618087 43.4748928,138.47142 C46.7815594,135.364754 50.1148927,132.47142 53.4615593,129.804754 C54.9282259,128.604754 56.5015592,127.484754 58.0348925,126.35142 L62.661559,123.018087 C65.741559,120.818087 68.7415589,118.631421 71.9415588,116.644754 C75.0882254,114.631421 78.2215586,112.658087 81.3148919,110.724754 C84.4748918,108.844754 87.7148917,107.084754 90.8615583,105.338088 L95.5815582,102.751421 C97.1815582,101.924754 98.8215581,101.151421 100.421558,100.364754 C103.648225,98.8047539 106.834891,97.284754 109.994891,95.8180873 C113.274891,94.4314207 116.501558,93.0980874 119.701558,91.8047541 C121.314891,91.1780875 122.874891,90.5114208 124.501557,89.9247542 L129.394891,88.2180875 C149.741557,65.6447548 173.87489,46.8180886 200.181556,32.3247556 C188.154889,36.2714222 176.101556,40.9247554 164.47489,46.7780886 L160.061557,48.9247552 C158.59489,49.6580885 157.181557,50.4847551 155.741557,51.2580885 C152.861557,52.8314218 149.95489,54.404755 147.07489,56.044755 C141.488224,59.5114216 135.688224,62.8847548 130.248224,66.7780881 C115.608224,76.7914212 100.808225,86.0314209 86.1148918,93.4847541 C82.8882252,95.1114207 79.7682253,96.7114207 76.714892,97.964754 C73.6882254,99.2447539 70.7815588,100.218088 68.2215589,100.738088 C63.1948924,101.844754 59.3415591,100.991421 58.1282258,96.4580873 C57.7948925,95.1780874 57.6615592,93.7647541 57.8215592,92.2847541 C57.9815591,90.8180875 58.3682258,89.2580875 58.9548925,87.6180875 C60.1148924,84.351421 62.021559,80.7514211 64.5282257,77.1114211 C67.1282256,73.5380879 70.2615588,69.8714213 73.6748921,66.2580881 C77.1682253,62.7247548 81.0348919,59.3647549 84.8482251,56.1514217 C100.501558,43.4980887 117.701558,35.2180889 134.101557,31.138089 C137.67489,30.2714223 141.208224,29.4447557 144.71489,28.658089 C148.301557,27.978089 151.848223,27.3380891 155.35489,26.7247557 L160.608223,25.8447558 L165.901556,25.1914224 C169.408223,24.7647558 172.888223,24.3780891 176.31489,24.0314225 C179.821556,23.7914225 183.288223,23.5914225 186.714889,23.4047558 L191.808222,23.1647558 L196.954889,23.1514225 C200.354889,23.1647558 203.714889,23.1914225 207.021555,23.2447558 C210.408222,23.4314225 213.728222,23.6447558 217.021555,23.8847558 C250.101554,8.65808953 286.16822,0.524756404 322.341553,2.27373675e-13 C324.688219,-0.0619102486 326.568219,1.23142305 326.568219,2.88475634 C326.568219,4.53808964 324.714886,5.92475627 322.434886,5.9780896 L314.048219,6.20475626 C312.648219,6.20475626 311.261553,6.37808959 309.861553,6.47142292 L305.674886,6.80475625 L301.501553,7.12475624 L299.40822,7.29808957 L297.32822,7.56475623 L289.00822,8.67142287 C286.221553,8.96475619 283.48822,9.55142284 280.72822,10.0447562 C277.981554,10.5780895 275.221554,11.0447561 272.474887,11.6047561 L264.301554,13.5647561 L260.221554,14.5514227 L256.181554,15.7380893 C253.821554,18.1380893 251.501554,20.5247559 249.234888,22.8980892 C247.008221,25.3914224 244.834888,27.898089 242.714888,30.3647556 L239.554888,34.0714222 C238.541555,35.3514222 237.541555,36.6580888 236.554888,37.9380888 C234.568221,40.5114221 232.634888,43.0580887 230.754888,45.5914219 C228.914888,48.2447552 227.141555,50.8847551 225.394888,53.4980884 L222.821555,57.404755 L220.408222,61.4580882 C218.821555,64.1514215 217.274888,66.7914214 215.781555,69.4447547 C214.341555,72.2047546 212.954889,74.9247545 211.594889,77.6180878 C205.528222,90.0047542 198.768222,101.844754 191.248222,113.071421 C189.434889,115.938087 187.461556,118.644754 185.501556,121.204754 C183.621556,123.83142 181.634889,126.19142 179.594889,128.084754 C177.621556,130.084754 175.63489,131.684754 173.528223,132.618087 C172.488223,133.084754 171.421556,133.404754 170.341556,133.538087 C169.27489,133.684754 168.221556,133.684754 167.141556,133.458087 C163.31489,132.67142 161.11489,129.47142 160.168223,124.818087 C159.71489,122.524754 159.621557,119.938087 159.768223,117.111421 C159.941557,114.311421 160.301557,111.244754 160.928223,108.231421 C163.781557,94.4714207 171.048223,80.5914211 181.688223,68.8447547 C185.781556,64.1114215 190.288223,59.8580882 194.728222,55.3514217 C199.381556,51.1780885 203.994889,46.7514219 208.968222,42.8580887 C213.834889,38.6980888 219.021555,35.0580889 224.208222,31.2047556 C226.861555,29.3914223 229.554888,27.658089 232.248221,25.8714224 C233.608221,24.9914224 234.941555,24.0447558 236.328221,23.2180892 L240.514888,20.7514226 C226.421555,25.7780891 212.741555,32.0047556 199.648222,39.3647554 C186.568223,46.7780886 174.128223,55.3780884 162.43489,64.9380881 C159.67489,71.3114213 157.461557,78.0047545 155.288223,84.3780876 C154.248223,87.6314209 153.341557,90.9380875 152.421557,94.1647541 L151.07489,98.9780873 L149.941557,103.871421 C149.221557,107.138088 148.488224,110.311421 147.861557,113.511421 C147.301557,116.778087 146.768224,119.991421 146.27489,123.164754 C145.728224,126.284754 145.408224,129.538087 145.07489,132.698087 L144.608224,137.418087 L144.39489,139.75142 C144.31489,140.524753 144.301557,141.324753 144.248224,142.11142 C144.07489,145.59142 143.808224,149.03142 143.421557,152.418086 C143.128224,155.858086 142.821557,159.324753 142.341557,162.684753 C142.221557,163.511419 142.088224,164.351419 141.968224,165.191419 C141.861557,166.044753 141.768224,166.898086 141.661557,167.764753 C141.448224,169.471419 141.208224,171.151419 140.928224,172.831419 C140.781557,173.658086 140.63489,174.484753 140.47489,175.324753 L140.248224,176.564752 L140.048224,177.831419 C139.79489,179.524752 139.501557,181.204752 139.168224,182.858086 C138.848224,184.524752 138.448224,186.151419 138.101557,187.778086 C137.781557,189.431419 137.421557,191.058085 137.021557,192.618085 C136.621557,194.191419 136.181557,195.698085 135.674891,197.138085 C135.221557,198.591419 134.781557,200.004752 134.248224,201.298085 C133.714891,202.604752 133.128224,203.804752 132.461557,204.898085 C131.821557,205.991418 131.048224,206.951418 130.341557,207.831418 C128.848224,209.564752 127.048224,210.751418 124.874891,211.218085 C121.021558,212.031418 117.794891,210.004752 115.194891,206.164752 C113.901558,204.258085 112.728224,201.884752 111.768224,199.244752 C110.874891,196.631419 110.141558,193.724752 109.541558,190.698085 C106.888225,176.964752 108.168225,161.258086 113.448224,146.178087 C122.474891,120.751421 135.488224,95.804754 152.728223,73.2714212 C141.008224,83.831421 130.154891,95.4580874 120.354891,107.951421 L116.768224,112.711421 L114.968224,115.084754 C114.354891,115.871421 113.754891,116.658087 113.208224,117.498087 L106.461558,127.35142 L100.181558,137.524753 C98.1548915,140.964753 96.2882249,144.498087 94.3282249,147.978087 L94.2882249,150.658086 L94.3548916,153.39142 L94.5148916,158.778086 C94.6348916,162.35142 94.7282249,165.831419 95.0882249,169.391419 C95.3948915,172.911419 95.7282249,176.378086 96.0615582,179.791419 C96.5148915,183.244752 97.0482248,186.671419 97.5548915,190.018085 C97.8348915,191.698085 98.0615581,193.351419 98.3815581,195.018085 L99.4082248,200.004752 L100.461558,204.898085 C100.834891,206.524752 101.128225,208.098085 101.594891,209.724752 C102.461558,212.938085 103.341558,216.098085 104.221558,219.204751 L104.888225,221.511418 C105.114891,222.284751 105.394891,223.058085 105.648225,223.831418 L107.208225,228.404751 C108.354891,231.644751 109.274891,234.858084 110.408225,238.151418 C111.501558,241.418084 112.368224,244.671417 113.274891,247.938084 C114.274891,251.231417 115.141558,254.511417 115.861558,257.791417 C116.021558,258.60475 116.248224,259.431417 116.461558,260.258084 C116.661558,261.08475 116.861558,261.911417 117.061558,262.738084 C117.448224,264.391417 117.794891,266.04475 118.114891,267.698084 C118.261558,268.52475 118.408224,269.351417 118.554891,270.178083 C118.741558,271.00475 118.914891,271.831417 119.074891,272.658083 C119.394891,274.298083 119.674891,275.938083 119.888224,277.538083 C119.994891,278.338083 120.088224,279.138083 120.168224,279.92475 C120.234891,280.711417 120.288224,281.48475 120.394891,282.24475 C120.554891,283.76475 120.648224,285.24475 120.634891,286.658083 C120.634891,288.08475 120.541558,289.431416 120.328224,290.711416 C120.168224,291.978083 119.954891,293.178083 119.568224,294.271416 C118.834891,296.471416 117.608224,298.311416 115.754891,299.618083 C112.501558,301.938083 108.781558,301.391416 104.968225,298.938083 C101.194891,296.484749 97.1548915,292.12475 93.9148916,287.058083 C92.008225,284.178083 90.1415583,281.08475 88.7148917,277.831417 C87.2215584,274.56475 85.7948918,271.12475 84.6348918,267.538084 C83.5815585,263.96475 82.6615585,260.258084 81.8882252,256.431417 C81.7948919,255.951417 81.6882252,255.471417 81.6082252,254.991417 L81.4082252,253.538084 C81.3015586,252.578084 81.1815586,251.604751 81.0615586,250.631417 C80.8482252,248.671417 80.6615586,246.698084 80.5148919,244.698084 C79.7015586,230.258084 80.0215586,215.498085 81.5682252,200.631419 L82.9815585,189.471419 C83.5682252,185.764752 84.2748918,182.058086 84.9282251,178.311419 L85.4348918,175.498086 L86.0748918,172.738086 L87.3415584,167.164753 C87.7815584,165.311419 88.1682251,163.418086 88.6748917,161.564753 L90.2215583,156.044753 C75.5015587,185.898086 66.0615589,218.564751 62.6882257,251.938084 C63.0082257,252.791417 63.3548923,253.644751 63.741559,254.498084 L64.8482256,257.058084 L67.0748923,262.08475 L69.2882255,267.031417 C70.0748922,268.658084 70.9282255,270.28475 71.7415588,271.88475 C73.3815588,275.08475 75.0215587,278.231417 76.674892,281.311417 C78.4615586,284.40475 80.2482253,287.418083 82.0348919,290.378083 C89.368225,302.191416 97.4215582,312.951416 106.008225,322.578082" id="path15" fill="#D3862D" transform="translate(163.284109, 287.014430) scale(-1, 1) rotate(-180.000000) translate(-163.284109, -287.014430) "></path>
            <path d="M562.83488,322.578082 C553.768213,332.606082 545.408214,343.047415 537.928214,353.990081 C537.061547,355.376748 536.048214,356.715415 535.154881,358.088748 C534.248214,359.458081 533.394881,360.832748 532.608214,362.206081 C530.981547,364.926081 529.461547,367.567414 528.474881,370.171414 C528.234881,370.824748 527.981547,371.459414 527.741547,372.076748 C527.514881,372.699414 527.314881,373.316748 527.154881,373.928748 C526.821547,375.150081 526.608214,376.348747 526.554881,377.511414 C526.488214,378.671414 526.594881,379.810081 526.821547,380.880747 C527.034881,381.944747 527.421547,382.966081 528.008214,383.935414 C530.061547,387.360747 533.701547,388.416747 538.19488,387.788747 C540.47488,387.490081 542.79488,386.684747 545.288214,385.612747 C546.528214,385.071414 547.79488,384.451414 549.07488,383.768747 C550.35488,383.087414 551.648213,382.352747 552.861547,381.527414 C564.328213,374.216748 574.31488,362.559415 581.208213,348.354082 C587.861546,334.622082 593.421546,320.004749 597.714879,304.711416 L600.688212,293.12475 L603.181546,281.298083 L605.141545,269.28475 C605.501545,267.258084 605.688212,265.24475 605.914879,263.20475 L606.594879,257.08475 C609.581545,291.818083 606.088212,327.126082 596.448212,360.512748 C585.941546,371.270081 574.848213,380.704747 563.421547,388.791414 C551.95488,396.86208 540.088214,403.535413 528.194881,408.89408 C516.088214,414.34608 504.434881,420.47408 493.394882,427.432746 C492.021548,428.295413 490.661548,429.191413 489.354882,430.114079 C487.981548,430.980746 486.648215,431.864746 485.394882,432.782079 C484.114882,433.688746 482.941549,434.655413 481.794882,435.590079 C480.621549,436.496746 479.541549,437.432746 478.568215,438.395413 C477.594882,439.356746 476.728215,440.348746 475.981549,441.366079 C475.208215,442.344746 474.554882,443.332746 474.048215,444.362079 C473.034882,446.416746 472.621549,448.596746 472.981549,450.883412 C473.581549,454.888746 476.541549,457.364745 480.848215,458.552745 C485.128215,459.735412 490.914882,459.798079 496.661548,458.814079 C509.914881,456.780745 523.528214,450.230079 535.234881,440.055413 C547.274885,429.615413 558.581547,417.779413 568.83488,404.671413 C579.128213,391.576747 588.248213,377.147414 596.114879,361.684748 C590.888212,379.800747 583.634879,397.263414 574.87488,413.832747 C572.75488,418.02208 570.341546,422.03008 567.99488,426.08208 C566.848213,428.128746 565.55488,430.078079 564.301546,432.051413 L560.528213,437.962079 C555.221547,445.650079 549.781547,453.248746 543.781547,460.366079 C521.888214,480.194078 497.341548,495.775411 471.674882,506.619411 C455.941549,513.226077 440.50155,520.263411 425.328217,528.108744 C423.434883,529.098077 421.514883,530.000744 419.66155,531.010077 C417.794883,531.988744 415.98155,533.060744 414.208217,534.062077 C410.62155,535.990077 407.328217,538.098077 404.54155,540.234077 C398.928217,544.298077 395.368217,548.890077 396.314884,553.76741 C397.154884,558.072743 401.448217,560.548743 407.714884,561.760743 C408.50155,561.91141 409.314884,562.044743 410.154884,562.158076 C410.994884,562.254076 411.848217,562.30341 412.728217,562.350076 C414.50155,562.434076 416.354884,562.446076 418.274885,562.39541 C420.194883,562.322076 422.194883,562.284743 424.194883,562.018076 C426.194883,561.774076 428.234883,561.476743 430.274885,561.13941 C439.634883,559.642076 448.861549,556.640743 457.714882,552.744743 C459.928216,551.748743 462.074882,550.61941 464.221549,549.49941 L467.421549,547.772743 C468.488216,547.194077 469.541549,546.596743 470.554882,545.932743 C472.608215,544.636743 474.634882,543.304743 476.621549,541.942077 C477.621549,541.256743 478.621549,540.578077 479.594882,539.86741 L482.434882,537.626077 C508.034881,517.399411 529.648214,493.056745 546.421547,466.347412 C548.368214,463.959412 550.39488,461.634079 552.288213,459.192745 L557.901547,451.823412 C559.741547,449.346079 561.461547,446.768746 563.248213,444.244746 C564.128213,442.964746 565.061546,441.735413 565.87488,440.414079 L568.368213,436.499413 C570.03488,433.884746 571.741546,431.300746 573.261546,428.59008 C574.808213,425.90208 576.408213,423.244746 577.901546,420.527413 L582.248213,412.284747 C583.008213,410.923413 583.648213,409.50608 584.314879,408.103413 L586.314879,403.89008 C577.541546,437.327413 562.328213,470.146078 541.088214,499.804744 C530.448214,514.626077 520.528214,529.596744 512.354881,544.514077 C510.568214,547.78341 508.834881,550.978076 507.421548,554.096743 C506.008215,557.202076 504.888215,560.19141 504.181548,562.76341 C502.808215,567.966076 503.394881,572.026076 507.728215,573.492743 C512.661548,575.227409 519.501548,572.603409 526.928214,567.772743 C530.554881,565.240743 534.341547,562.190076 538.03488,558.782076 C539.83488,557.02741 541.63488,555.202076 543.39488,553.338076 C544.261547,552.39941 545.141547,551.458076 546.008214,550.516743 C546.87488,549.576743 547.71488,548.614077 548.528214,547.614077 C561.768213,531.90741 570.87488,514.392744 575.848213,497.456744 C580.688213,480.984745 583.981546,464.483412 585.928213,448.330079 C587.861546,432.158079 588.474879,416.320746 587.714879,400.96608 C602.088212,369.350081 610.568212,334.890082 612.768212,300.031416 C616.541545,332.326082 614.874879,366.376748 607.128212,400.02208 C603.034879,417.951413 599.594879,435.696746 597.794879,452.722079 C597.381546,456.427412 597.074879,460.115412 596.981546,463.560745 C596.834879,466.964745 596.861546,470.100745 597.248212,472.787412 C598.008212,478.142078 600.101546,481.638078 604.594879,481.207412 C607.141545,480.962078 609.768212,479.578078 612.408212,477.336745 C613.754879,476.231412 615.008212,474.839412 616.274885,473.294078 C617.528212,471.742078 618.781545,470.014078 620.008212,468.143412 C624.914878,460.648745 629.114878,450.708746 632.194878,440.874079 C638.408211,421.076746 640.114878,401.256747 638.154878,383.676747 C636.301545,367.034081 633.288211,351.035415 629.048212,335.816749 C624.768212,320.591416 619.394878,306.191416 613.181545,292.738083 C613.261545,288.551416 613.421545,284.351416 613.408212,280.151417 L613.101545,267.551417 C612.874879,263.36475 612.501545,259.178084 612.221545,254.991417 C612.128212,253.938084 612.088212,252.884751 611.954879,251.844751 L611.568212,248.724751 L610.808212,242.471418 C608.581545,225.831418 604.928212,209.391418 599.888212,193.431419 L601.234879,195.924752 C601.701546,196.764752 602.141546,197.604752 602.541546,198.458085 L604.994879,203.578085 L607.461545,208.751418 L608.088212,210.058085 L608.634879,211.378085 L609.754879,214.018085 L611.981545,219.338085 L613.088212,222.018085 L613.648212,223.364751 L614.141545,224.711418 L618.088212,235.684751 C623.008212,250.471417 626.874878,265.871417 629.661545,281.711417 C630.341545,286.231416 631.181545,290.711416 632.088211,295.16475 C632.861545,299.604749 633.768211,304.004749 634.794878,308.364749 C635.674878,312.711416 636.674878,317.004749 637.808211,321.244749 C638.888211,325.468749 639.941545,329.619415 641.221545,333.703415 C642.368211,337.286082 643.381545,340.760748 644.568211,343.947415 C645.754878,347.128748 647.048211,350.007415 648.448211,352.312748 C651.154878,356.898081 654.368211,359.228748 658.394877,357.003415 C660.714877,355.748748 662.501544,353.382081 664.021544,350.232748 C664.781544,348.656748 665.461544,346.883415 666.061544,344.951415 C666.354877,343.986082 666.634877,342.979415 666.888211,341.939415 C667.128211,340.895415 667.328211,339.812748 667.514877,338.702082 C667.888211,336.479415 668.194877,334.136749 668.421544,331.716749 C668.648211,329.295415 668.861544,326.799415 668.848211,324.246082 C668.874877,321.698082 668.834877,319.111416 668.741544,316.511416 C668.648211,313.924749 668.541544,311.324749 668.234877,308.764749 C666.328211,288.138083 660.421544,269.418084 651.888211,254.138084 L649.008211,248.911417 C647.994878,247.191417 646.941544,245.484751 645.914878,243.791417 C643.834878,240.404751 641.754878,237.071418 639.688211,233.804751 C637.461545,230.564751 635.234878,227.378085 633.021545,224.244751 C631.901545,222.684751 630.821545,221.124751 629.688212,219.604751 L626.154878,215.084752 C623.781545,212.111418 621.488212,209.178085 619.074878,206.338085 C616.594879,203.511418 614.114879,200.738085 611.661545,198.031419 C609.261545,195.311419 606.621545,192.711419 604.048212,190.164752 L600.208212,186.391419 C598.928212,185.138086 597.674879,183.911419 596.301546,182.724752 C590.941546,167.578086 584.114879,153.018086 576.261546,139.098087 C568.381546,125.204754 559.368213,111.991421 549.341547,99.6714206 C552.07488,101.831421 554.568213,104.231421 557.168213,106.564754 L561.048213,110.111421 L562.021547,111.004754 L562.95488,111.924754 L564.808213,113.791421 C567.274885,116.298087 569.821546,118.778087 572.261546,121.351421 L579.408213,129.298087 C580.008213,129.964754 580.621546,130.618087 581.194879,131.31142 L582.888213,133.378087 L586.301546,137.564753 L589.728213,141.79142 L592.954879,146.15142 L596.194879,150.55142 C597.274885,152.03142 598.381546,153.498086 599.368212,155.03142 L605.448212,164.244753 C615.128212,179.538086 625.101545,194.218085 635.781545,207.164752 C638.074878,210.004752 640.448211,212.751418 642.781545,215.164752 C643.368211,215.778085 643.968211,216.364751 644.528211,216.924751 C645.088211,217.484751 645.634878,218.031418 646.181544,218.551418 C647.274885,219.578085 648.368211,220.498085 649.421544,221.271418 C653.661544,224.364751 657.541544,225.178085 660.354877,221.511418 C661.954877,219.431418 662.808211,216.511418 663.088211,212.991418 C663.234877,209.498085 662.754877,205.418085 661.848211,201.018085 C661.621544,199.924752 661.354877,198.804752 661.074877,197.671419 C660.941544,197.098085 660.794877,196.524752 660.634877,195.951419 C660.448211,195.378085 660.274885,194.818085 660.088211,194.231419 C659.341544,191.938085 658.488211,189.591419 657.581544,187.231419 C656.661544,184.871419 655.688211,182.498086 654.648211,180.151419 C653.514878,177.831419 652.341544,175.524753 651.154878,173.271419 C649.954878,171.004753 648.728211,168.778086 647.474878,166.604753 C646.221544,164.418086 644.794878,162.35142 643.434878,160.298086 C642.048211,158.244753 640.648211,156.244753 639.221545,154.298086 C638.514878,153.324753 637.821545,152.35142 637.061545,151.418086 C636.301545,150.498086 635.541545,149.578087 634.768211,148.67142 C631.688211,145.058087 628.621545,141.618087 625.381545,138.47142 C622.074878,135.364754 618.728212,132.47142 615.394879,129.804754 C613.928212,128.604754 612.354879,127.484754 610.808212,126.35142 L606.181545,123.018087 C603.114879,120.818087 600.114879,118.631421 596.901546,116.644754 C593.754879,114.631421 590.634879,112.658087 587.528213,110.724754 C584.381546,108.844754 581.141546,107.084754 577.994879,105.338088 L573.261546,102.751421 C571.661546,101.924754 570.021546,101.151421 568.421546,100.364754 C565.19488,98.8047539 562.021547,97.284754 558.848213,95.8180873 C555.581547,94.4314207 552.341547,93.0980874 549.141547,91.8047541 C547.528214,91.1780875 545.968214,90.5114208 544.341547,89.9247542 L539.461547,88.2180875 C519.101548,65.6447548 494.968215,46.8180886 468.661549,32.3247556 C480.688215,36.2714222 492.754882,40.9247554 504.381548,46.7780886 L508.794881,48.9247552 C510.248215,49.6580885 511.661548,50.4847551 513.114881,51.2580885 C515.981548,52.8314218 518.888214,54.404755 521.768214,56.044755 C527.368214,59.5114216 533.154881,62.8847548 538.59488,66.7780881 C553.23488,76.7914212 568.03488,86.0314209 582.728213,93.4847541 C585.954879,95.1114207 589.074879,96.7114207 592.128212,97.964754 C595.154879,99.2447539 598.061546,100.218088 600.621546,100.738088 C605.648212,101.844754 609.514879,100.991421 610.728212,96.4580873 C611.061545,95.1780874 611.194879,93.7647541 611.021545,92.2847541 C610.861545,90.8180875 610.474879,89.2580875 609.901545,87.6180875 C608.728212,84.351421 606.834879,80.7514211 604.314879,77.1114211 C601.714879,73.5380879 598.581546,69.8714213 595.181546,66.2580881 C591.688212,62.7247548 587.821546,59.3647549 583.994879,56.1514217 C568.341546,43.4980887 551.141547,35.2180889 534.754881,31.138089 C531.181547,30.2714223 527.634881,29.4447557 524.141547,28.658089 C520.554881,27.978089 516.994881,27.3380891 513.488214,26.7247557 L508.248215,25.8447558 L502.954881,25.1914224 C499.434881,24.7647558 495.968215,24.3780891 492.528215,24.0314225 C489.021548,23.7914225 485.554882,23.5914225 482.141549,23.4047558 L477.034882,23.1647558 L471.901549,23.1514225 C468.501549,23.1647558 465.141549,23.1914225 461.821549,23.2447558 C458.448216,23.4314225 455.114883,23.6447558 451.834883,23.8847558 C418.754883,8.65808953 382.674884,0.524756404 346.501552,1.13686838e-13 C344.168219,-0.0619102486 342.274885,1.23142305 342.274885,2.88475634 C342.288219,4.53808964 344.141552,5.92475627 346.421552,5.9780896 L354.808218,6.20475626 C356.194885,6.20475626 357.594885,6.37808959 358.981552,6.47142292 L363.168218,6.80475625 L367.354885,7.12475624 L369.448218,7.29808957 L371.528218,7.56475623 L379.848218,8.67142287 C382.621551,8.96475619 385.368218,9.55142284 388.114884,10.0447562 C390.874884,10.5780895 393.634884,11.0447561 396.368217,11.6047561 L404.54155,13.5647561 L408.634884,14.5514227 L412.66155,15.7380893 C415.034884,18.1380893 417.34155,20.5247559 419.608217,22.8980892 C421.834883,25.3914224 424.008217,27.898089 426.14155,30.3647556 L429.288217,34.0714222 C430.30155,35.3514222 431.30155,36.6580888 432.30155,37.9380888 C434.274885,40.5114221 436.208216,43.0580887 438.088216,45.5914219 C439.928216,48.2447552 441.714883,50.8847551 443.448216,53.4980884 L446.021549,57.404755 L448.434883,61.4580882 C450.021549,64.1514215 451.581549,66.7914214 453.074883,69.4447547 C454.501549,72.2047546 455.901549,74.9247545 457.248216,77.6180878 C463.328216,90.0047542 470.088216,101.844754 477.594882,113.071421 C479.408215,115.938087 481.381549,118.644754 483.341549,121.204754 C485.234882,123.83142 487.208215,126.19142 489.261548,128.084754 C491.234882,130.084754 493.221548,131.684754 495.314882,132.618087 C496.368215,133.084754 497.434881,133.404754 498.501548,133.538087 C499.581548,133.684754 500.621548,133.684754 501.714881,133.458087 C505.528215,132.67142 507.728215,129.47142 508.688215,124.818087 C509.141548,122.524754 509.221548,119.938087 509.074881,117.111421 C508.914881,114.311421 508.554881,111.244754 507.914881,108.231421 C505.061548,94.4714207 497.794881,80.5914211 487.168215,68.8447547 C483.074882,64.1114215 478.568215,59.8580882 474.114882,55.3514217 C469.474882,51.1780885 464.861549,46.7514219 459.874882,42.8580887 C455.021549,38.6980888 449.834883,35.0580889 444.634883,31.2047556 C441.994883,29.3914223 439.30155,27.658089 436.594883,25.8714224 C435.234883,24.9914224 433.90155,24.0447558 432.514883,23.2180892 L428.34155,20.7514226 C442.42155,25.7780891 456.101549,32.0047556 469.208216,39.3647554 C482.274885,46.7780886 494.714882,55.3780884 506.408215,64.9380881 C509.168215,71.3114213 511.381548,78.0047545 513.568214,84.3780876 C514.608214,87.6314209 515.514881,90.9380875 516.434881,94.1647541 L517.768214,98.9780873 L518.901548,103.871421 C519.634881,107.138088 520.354881,110.311421 520.994881,113.511421 C521.554881,116.778087 522.074881,119.991421 522.581548,123.164754 C523.128214,126.284754 523.434881,129.538087 523.768214,132.698087 L524.234881,137.418087 L524.461547,139.75142 C524.528214,140.524753 524.554881,141.324753 524.594881,142.11142 C524.768214,145.59142 525.048214,149.03142 525.421547,152.418086 C525.728214,155.858086 526.034881,159.324753 526.514881,162.684753 C526.634881,163.511419 526.754881,164.351419 526.888214,165.191419 C526.981547,166.044753 527.088214,166.898086 527.181547,167.764753 C527.394881,169.471419 527.648214,171.151419 527.928214,172.831419 C528.074881,173.658086 528.221547,174.484753 528.368214,175.324753 L528.608214,176.564752 L528.794881,177.831419 C529.061547,179.524752 529.354881,181.204752 529.688214,182.858086 C530.008214,184.524752 530.408214,186.151419 530.754881,187.778086 C531.061547,189.431419 531.421547,191.058085 531.821547,192.618085 C532.221547,194.191419 532.674881,195.698085 533.168214,197.138085 C533.634881,198.591419 534.061547,200.004752 534.608214,201.298085 C535.128214,202.604752 535.728214,203.804752 536.381547,204.898085 C537.034881,205.991418 537.808214,206.951418 538.51488,207.831418 C539.99488,209.564752 541.79488,210.751418 543.981547,211.218085 C547.821547,212.031418 551.048213,210.004752 553.648213,206.164752 C554.941547,204.258085 556.128213,201.884752 557.088213,199.244752 C557.981547,196.631419 558.71488,193.724752 559.31488,190.698085 C561.95488,176.964752 560.688213,161.258086 555.39488,146.178087 C546.368214,120.751421 533.354881,95.804754 516.114881,73.2714212 C527.848214,83.831421 538.688214,95.4580874 548.488214,107.951421 L552.088213,112.711421 L553.888213,115.084754 C554.488213,115.871421 555.088213,116.658087 555.63488,117.498087 L562.381547,127.35142 L568.67488,137.524753 C570.701546,140.964753 572.568213,144.498087 574.528213,147.978087 L574.568213,150.658086 L574.501546,153.39142 L574.341546,158.778086 C574.208213,162.35142 574.11488,165.831419 573.75488,169.391419 C573.448213,172.911419 573.128213,176.378086 572.781546,179.791419 C572.328213,183.244752 571.79488,186.671419 571.288213,190.018085 C571.021546,191.698085 570.781546,193.351419 570.47488,195.018085 L569.43488,200.004752 L568.381546,204.898085 C568.008213,206.524752 567.728213,208.098085 567.261546,209.724752 C566.39488,212.938085 565.51488,216.098085 564.621546,219.204751 L563.968213,221.511418 C563.741547,222.284751 563.448213,223.058085 563.19488,223.831418 L561.63488,228.404751 C560.501547,231.644751 559.568213,234.858084 558.43488,238.151418 C557.35488,241.418084 556.47488,244.671417 555.568213,247.938084 C554.581547,251.231417 553.71488,254.511417 552.99488,257.791417 C552.83488,258.60475 552.59488,259.431417 552.39488,260.258084 C552.181547,261.08475 551.981547,261.911417 551.781547,262.738084 C551.39488,264.391417 551.048213,266.04475 550.741547,267.698084 C550.59488,268.52475 550.448214,269.351417 550.301547,270.178083 C550.11488,271.00475 549.941547,271.831417 549.781547,272.658083 C549.448214,274.298083 549.168214,275.938083 548.95488,277.538083 C548.848214,278.338083 548.75488,279.138083 548.688214,279.92475 C548.621547,280.711417 548.55488,281.48475 548.461547,282.24475 C548.288214,283.76475 548.208214,285.24475 548.208214,286.658083 C548.221547,288.08475 548.31488,289.431416 548.51488,290.711416 C548.67488,291.978083 548.901547,293.178083 549.274885,294.271416 C550.008214,296.471416 551.248213,298.311416 553.088213,299.618083 C556.35488,301.938083 560.061547,301.391416 563.87488,298.938083 C567.661546,296.484749 571.688213,292.12475 574.941546,287.058083 C576.848213,284.178083 578.701546,281.08475 580.141546,277.831417 C581.621546,274.56475 583.061546,271.12475 584.221546,267.538084 C585.274885,263.96475 586.181546,260.258084 586.954879,256.431417 C587.048213,255.951417 587.154879,255.471417 587.234879,254.991417 L587.434879,253.538084 C587.554879,252.578084 587.674879,251.604751 587.781546,250.631417 C588.008213,248.671417 588.181546,246.698084 588.341546,244.698084 C589.141546,230.258084 588.834879,215.498085 587.288213,200.631419 L585.861546,189.471419 C585.274885,185.764752 584.568213,182.058086 583.914879,178.311419 L583.408213,175.498086 L582.781546,172.738086 L581.501546,167.164753 C581.061546,165.311419 580.688213,163.418086 580.181546,161.564753 L578.621546,156.044753 C593.341546,185.898086 602.781546,218.564751 606.154879,251.938084 C605.848212,252.791417 605.488212,253.644751 605.114879,254.498084 L603.994879,257.058084 L601.781546,262.08475 L599.554879,267.031417 C598.781546,268.658084 597.928212,270.28475 597.114879,271.88475 C595.461546,275.08475 593.821546,278.231417 592.181546,281.311417 C590.381546,284.40475 588.594879,287.418083 586.821546,290.378083 C579.488213,302.191416 571.43488,312.951416 562.83488,322.578082" id="path16" fill="#D3862D" transform="translate(505.565603, 287.014430) scale(-1, 1) rotate(-180.000000) translate(-505.565603, -287.014430) "></path>
            <polygon id="Star" fill="#D0011B" points="335 232.198848 254.037547 272 269.5 187.699808 204 127.99808 294.518774 115.698848 335 39 375.481225 115.698848 466 127.99808 400.499999 187.699808 415.962452 272"></polygon>
            <path d="M293.31131,132 L375.792833,132 L375.792833,141.822654 L359.442329,141.822654 L359.442329,164.191076 L381,164.191076 L381,174.01373 L359.442329,174.01373 L359.442329,215.735698 L348.507279,215.735698 L348.507279,174.01373 L321.534154,174.01373 C320.492721,183.544622 318.409855,191.616705 315.389697,198.132723 C311.328108,206.302059 304.662934,212.623569 295.394177,217 L289.458006,208.344394 C297.893617,203.773455 303.517357,198.035469 306.433371,191.227689 C308.30795,186.364988 309.661814,180.627002 310.494961,174.01373 L288,174.01373 L288,164.191076 L311.223964,164.191076 C311.223964,163.607551 311.328108,163.121282 311.328108,162.537758 L311.328108,141.822654 L293.31131,141.822654 L293.31131,132 Z M322.367301,141.822654 L322.367301,162.537758 C322.367301,163.121282 322.263158,163.607551 322.263158,164.191076 L348.507279,164.191076 L348.507279,141.822654 L322.367301,141.822654 Z" id="" fill="#FFFFFF"></path>
            <path d="M193.481148,436.164062 C196.94469,436.164062 199.939481,435.779948 202.465523,435.011719 C204.991565,434.24349 206.912138,433.240885 208.227242,432.003906 C209.542346,430.766927 210.505888,429.510417 211.117867,428.234375 C211.729846,426.958333 212.035836,425.682292 212.035836,424.40625 C212.009794,420.682292 210.642606,417.804687 207.934273,415.773437 C205.06969,413.690104 200.512398,412.648437 194.262398,412.648437 L194.262398,412.648437 L187.231148,412.648437 C185.668648,412.648437 184.594429,412.244792 184.008492,411.4375 C183.422554,410.630208 183.129586,409.71875 183.129586,408.703125 C183.155627,408.078125 183.272815,407.414062 183.481148,406.710937 C185.772815,407.934896 188.298856,408.546875 191.059273,408.546875 C195.173856,408.546875 198.50719,407.335937 201.059273,404.914062 C203.611356,402.492187 204.887398,399.302083 204.887398,395.34375 C204.887398,393 204.301461,390.682292 203.129586,388.390625 L203.129586,388.390625 L205.082711,388 L206.840523,387.84375 C207.56969,389.119792 208.572294,389.757812 209.848336,389.757812 C210.759794,389.757812 211.547554,389.438802 212.211617,388.800781 C212.875679,388.16276 213.207711,387.361979 213.207711,386.398437 C213.207711,385.070312 212.654325,383.976562 211.547554,383.117187 C210.440784,382.257812 209.001981,381.828125 207.231148,381.828125 C204.184273,381.828125 201.567086,382.6875 199.379586,384.40625 L199.379586,384.40625 L199.301461,384.40625 C197.009794,382.895833 194.28844,382.140625 191.137398,382.140625 C186.970731,382.140625 183.611356,383.351562 181.059273,385.773437 C178.50719,388.195312 177.231148,391.385417 177.231148,395.34375 C177.205106,398.390625 178.051461,401.085937 179.770211,403.429687 L179.770211,403.429687 L179.770211,403.585937 C178.650419,405.304687 178.090523,407.147135 178.090523,409.113281 C178.090523,411.079427 178.676461,412.921875 179.848336,414.640625 C176.436877,416.776042 174.731148,420.005208 174.731148,424.328125 C174.731148,427.322917 176.189481,430.044271 179.106148,432.492187 C182.022815,434.940104 186.814481,436.164062 193.481148,436.164062 Z M191.059273,403.195312 C188.715523,403.195312 186.94469,402.446615 185.746773,400.949219 C184.548856,399.451823 183.949898,397.583333 183.949898,395.34375 C183.949898,392.583333 184.653023,390.591146 186.059273,389.367187 C187.465523,388.143229 189.13219,387.53125 191.059273,387.53125 C193.455106,387.53125 195.238961,388.260417 196.410836,389.71875 C197.582711,391.177083 198.168648,393.026042 198.168648,395.265625 C198.168648,397.739583 197.530627,399.679687 196.254586,401.085937 C194.978544,402.492187 193.246773,403.195312 191.059273,403.195312 Z M193.559273,430.8125 C188.741565,430.8125 185.336617,430.122396 183.344429,428.742187 C181.352242,427.361979 180.356148,425.8125 180.356148,424.09375 C180.356148,422.661458 180.85094,421.326823 181.840523,420.089844 C182.830106,418.852865 184.679065,418.234375 187.387398,418.234375 L187.387398,418.234375 L193.793648,418.234375 C195.590523,418.234375 197.10745,418.286458 198.344429,418.390625 C199.581409,418.494792 200.890002,418.735677 202.270211,419.113281 C203.650419,419.490885 204.685575,420.109375 205.375679,420.96875 C206.065784,421.828125 206.410836,422.921875 206.410836,424.25 C206.410836,426.229167 205.271513,427.817708 202.992867,429.015625 C200.714221,430.213542 197.56969,430.8125 193.559273,430.8125 Z M228.800442,376.398437 C230.519192,376.398437 231.74966,376.027344 232.491848,375.285156 C233.234035,374.542969 233.605129,373.716146 233.605129,372.804687 C233.605129,371.736979 233.162421,370.858073 232.277004,370.167969 C231.391587,369.477865 230.258775,369.132812 228.878567,369.132812 C227.185858,369.132812 225.9619,369.516927 225.206692,370.285156 C224.451483,371.053385 224.073879,371.893229 224.073879,372.804687 C224.073879,373.716146 224.451483,374.549479 225.206692,375.304687 C225.9619,376.033854 227.159817,376.398437 228.800442,376.398437 Z M242.237942,418 C244.269192,418 245.284817,416.984375 245.284817,414.953125 L245.284817,414.953125 L245.284817,414.679687 C245.284817,412.882812 244.24315,411.984375 242.159817,411.984375 L242.159817,411.984375 L233.605129,411.984375 L233.605129,385.617187 C233.605129,383.533854 232.641587,382.492187 230.714504,382.492187 L230.714504,382.492187 L217.862942,382.492187 C217.107733,382.492187 216.489244,382.583333 216.007473,382.765625 C215.525702,382.947917 215.206692,383.240885 215.050442,383.644531 C214.894192,384.048177 214.790025,384.386719 214.737942,384.660156 C214.685858,384.933594 214.659817,385.278646 214.659817,385.695312 C214.659817,387.544271 215.753567,388.46875 217.941067,388.46875 L217.941067,388.46875 L226.964504,388.46875 L226.964504,411.984375 L217.120754,411.984375 C216.053046,411.984375 215.265285,412.199219 214.757473,412.628906 C214.24966,413.058594 213.995754,413.833333 213.995754,414.953125 C213.995754,416.984375 214.985337,418 216.964504,418 L216.964504,418 L242.237942,418 Z M266.815048,418.3125 C270.643173,418.3125 273.839787,417.0625 276.404891,414.5625 C278.969995,412.0625 280.252548,409.289062 280.252548,406.242187 C280.226506,404.367187 279.04161,403.429687 276.69786,403.429687 C275.005152,403.429687 273.976506,404.041667 273.611923,405.265625 C273.507756,405.552083 273.455673,405.988281 273.455673,406.574219 C273.455673,407.160156 273.318954,407.785156 273.045516,408.449219 C272.772079,409.113281 272.283798,409.901042 271.580673,410.8125 C270.304631,411.828125 269.080673,412.335937 267.908798,412.335937 C266.893173,412.335937 266.027287,412.173177 265.311141,411.847656 C264.594995,411.522135 264.061141,411.144531 263.709579,410.714844 C263.358016,410.285156 263.091089,409.699219 262.908798,408.957031 C262.726506,408.214844 262.622339,407.589844 262.596298,407.082031 C262.570256,406.574219 262.557235,405.890625 262.557235,405.03125 L262.557235,388.46875 L275.76036,388.46875 C277.583277,388.46875 278.494735,387.492187 278.494735,385.539062 C278.494735,383.507812 277.505152,382.492187 275.525985,382.492187 L275.525985,382.492187 L262.557235,382.492187 L262.557235,375.265625 C262.557235,374.588542 262.466089,374.035156 262.283798,373.605469 C262.101506,373.175781 261.821558,372.882812 261.443954,372.726562 C261.06635,372.570312 260.75385,372.466146 260.506454,372.414062 C260.259058,372.361979 259.953068,372.335937 259.588485,372.335937 L259.588485,372.335937 L259.19786,372.335937 C258.546818,372.335937 258.039006,372.361979 257.674423,372.414062 C257.309839,372.466146 256.912704,372.726562 256.483016,373.195312 C256.053329,373.664062 255.838485,374.354167 255.838485,375.265625 L255.838485,375.265625 L255.838485,382.492187 L249.275985,382.492187 C247.244735,382.492187 246.22911,383.559896 246.22911,385.695312 C246.22911,387.544271 247.218693,388.46875 249.19786,388.46875 L249.19786,388.46875 L255.838485,388.46875 L255.838485,404.796875 C255.838485,406.125 255.91661,407.453125 256.07286,408.78125 C256.333277,410.8125 256.893173,412.52474 257.752548,413.917969 C258.611923,415.311198 259.627548,416.28776 260.799423,416.847656 C261.971298,417.407552 263.025985,417.791667 263.963485,418 C264.900985,418.208333 265.851506,418.3125 266.815048,418.3125 Z M312.212466,403.195312 C314.139549,403.143229 315.103091,402.134115 315.103091,400.167969 C315.103091,398.201823 314.087466,397.21875 312.056216,397.21875 L312.056216,397.21875 L290.220279,397.21875 C288.136945,397.192708 287.095279,398.273437 287.095279,400.460937 C287.095279,402.231771 288.032779,403.143229 289.907779,403.195312 L289.907779,403.195312 L312.212466,403.195312 Z M339.25051,418.3125 C341.802593,418.3125 344.068218,417.902344 346.047385,417.082031 C348.026551,416.261719 349.497905,415.252604 350.461447,414.054687 C351.424989,412.856771 352.128114,411.769531 352.570822,410.792969 C353.01353,409.816406 353.234885,409.067708 353.234885,408.546875 C353.234885,407.010417 352.115093,406.242187 349.87551,406.242187 L349.87551,406.242187 L349.56301,406.242187 C348.755718,406.242187 348.137228,406.359375 347.707541,406.59375 C347.277853,406.828125 346.880718,407.427083 346.516135,408.390625 C345.50051,411.020833 343.612489,412.335937 340.852072,412.335937 C337.180197,412.335937 334.113791,411.261719 331.652853,409.113281 C329.191916,406.964844 327.961447,403.976562 327.961447,400.148437 C327.961447,396.841146 328.879416,393.989583 330.715353,391.59375 C332.551291,389.197917 335.65676,388 340.03176,388 C342.714051,388 344.615093,388.130208 345.734885,388.390625 C346.151551,390.109375 347.245301,390.96875 349.016135,390.96875 C349.979676,390.96875 350.780457,390.64974 351.418478,390.011719 C352.056499,389.373698 352.37551,388.572917 352.37551,387.609375 C352.37551,386.333333 351.984885,385.278646 351.203635,384.445312 C350.422385,383.611979 349.315614,383.039062 347.883322,382.726562 C346.45103,382.414062 345.207541,382.21224 344.152853,382.121094 C343.098166,382.029948 341.776551,381.984375 340.18801,381.984375 L340.18801,381.984375 L339.641135,381.984375 C333.78176,381.984375 329.25051,383.703125 326.047385,387.140625 C322.84426,390.578125 321.242697,394.940104 321.242697,400.226562 C321.242697,405.617187 322.896343,409.979167 326.203635,413.3125 C329.510926,416.645833 333.859885,418.3125 339.25051,418.3125 Z M386.835428,418 C387.356261,418 387.80548,417.960937 388.183084,417.882812 C388.560688,417.804687 388.938293,417.52474 389.315897,417.042969 C389.693501,416.561198 389.882303,415.864583 389.882303,414.953125 C389.882303,412.973958 388.840636,411.984375 386.757303,411.984375 L386.757303,411.984375 L376.288553,411.984375 L376.288553,372.414062 C376.288553,370.226562 375.272928,369.132812 373.241678,369.132812 L373.241678,369.132812 L358.983865,369.132812 C356.952615,369.132812 355.93699,370.083333 355.93699,371.984375 C355.93699,372.947917 356.125793,373.683594 356.503397,374.191406 C356.881001,374.699219 357.239074,374.992187 357.577615,375.070312 C357.916157,375.148437 358.384907,375.1875 358.983865,375.1875 L358.983865,375.1875 L369.569803,375.1875 L369.569803,411.984375 L359.140115,411.984375 C358.515115,411.984375 358.013813,412.029948 357.636209,412.121094 C357.258605,412.21224 356.881001,412.492187 356.503397,412.960937 C356.125793,413.429687 355.93699,414.145833 355.93699,415.109375 C355.989074,417.036458 357.004699,418 358.983865,418 L358.983865,418 L386.835428,418 Z M408.326596,376.398437 C410.045346,376.398437 411.275815,376.027344 412.018003,375.285156 C412.76019,374.542969 413.131284,373.716146 413.131284,372.804687 C413.131284,371.736979 412.688576,370.858073 411.803159,370.167969 C410.917742,369.477865 409.78493,369.132812 408.404721,369.132812 C406.712013,369.132812 405.488055,369.516927 404.732846,370.285156 C403.977638,371.053385 403.600034,371.893229 403.600034,372.804687 C403.600034,373.716146 403.977638,374.549479 404.732846,375.304687 C405.488055,376.033854 406.685971,376.398437 408.326596,376.398437 Z M421.764096,418 C423.795346,418 424.810971,416.984375 424.810971,414.953125 L424.810971,414.953125 L424.810971,414.679687 C424.810971,412.882812 423.769305,411.984375 421.685971,411.984375 L421.685971,411.984375 L413.131284,411.984375 L413.131284,385.617187 C413.131284,383.533854 412.167742,382.492187 410.240659,382.492187 L410.240659,382.492187 L397.389096,382.492187 C396.633888,382.492187 396.015399,382.583333 395.533628,382.765625 C395.051857,382.947917 394.732846,383.240885 394.576596,383.644531 C394.420346,384.048177 394.31618,384.386719 394.264096,384.660156 C394.212013,384.933594 394.185971,385.278646 394.185971,385.695312 C394.185971,387.544271 395.279721,388.46875 397.467221,388.46875 L397.467221,388.46875 L406.490659,388.46875 L406.490659,411.984375 L396.646909,411.984375 C395.579201,411.984375 394.79144,412.199219 394.283628,412.628906 C393.775815,413.058594 393.521909,413.833333 393.521909,414.953125 C393.521909,416.984375 394.511492,418 396.490659,418 L396.490659,418 L421.764096,418 Z M452.70839,418 C454.843807,418 455.911515,417.010417 455.911515,415.03125 C455.911515,414.119792 455.703182,413.410156 455.286515,412.902344 C454.869848,412.394531 454.498755,412.114583 454.173234,412.0625 C453.847713,412.010417 453.450577,411.984375 452.981827,411.984375 L452.981827,411.984375 L444.544327,411.984375 L444.544327,388.46875 L453.919327,388.46875 C456.002661,388.46875 457.044327,387.518229 457.044327,385.617187 C457.044327,383.533854 455.976619,382.492187 453.841202,382.492187 L453.841202,382.492187 L444.544327,382.492187 L444.544327,379.757812 C444.544327,379.184896 444.57688,378.735677 444.641984,378.410156 C444.707088,378.084635 444.89589,377.576823 445.20839,376.886719 C445.52089,376.196615 446.14589,375.675781 447.08339,375.324219 C448.02089,374.972656 449.231827,374.796875 450.716202,374.796875 C451.367244,374.796875 451.92714,374.822917 452.39589,374.875 C453.099015,376.203125 454.11464,376.867187 455.442765,376.867187 C456.30214,376.867187 457.063859,376.535156 457.727921,375.871094 C458.391984,375.207031 458.724015,374.393229 458.724015,373.429687 C458.724015,372.257812 458.216202,371.190104 457.200577,370.226562 C456.184952,369.263021 454.453182,368.78125 452.005265,368.78125 C450.286515,368.78125 448.658911,368.957031 447.122452,369.308594 C445.585994,369.660156 444.095109,370.220052 442.649796,370.988281 C441.204484,371.75651 440.05214,372.902344 439.192765,374.425781 C438.33339,375.949219 437.903702,377.752604 437.903702,379.835937 L437.903702,379.835937 L437.903702,382.492187 L430.247452,382.492187 C428.216202,382.492187 427.200577,383.559896 427.200577,385.695312 C427.200577,387.544271 428.216202,388.46875 430.247452,388.46875 L430.247452,388.46875 L437.903702,388.46875 L437.903702,411.984375 L429.622452,411.984375 C427.591202,411.984375 426.575577,412.973958 426.575577,414.953125 C426.575577,416.984375 427.55214,418 429.505265,418 L429.505265,418 L452.70839,418 Z M488.613621,418 C490.749038,418 491.816746,417.010417 491.816746,415.03125 C491.816746,414.119792 491.608413,413.410156 491.191746,412.902344 C490.775079,412.394531 490.403986,412.114583 490.078465,412.0625 C489.752944,412.010417 489.355808,411.984375 488.887058,411.984375 L488.887058,411.984375 L480.449558,411.984375 L480.449558,388.46875 L489.824558,388.46875 C491.907892,388.46875 492.949558,387.518229 492.949558,385.617187 C492.949558,383.533854 491.88185,382.492187 489.746433,382.492187 L489.746433,382.492187 L480.449558,382.492187 L480.449558,379.757812 C480.449558,379.184896 480.482111,378.735677 480.547215,378.410156 C480.612319,378.084635 480.801121,377.576823 481.113621,376.886719 C481.426121,376.196615 482.051121,375.675781 482.988621,375.324219 C483.926121,374.972656 485.137058,374.796875 486.621433,374.796875 C487.272475,374.796875 487.832371,374.822917 488.301121,374.875 C489.004246,376.203125 490.019871,376.867187 491.347996,376.867187 C492.207371,376.867187 492.96909,376.535156 493.633152,375.871094 C494.297215,375.207031 494.629246,374.393229 494.629246,373.429687 C494.629246,372.257812 494.121433,371.190104 493.105808,370.226562 C492.090183,369.263021 490.358413,368.78125 487.910496,368.78125 C486.191746,368.78125 484.564142,368.957031 483.027683,369.308594 C481.491225,369.660156 480.00034,370.220052 478.555027,370.988281 C477.109715,371.75651 475.957371,372.902344 475.097996,374.425781 C474.238621,375.949219 473.808933,377.752604 473.808933,379.835937 L473.808933,379.835937 L473.808933,382.492187 L466.152683,382.492187 C464.121433,382.492187 463.105808,383.559896 463.105808,385.695312 C463.105808,387.544271 464.121433,388.46875 466.152683,388.46875 L466.152683,388.46875 L473.808933,388.46875 L473.808933,411.984375 L465.527683,411.984375 C463.496433,411.984375 462.480808,412.973958 462.480808,414.953125 C462.480808,416.984375 463.457371,418 465.410496,418 L465.410496,418 L488.613621,418 Z" id="git-cliff" fill="#000000"></path>
            <path d="M267.165039,331 C267.575195,331 267.894531,330.915039 268.123047,330.745117 C268.351562,330.575195 268.483398,330.396484 268.518555,330.208984 C268.553711,330.021484 268.571289,329.769531 268.571289,329.453125 L268.571289,329.453125 L268.571289,325.638672 C268.571289,324.771484 268.09082,324.337891 267.129883,324.337891 C266.801758,324.337891 266.546875,324.355469 266.365234,324.390625 C266.183594,324.425781 266.001953,324.545898 265.820312,324.750977 C265.638672,324.956055 265.547852,325.251953 265.547852,325.638672 L265.547852,325.638672 L265.547852,328.292969 L256.688477,328.292969 L256.688477,320.962891 L260.907227,320.962891 L260.907227,321.560547 C260.907227,321.830078 260.918945,322.043945 260.942383,322.202148 C260.96582,322.360352 261.097656,322.533203 261.337891,322.720703 C261.578125,322.908203 261.926758,323.001953 262.383789,323.001953 L262.383789,323.001953 L262.55957,323.001953 C263.473633,323.001953 263.930664,322.550781 263.930664,321.648437 L263.930664,321.648437 L263.930664,317.640625 C263.930664,317.183594 263.839844,316.829102 263.658203,316.577148 C263.476562,316.325195 263.075195,316.199219 262.454102,316.199219 L262.454102,316.199219 L262.27832,316.199219 C262.032227,316.199219 261.827148,316.216797 261.663086,316.251953 C261.499023,316.287109 261.332031,316.418945 261.162109,316.647461 C260.992187,316.875977 260.907227,317.195312 260.907227,317.605469 L260.907227,317.605469 L260.907227,318.255859 L256.688477,318.255859 L256.688477,311.734375 L264.756836,311.734375 L264.756836,313.474609 C264.756836,313.779297 264.762695,313.999023 264.774414,314.133789 C264.786133,314.268555 264.838867,314.432617 264.932617,314.625977 C265.026367,314.819336 265.181641,314.951172 265.398437,315.021484 C265.615234,315.091797 265.916992,315.126953 266.303711,315.126953 L266.303711,315.126953 L266.444336,315.126953 C267.334961,315.126953 267.768555,314.693359 267.745117,313.826172 L267.745117,313.826172 L267.745117,310.486328 C267.745117,310.193359 267.733398,309.967773 267.709961,309.80957 C267.686523,309.651367 267.566406,309.478516 267.349609,309.291016 C267.132812,309.103516 266.807617,309.009766 266.374023,309.009766 L266.374023,309.009766 L252.557617,309.009766 C252.124023,309.009766 251.787109,309.103516 251.546875,309.291016 C251.306641,309.478516 251.174805,309.654297 251.151367,309.818359 C251.12793,309.982422 251.116211,310.181641 251.116211,310.416016 C251.116211,310.791016 251.201172,311.086914 251.371094,311.303711 C251.541016,311.520508 251.719727,311.646484 251.907227,311.681641 C252.094727,311.716797 252.334961,311.734375 252.62793,311.734375 L252.62793,311.734375 L253.665039,311.734375 L253.665039,328.292969 L252.522461,328.292969 C251.584961,328.292969 251.116211,328.703125 251.116211,329.523437 C251.116211,330.507812 251.561523,331 252.452148,331 L252.452148,331 L267.165039,331 Z M276.604492,331 C277.483398,331 277.922852,330.542969 277.922852,329.628906 C277.922852,328.738281 277.459961,328.292969 276.53418,328.292969 L276.53418,328.292969 L276.235352,328.292969 L278.678711,324.478516 L281.245117,328.292969 L281.069336,328.292969 C280.612305,328.292969 280.251953,328.37207 279.988281,328.530273 C279.724609,328.688477 279.592773,329.078125 279.592773,329.699219 C279.592773,330.566406 280.020508,331 280.875977,331 L280.875977,331 L285.81543,331 C286.729492,331 287.186523,330.554687 287.186523,329.664062 C287.186523,328.726562 286.729492,328.257812 285.81543,328.257812 L285.81543,328.257812 L285.639648,328.257812 L285.569336,328.292969 L284.479492,328.292969 C284.256836,328.292969 284.086914,328.246094 283.969727,328.152344 C283.875977,328.082031 283.205078,327.211914 281.957031,325.541992 C280.708984,323.87207 280.014648,322.931641 279.874023,322.720703 L279.874023,322.720703 L283.073242,318.361328 C283.09668,318.314453 283.146484,318.238281 283.222656,318.132812 C283.298828,318.027344 283.354492,317.962891 283.389648,317.939453 C283.424805,317.916016 283.47168,317.87793 283.530273,317.825195 C283.588867,317.772461 283.65332,317.740234 283.723633,317.728516 C283.793945,317.716797 283.875977,317.710937 283.969727,317.710937 L283.969727,317.710937 L285.34082,317.710937 C286.27832,317.710937 286.735352,317.271484 286.711914,316.392578 C286.711914,315.478516 286.243164,315.021484 285.305664,315.021484 L285.305664,315.021484 L280.418945,315.021484 C279.551758,315.021484 279.118164,315.460937 279.118164,316.339844 C279.118164,316.773437 279.208984,317.110352 279.390625,317.350586 C279.572266,317.59082 279.99707,317.710937 280.665039,317.710937 L280.665039,317.710937 L278.713867,320.59375 L276.639648,317.710937 L276.780273,317.710937 C277.014648,317.710937 277.216797,317.693359 277.386719,317.658203 C277.556641,317.623047 277.726562,317.49707 277.896484,317.280273 C278.066406,317.063477 278.151367,316.75 278.151367,316.339844 C278.151367,315.460937 277.706055,315.021484 276.81543,315.021484 L276.81543,315.021484 L271.911133,315.021484 C271.512695,315.021484 271.199219,315.115234 270.970703,315.302734 C270.742187,315.490234 270.616211,315.663086 270.592773,315.821289 C270.569336,315.979492 270.557617,316.193359 270.557617,316.462891 C270.557617,317.294922 271.038086,317.710937 271.999023,317.710937 L271.999023,317.710937 L273.756836,317.710937 L277.500977,322.720703 L277.500977,322.755859 C277.407227,322.873047 277.275391,323.051758 277.105469,323.291992 C276.935547,323.532227 276.575195,324.030273 276.024414,324.786133 C275.473633,325.541992 274.799805,326.470703 274.00293,327.572266 C273.932617,327.654297 273.850586,327.765625 273.756836,327.90625 C273.663086,328.046875 273.598633,328.128906 273.563477,328.152344 C273.52832,328.175781 273.466797,328.205078 273.378906,328.240234 C273.291016,328.275391 273.176758,328.292969 273.036133,328.292969 L273.036133,328.292969 L271.735352,328.292969 C270.797852,328.292969 270.329102,328.726562 270.329102,329.59375 C270.329102,330.53125 270.786133,331 271.700195,331 L271.700195,331 L276.604492,331 Z M298.700195,331.140625 C299.848633,331.140625 300.868164,330.956055 301.758789,330.586914 C302.649414,330.217773 303.311523,329.763672 303.745117,329.224609 C304.178711,328.685547 304.495117,328.196289 304.694336,327.756836 C304.893555,327.317383 304.993164,326.980469 304.993164,326.746094 C304.993164,326.054687 304.489258,325.708984 303.481445,325.708984 L303.481445,325.708984 L303.34082,325.708984 C302.977539,325.708984 302.699219,325.761719 302.505859,325.867187 C302.3125,325.972656 302.133789,326.242187 301.969727,326.675781 C301.512695,327.859375 300.663086,328.451172 299.420898,328.451172 C297.768555,328.451172 296.388672,327.967773 295.28125,327.000977 C294.173828,326.03418 293.620117,324.689453 293.620117,322.966797 C293.620117,321.478516 294.033203,320.195312 294.859375,319.117187 C295.685547,318.039062 297.083008,317.5 299.051758,317.5 C300.258789,317.5 301.114258,317.558594 301.618164,317.675781 C301.805664,318.449219 302.297852,318.835937 303.094727,318.835937 C303.52832,318.835937 303.888672,318.692383 304.175781,318.405273 C304.462891,318.118164 304.606445,317.757812 304.606445,317.324219 C304.606445,316.75 304.430664,316.275391 304.079102,315.900391 C303.727539,315.525391 303.229492,315.267578 302.584961,315.126953 C301.94043,314.986328 301.380859,314.895508 300.90625,314.854492 C300.431641,314.813477 299.836914,314.792969 299.12207,314.792969 L299.12207,314.792969 L298.875977,314.792969 C296.239258,314.792969 294.200195,315.566406 292.758789,317.113281 C291.317383,318.660156 290.59668,320.623047 290.59668,323.001953 C290.59668,325.427734 291.34082,327.390625 292.829102,328.890625 C294.317383,330.390625 296.274414,331.140625 298.700195,331.140625 Z M317.350586,331.140625 C319.342773,331.140625 320.918945,330.630859 322.079102,329.611328 C323.239258,328.591797 323.819336,327.660156 323.819336,326.816406 C323.819336,326.078125 323.362305,325.708984 322.448242,325.708984 L322.448242,325.708984 L322.342773,325.708984 C322.014648,325.708984 321.753906,325.744141 321.560547,325.814453 C321.367187,325.884766 321.241211,325.949219 321.182617,326.007812 C321.124023,326.066406 321.033203,326.21875 320.910156,326.464844 C320.787109,326.710937 320.69043,326.892578 320.620117,327.009766 C320.03418,327.970703 319.166992,328.451172 318.018555,328.451172 C316.682617,328.451172 315.455078,328.143555 314.335937,327.52832 C313.216797,326.913086 312.44043,325.873047 312.006836,324.408203 L312.006836,324.408203 L322.483398,324.408203 C323.397461,324.408203 323.854492,323.992187 323.854492,323.160156 C323.854492,321.742187 323.681641,320.50293 323.335937,319.442383 C322.990234,318.381836 322.577148,317.564453 322.09668,316.990234 C321.616211,316.416016 321.033203,315.956055 320.347656,315.610352 C319.662109,315.264648 319.049805,315.041992 318.510742,314.942383 C317.97168,314.842773 317.415039,314.792969 316.84082,314.792969 C314.485352,314.792969 312.563477,315.537109 311.075195,317.025391 C309.586914,318.513672 308.842773,320.482422 308.842773,322.931641 C308.842773,325.404297 309.625,327.390625 311.189453,328.890625 C312.753906,330.390625 314.807617,331.140625 317.350586,331.140625 Z M320.760742,321.929687 L311.936523,321.929687 C312.100586,320.582031 312.616211,319.506836 313.483398,318.704102 C314.350586,317.901367 315.469727,317.5 316.84082,317.5 C319.266602,317.5 320.573242,318.976562 320.760742,321.929687 L320.760742,321.929687 Z M341.749023,331 C341.983398,331 342.185547,330.982422 342.355469,330.947266 C342.525391,330.912109 342.695312,330.786133 342.865234,330.569336 C343.035156,330.352539 343.120117,330.039062 343.120117,329.628906 C343.120117,328.738281 342.651367,328.292969 341.713867,328.292969 L341.713867,328.292969 L337.00293,328.292969 L337.00293,310.486328 C337.00293,309.501953 336.545898,309.009766 335.631836,309.009766 L335.631836,309.009766 L329.21582,309.009766 C328.301758,309.009766 327.844727,309.4375 327.844727,310.292969 C327.844727,310.726562 327.929687,311.057617 328.099609,311.286133 C328.269531,311.514648 328.430664,311.646484 328.583008,311.681641 C328.735352,311.716797 328.946289,311.734375 329.21582,311.734375 L329.21582,311.734375 L333.979492,311.734375 L333.979492,328.292969 L329.286133,328.292969 C329.004883,328.292969 328.779297,328.313477 328.609375,328.354492 C328.439453,328.395508 328.269531,328.521484 328.099609,328.732422 C327.929687,328.943359 327.844727,329.265625 327.844727,329.699219 C327.868164,330.566406 328.325195,331 329.21582,331 L329.21582,331 L341.749023,331 Z M360.645508,331 C360.879883,331 361.082031,330.982422 361.251953,330.947266 C361.421875,330.912109 361.591797,330.786133 361.761719,330.569336 C361.931641,330.352539 362.016602,330.039062 362.016602,329.628906 C362.016602,328.738281 361.547852,328.292969 360.610352,328.292969 L360.610352,328.292969 L355.899414,328.292969 L355.899414,310.486328 C355.899414,309.501953 355.442383,309.009766 354.52832,309.009766 L354.52832,309.009766 L348.112305,309.009766 C347.198242,309.009766 346.741211,309.4375 346.741211,310.292969 C346.741211,310.726562 346.826172,311.057617 346.996094,311.286133 C347.166016,311.514648 347.327148,311.646484 347.479492,311.681641 C347.631836,311.716797 347.842773,311.734375 348.112305,311.734375 L348.112305,311.734375 L352.875977,311.734375 L352.875977,328.292969 L348.182617,328.292969 C347.901367,328.292969 347.675781,328.313477 347.505859,328.354492 C347.335937,328.395508 347.166016,328.521484 346.996094,328.732422 C346.826172,328.943359 346.741211,329.265625 346.741211,329.699219 C346.764648,330.566406 347.22168,331 348.112305,331 L348.112305,331 L360.645508,331 Z M374.040039,331.140625 C376.032227,331.140625 377.608398,330.630859 378.768555,329.611328 C379.928711,328.591797 380.508789,327.660156 380.508789,326.816406 C380.508789,326.078125 380.051758,325.708984 379.137695,325.708984 L379.137695,325.708984 L379.032227,325.708984 C378.704102,325.708984 378.443359,325.744141 378.25,325.814453 C378.056641,325.884766 377.930664,325.949219 377.87207,326.007812 C377.813477,326.066406 377.722656,326.21875 377.599609,326.464844 C377.476562,326.710937 377.379883,326.892578 377.30957,327.009766 C376.723633,327.970703 375.856445,328.451172 374.708008,328.451172 C373.37207,328.451172 372.144531,328.143555 371.025391,327.52832 C369.90625,326.913086 369.129883,325.873047 368.696289,324.408203 L368.696289,324.408203 L379.172852,324.408203 C380.086914,324.408203 380.543945,323.992187 380.543945,323.160156 C380.543945,321.742187 380.371094,320.50293 380.025391,319.442383 C379.679687,318.381836 379.266602,317.564453 378.786133,316.990234 C378.305664,316.416016 377.722656,315.956055 377.037109,315.610352 C376.351562,315.264648 375.739258,315.041992 375.200195,314.942383 C374.661133,314.842773 374.104492,314.792969 373.530273,314.792969 C371.174805,314.792969 369.25293,315.537109 367.764648,317.025391 C366.276367,318.513672 365.532227,320.482422 365.532227,322.931641 C365.532227,325.404297 366.314453,327.390625 367.878906,328.890625 C369.443359,330.390625 371.49707,331.140625 374.040039,331.140625 Z M377.450195,321.929687 L368.625977,321.929687 C368.790039,320.582031 369.305664,319.506836 370.172852,318.704102 C371.040039,317.901367 372.15918,317.5 373.530273,317.5 C375.956055,317.5 377.262695,318.976562 377.450195,321.929687 L377.450195,321.929687 Z M390.633789,331 C391.55957,331 392.022461,330.542969 392.022461,329.628906 C392.03418,328.738281 391.571289,328.292969 390.633789,328.292969 L390.633789,328.292969 L388.963867,328.292969 L388.963867,322.685547 C388.963867,320.904297 389.40918,319.606445 390.299805,318.791992 C391.19043,317.977539 392.139648,317.570312 393.147461,317.570312 C394.108398,317.570312 394.726562,317.822266 395.001953,318.326172 C395.277344,318.830078 395.415039,319.609375 395.415039,320.664062 L395.415039,320.664062 L395.415039,328.292969 L394.413086,328.292969 C393.956055,328.292969 393.613281,328.389648 393.384766,328.583008 C393.15625,328.776367 393.030273,328.943359 393.006836,329.083984 C392.983398,329.224609 392.97168,329.441406 392.97168,329.734375 C392.97168,330.578125 393.44043,331 394.37793,331 L394.37793,331 L400.125977,331 C401.016602,331 401.461914,330.542969 401.461914,329.628906 C401.461914,328.738281 401.004883,328.292969 400.09082,328.292969 L400.09082,328.292969 L398.40332,328.292969 L398.40332,320.628906 C398.40332,319.890625 398.362305,319.257812 398.280273,318.730469 C398.198242,318.203125 398.016602,317.608398 397.735352,316.946289 C397.454102,316.28418 396.973633,315.771484 396.293945,315.408203 C395.614258,315.044922 394.758789,314.863281 393.727539,314.863281 C391.946289,314.863281 390.358398,315.537109 388.963867,316.884766 L388.963867,316.884766 L388.963867,316.304687 C388.963867,315.449219 388.506836,315.021484 387.592773,315.021484 L387.592773,315.021484 L384.147461,315.021484 C383.303711,315.021484 382.881836,315.4375 382.881836,316.269531 C382.881836,316.703125 382.966797,317.03418 383.136719,317.262695 C383.306641,317.491211 383.473633,317.623047 383.637695,317.658203 C383.801758,317.693359 384.030273,317.710937 384.323242,317.710937 L384.323242,317.710937 L385.94043,317.710937 L385.94043,328.292969 L385.94043,328.292969 L384.288086,328.292969 C383.350586,328.292969 382.881836,328.75 382.881836,329.664062 C382.881836,330.554687 383.338867,331 384.25293,331 L384.25293,331 L390.633789,331 Z M411.797852,331.140625 C413.520508,331.140625 414.958984,330.578125 416.113281,329.453125 C417.267578,328.328125 417.844727,327.080078 417.844727,325.708984 C417.833008,324.865234 417.299805,324.443359 416.245117,324.443359 C415.483398,324.443359 415.020508,324.71875 414.856445,325.269531 C414.80957,325.398437 414.786133,325.594727 414.786133,325.858398 C414.786133,326.12207 414.724609,326.40332 414.601562,326.702148 C414.478516,327.000977 414.258789,327.355469 413.942383,327.765625 C413.368164,328.222656 412.817383,328.451172 412.290039,328.451172 C411.833008,328.451172 411.443359,328.37793 411.121094,328.231445 C410.798828,328.084961 410.558594,327.915039 410.400391,327.72168 C410.242187,327.52832 410.12207,327.264648 410.040039,326.930664 C409.958008,326.59668 409.911133,326.31543 409.899414,326.086914 C409.887695,325.858398 409.881836,325.550781 409.881836,325.164062 L409.881836,325.164062 L409.881836,317.710937 L415.823242,317.710937 C416.643555,317.710937 417.053711,317.271484 417.053711,316.392578 C417.053711,315.478516 416.608398,315.021484 415.717773,315.021484 L415.717773,315.021484 L409.881836,315.021484 L409.881836,311.769531 C409.881836,311.464844 409.84082,311.21582 409.758789,311.022461 C409.676758,310.829102 409.550781,310.697266 409.380859,310.626953 C409.210937,310.556641 409.070312,310.509766 408.958984,310.486328 C408.847656,310.462891 408.709961,310.451172 408.545898,310.451172 L408.545898,310.451172 L408.370117,310.451172 C408.077148,310.451172 407.848633,310.462891 407.68457,310.486328 C407.520508,310.509766 407.341797,310.626953 407.148437,310.837891 C406.955078,311.048828 406.858398,311.359375 406.858398,311.769531 L406.858398,311.769531 L406.858398,315.021484 L403.905273,315.021484 C402.991211,315.021484 402.53418,315.501953 402.53418,316.462891 C402.53418,317.294922 402.979492,317.710937 403.870117,317.710937 L403.870117,317.710937 L406.858398,317.710937 L406.858398,325.058594 C406.858398,325.65625 406.893555,326.253906 406.963867,326.851562 C407.081055,327.765625 407.333008,328.536133 407.719727,329.163086 C408.106445,329.790039 408.563477,330.229492 409.09082,330.481445 C409.618164,330.733398 410.092773,330.90625 410.514648,331 C410.936523,331.09375 411.364258,331.140625 411.797852,331.140625 Z" id="Excellent" fill="#000000"></path>
            <path d="M311.798828,293 C312.232422,293 312.563477,292.897461 312.791992,292.692383 C313.020508,292.487305 313.146484,292.302734 313.169922,292.138672 C313.193359,291.974609 313.205078,291.746094 313.205078,291.453125 L313.205078,291.453125 L313.205078,289.976562 C313.205078,289.542969 313.114258,289.217773 312.932617,289.000977 C312.750977,288.78418 312.578125,288.658203 312.414062,288.623047 C312.25,288.587891 312.009766,288.570312 311.693359,288.570312 L311.693359,288.570312 L311.623047,288.570312 C311.189453,288.570312 310.84082,288.655273 310.577148,288.825195 C310.313477,288.995117 310.181641,289.378906 310.181641,289.976562 L310.181641,289.976562 L310.181641,290.292969 L302.798828,290.292969 C303.373047,289.8125 304.222656,289.118164 305.347656,288.209961 C306.472656,287.301758 307.257812,286.654297 307.703125,286.267578 C308.148437,285.880859 308.760742,285.338867 309.540039,284.641602 C310.319336,283.944336 310.861328,283.387695 311.166016,282.97168 C311.470703,282.555664 311.819336,282.040039 312.211914,281.424805 C312.604492,280.80957 312.868164,280.220703 313.00293,279.658203 C313.137695,279.095703 313.205078,278.492187 313.205078,277.847656 C313.205078,275.738281 312.4375,274.021484 310.902344,272.697266 C309.367187,271.373047 307.457031,270.710937 305.171875,270.710937 C303.085937,270.710937 301.380859,271.329102 300.056641,272.56543 C298.732422,273.801758 298.070312,275.164062 298.070312,276.652344 C298.070312,277.25 298.228516,277.674805 298.544922,277.926758 C298.861328,278.178711 299.212891,278.304687 299.599609,278.304687 C300.044922,278.304687 300.393555,278.155273 300.645508,277.856445 C300.897461,277.557617 301.038086,277.317383 301.067383,277.135742 C301.09668,276.954102 301.111328,276.78125 301.111328,276.617187 C301.181641,275.808594 301.515625,275.073242 302.113281,274.411133 C302.710937,273.749023 303.537109,273.417969 304.591797,273.417969 C306.033203,273.417969 307.325195,273.801758 308.467773,274.569336 C309.610352,275.336914 310.181641,276.441406 310.181641,277.882812 C310.181641,278.269531 310.149414,278.635742 310.084961,278.981445 C310.020508,279.327148 309.888672,279.693359 309.689453,280.080078 C309.490234,280.466797 309.293945,280.80957 309.100586,281.108398 C308.907227,281.407227 308.587891,281.791016 308.142578,282.259766 C307.697266,282.728516 307.301758,283.124023 306.956055,283.446289 C306.610352,283.768555 306.083008,284.228516 305.374023,284.826172 C304.665039,285.423828 304.052734,285.933594 303.537109,286.355469 C303.021484,286.777344 302.262695,287.401367 301.260742,288.227539 C300.258789,289.053711 299.400391,289.765625 298.685547,290.363281 C298.275391,290.726562 298.070312,291.171875 298.070312,291.699219 C298.09375,292.566406 298.5625,293 299.476562,293 L299.476562,293 L311.798828,293 Z M324.542969,293.28125 C325.398437,293.28125 326.259766,293.09668 327.126953,292.727539 C327.994141,292.358398 328.84082,291.77832 329.666992,290.987305 C330.493164,290.196289 331.164062,289.018555 331.679687,287.454102 C332.195312,285.889648 332.453125,284.064453 332.453125,281.978516 C332.453125,279.916016 332.201172,278.117187 331.697266,276.582031 C331.193359,275.046875 330.53418,273.87793 329.719727,273.075195 C328.905273,272.272461 328.067383,271.677734 327.206055,271.291016 C326.344727,270.904297 325.457031,270.710937 324.542969,270.710937 C323.652344,270.710937 322.773437,270.898437 321.90625,271.273437 C321.039062,271.648437 320.192383,272.243164 319.366211,273.057617 C318.540039,273.87207 317.875,275.046875 317.371094,276.582031 C316.867187,278.117187 316.615234,279.916016 316.615234,281.978516 C316.615234,284.087891 316.873047,285.918945 317.388672,287.47168 C317.904297,289.024414 318.575195,290.202148 319.401367,291.004883 C320.227539,291.807617 321.068359,292.387695 321.923828,292.745117 C322.779297,293.102539 323.652344,293.28125 324.542969,293.28125 Z M324.542969,290.591797 C323.289062,290.591797 322.158203,289.888672 321.150391,288.482422 C320.142578,287.076172 319.638672,284.802734 319.638672,281.662109 C319.638672,278.732422 320.145508,276.625977 321.15918,275.342773 C322.172852,274.05957 323.289062,273.417969 324.507812,273.417969 C325.035156,273.417969 325.556641,273.543945 326.072266,273.795898 C326.587891,274.047852 327.115234,274.455078 327.654297,275.017578 C328.193359,275.580078 328.624023,276.438477 328.946289,277.592773 C329.268555,278.74707 329.429687,280.103516 329.429687,281.662109 C329.429687,284.802734 328.919922,287.076172 327.900391,288.482422 C326.880859,289.888672 325.761719,290.591797 324.542969,290.591797 Z M349.591797,293 C350.025391,293 350.356445,292.897461 350.584961,292.692383 C350.813477,292.487305 350.939453,292.302734 350.962891,292.138672 C350.986328,291.974609 350.998047,291.746094 350.998047,291.453125 L350.998047,291.453125 L350.998047,289.976562 C350.998047,289.542969 350.907227,289.217773 350.725586,289.000977 C350.543945,288.78418 350.371094,288.658203 350.207031,288.623047 C350.042969,288.587891 349.802734,288.570312 349.486328,288.570312 L349.486328,288.570312 L349.416016,288.570312 C348.982422,288.570312 348.633789,288.655273 348.370117,288.825195 C348.106445,288.995117 347.974609,289.378906 347.974609,289.976562 L347.974609,289.976562 L347.974609,290.292969 L340.591797,290.292969 C341.166016,289.8125 342.015625,289.118164 343.140625,288.209961 C344.265625,287.301758 345.050781,286.654297 345.496094,286.267578 C345.941406,285.880859 346.553711,285.338867 347.333008,284.641602 C348.112305,283.944336 348.654297,283.387695 348.958984,282.97168 C349.263672,282.555664 349.612305,282.040039 350.004883,281.424805 C350.397461,280.80957 350.661133,280.220703 350.795898,279.658203 C350.930664,279.095703 350.998047,278.492187 350.998047,277.847656 C350.998047,275.738281 350.230469,274.021484 348.695312,272.697266 C347.160156,271.373047 345.25,270.710937 342.964844,270.710937 C340.878906,270.710937 339.173828,271.329102 337.849609,272.56543 C336.525391,273.801758 335.863281,275.164062 335.863281,276.652344 C335.863281,277.25 336.021484,277.674805 336.337891,277.926758 C336.654297,278.178711 337.005859,278.304687 337.392578,278.304687 C337.837891,278.304687 338.186523,278.155273 338.438477,277.856445 C338.69043,277.557617 338.831055,277.317383 338.860352,277.135742 C338.889648,276.954102 338.904297,276.78125 338.904297,276.617187 C338.974609,275.808594 339.308594,275.073242 339.90625,274.411133 C340.503906,273.749023 341.330078,273.417969 342.384766,273.417969 C343.826172,273.417969 345.118164,273.801758 346.260742,274.569336 C347.40332,275.336914 347.974609,276.441406 347.974609,277.882812 C347.974609,278.269531 347.942383,278.635742 347.87793,278.981445 C347.813477,279.327148 347.681641,279.693359 347.482422,280.080078 C347.283203,280.466797 347.086914,280.80957 346.893555,281.108398 C346.700195,281.407227 346.380859,281.791016 345.935547,282.259766 C345.490234,282.728516 345.094727,283.124023 344.749023,283.446289 C344.40332,283.768555 343.875977,284.228516 343.166992,284.826172 C342.458008,285.423828 341.845703,285.933594 341.330078,286.355469 C340.814453,286.777344 340.055664,287.401367 339.053711,288.227539 C338.051758,289.053711 337.193359,289.765625 336.478516,290.363281 C336.068359,290.726562 335.863281,291.171875 335.863281,291.699219 C335.886719,292.566406 336.355469,293 337.269531,293 L337.269531,293 L349.591797,293 Z M368.980469,293 C369.917969,293 370.386719,292.542969 370.386719,291.628906 C370.445312,290.714844 369.994141,290.257812 369.033203,290.257812 C368.974609,290.257812 368.910156,290.263672 368.839844,290.275391 C368.769531,290.287109 368.722656,290.292969 368.699219,290.292969 L368.699219,290.292969 L366.712891,290.292969 L366.712891,286.953125 L369.384766,286.953125 C370.275391,286.929687 370.720703,286.472656 370.720703,285.582031 C370.720703,284.691406 370.287109,284.246094 369.419922,284.246094 L369.419922,284.246094 L366.712891,284.246094 L366.712891,272.292969 C366.712891,271.964844 366.695312,271.704102 366.660156,271.510742 C366.625,271.317383 366.501953,271.135742 366.291016,270.96582 C366.080078,270.795898 365.769531,270.710937 365.359375,270.710937 L365.359375,270.710937 L363.478516,270.710937 C363.068359,270.710937 362.766602,270.763672 362.573242,270.869141 C362.379883,270.974609 362.166016,271.220703 361.931641,271.607422 L361.931641,271.607422 L354.513672,283.314453 C354.443359,283.431641 354.355469,283.575195 354.25,283.745117 C354.144531,283.915039 354.077148,284.029297 354.047852,284.087891 C354.018555,284.146484 353.992187,284.231445 353.96875,284.342773 C353.945312,284.454102 353.933594,284.603516 353.933594,284.791016 L353.933594,284.791016 L353.933594,285.546875 C353.933594,285.957031 354.012695,286.276367 354.170898,286.504883 C354.329102,286.733398 354.490234,286.865234 354.654297,286.900391 C354.818359,286.935547 355.035156,286.953125 355.304687,286.953125 L355.304687,286.953125 L364.269531,286.953125 L364.269531,290.292969 L362.300781,290.292969 C362.265625,290.292969 362.212891,290.287109 362.142578,290.275391 C362.072266,290.263672 362.013672,290.257812 361.966797,290.257812 C361.052734,290.257812 360.595703,290.714844 360.595703,291.628906 C360.595703,292.039062 360.680664,292.352539 360.850586,292.569336 C361.020508,292.786133 361.181641,292.912109 361.333984,292.947266 C361.486328,292.982422 361.697266,293 361.966797,293 L361.966797,293 L368.980469,293 Z M364.269531,284.246094 L357.044922,284.246094 L364.269531,272.837891 L364.269531,284.246094 Z" id="2024" fill="#000000"></path>
        </g>
    </g>
</svg>
