<?xml version="1.0" encoding="UTF-8"?>
<svg width="669px" height="575px" viewBox="0 0 669 575" version="1.1" xmlns="http://www.w3.org/2000/svg" xmlns:xlink="http://www.w3.org/1999/xlink">
    <title>Group 3</title>
    <g id="Page-1" stroke="none" stroke-width="1" fill="none" fill-rule="evenodd">
        <g id="Group-3" fill-rule="nonzero">
            <path d="M277.801758,472.28125 C280.274414,472.28125 282.199219,471.633789 283.576172,470.338867 C284.953125,469.043945 285.641602,467.447266 285.641602,465.548828 C285.641602,464.494141 285.348633,463.462891 284.762695,462.455078 C284.176758,461.447266 283.174805,460.65625 281.756836,460.082031 C283.655273,458.757812 284.604492,457.041016 284.604492,454.931641 C284.604492,453.443359 284.009766,452.201172 282.820312,451.205078 C281.630859,450.208984 279.969727,449.710938 277.836914,449.710938 C275.43457,449.710938 273.694336,450.138672 272.616211,450.994141 C271.538086,451.849609 270.999023,452.792969 270.999023,453.824219 C270.999023,454.328125 271.12207,454.735352 271.368164,455.045898 C271.614258,455.356445 271.977539,455.511719 272.458008,455.511719 C272.750977,455.511719 273,455.458984 273.205078,455.353516 C273.410156,455.248047 273.55957,455.104492 273.65332,454.922852 C273.74707,454.741211 273.826172,454.571289 273.890625,454.413086 C273.955078,454.254883 273.999023,454.09375 274.022461,453.929688 L274.022461,453.929688 L274.057617,453.71875 C274.350586,452.851562 275.610352,452.417969 277.836914,452.417969 C279.196289,452.417969 280.160156,452.675781 280.728516,453.191406 C281.296875,453.707031 281.581055,454.287109 281.581055,454.931641 C281.581055,455.892578 281.220703,456.727539 280.5,457.436523 C279.779297,458.145508 278.938477,458.535156 277.977539,458.605469 C277.731445,458.628906 277.412109,458.652344 277.019531,458.675781 C276.626953,458.699219 276.345703,458.716797 276.175781,458.728516 C276.005859,458.740234 275.794922,458.77832 275.542969,458.842773 C275.291016,458.907227 275.118164,458.986328 275.024414,459.080078 C274.930664,459.173828 274.839844,459.302734 274.751953,459.466797 C274.664062,459.630859 274.620117,459.847656 274.620117,460.117188 C274.620117,461.03125 275.018555,461.488281 275.81543,461.488281 L275.81543,461.488281 L277.397461,461.488281 C279.366211,461.488281 280.728516,461.895508 281.484375,462.709961 C282.240234,463.524414 282.618164,464.458984 282.618164,465.513672 C282.618164,466.568359 282.240234,467.511719 281.484375,468.34375 C280.728516,469.175781 279.500977,469.591797 277.801758,469.591797 C276.500977,469.591797 275.370117,469.363281 274.40918,468.90625 C274.116211,468.765625 273.870117,468.610352 273.670898,468.44043 C273.47168,468.270508 273.322266,468.088867 273.222656,467.895508 C273.123047,467.702148 273.049805,467.549805 273.00293,467.438477 C272.956055,467.327148 272.920898,467.177734 272.897461,466.990234 L272.897461,466.990234 L272.897461,466.708984 C272.850586,466.345703 272.695312,466.038086 272.431641,465.786133 C272.167969,465.53418 271.831055,465.408203 271.420898,465.408203 C271.010742,465.408203 270.65625,465.545898 270.357422,465.821289 C270.058594,466.09668 269.90918,466.498047 269.90918,467.025391 C269.90918,468.583984 270.65332,469.849609 272.141602,470.822266 C273.629883,471.794922 275.516602,472.28125 277.801758,472.28125 Z M299.52832,472 C300.489258,472 300.969727,471.566406 300.969727,470.699219 C300.969727,470.265625 300.875977,469.93457 300.688477,469.706055 C300.500977,469.477539 300.325195,469.351562 300.161133,469.328125 C299.99707,469.304688 299.797852,469.292969 299.563477,469.292969 L299.563477,469.292969 L295.50293,469.292969 L295.50293,465.777344 C295.50293,463.492188 296.091797,461.719727 297.269531,460.459961 C298.447266,459.200195 299.850586,458.570312 301.479492,458.570312 C301.50293,458.570312 301.561523,458.576172 301.655273,458.587891 C301.749023,458.599609 301.807617,458.605469 301.831055,458.605469 C302.077148,459.332031 302.569336,459.695312 303.307617,459.695312 C303.717773,459.695312 304.066406,459.551758 304.353516,459.264648 C304.640625,458.977539 304.78418,458.617188 304.78418,458.183594 C304.78418,457.574219 304.520508,457.035156 303.993164,456.566406 C303.46582,456.097656 302.604492,455.863281 301.40918,455.863281 C300.155273,455.863281 299.018555,456.144531 297.999023,456.707031 C296.979492,457.269531 296.147461,457.984375 295.50293,458.851562 L295.50293,458.851562 L295.50293,457.533203 C295.50293,456.525391 295.069336,456.021484 294.202148,456.021484 L294.202148,456.021484 L289.491211,456.021484 C288.577148,456.021484 288.120117,456.425781 288.120117,457.234375 C288.120117,457.527344 288.131836,457.758789 288.155273,457.928711 C288.178711,458.098633 288.298828,458.271484 288.515625,458.447266 C288.732422,458.623047 289.057617,458.710938 289.491211,458.710938 L289.491211,458.710938 L292.479492,458.710938 L292.479492,469.292969 L289.491211,469.292969 C288.577148,469.292969 288.120117,469.714844 288.120117,470.558594 C288.120117,470.851562 288.131836,471.074219 288.155273,471.226562 C288.178711,471.378906 288.304688,471.545898 288.533203,471.727539 C288.761719,471.90918 289.081055,472 289.491211,472 L289.491211,472 L299.52832,472 Z M314.15332,472.140625 C315.899414,472.140625 317.446289,471.443359 318.793945,470.048828 L318.793945,470.048828 L318.793945,470.664062 C318.782227,471.554688 319.186523,472 320.006836,472 L320.006836,472 L323.540039,472 C324.430664,472 324.875977,471.595703 324.875977,470.787109 L324.875977,470.787109 L324.875977,470.664062 C324.875977,469.75 324.395508,469.292969 323.43457,469.292969 L323.43457,469.292969 L321.817383,469.292969 L321.817383,451.626953 C321.817383,451.287109 321.805664,451.032227 321.782227,450.862305 C321.758789,450.692383 321.638672,450.507812 321.421875,450.308594 C321.205078,450.109375 320.879883,450.009766 320.446289,450.009766 L320.446289,450.009766 L316.983398,450.009766 C316.151367,450.021484 315.735352,450.419922 315.735352,451.205078 L315.735352,451.205078 L315.735352,451.328125 C315.735352,452.265625 316.192383,452.734375 317.106445,452.734375 L317.106445,452.734375 L318.793945,452.734375 L318.793945,457.568359 C317.516602,456.431641 316.063477,455.863281 314.43457,455.863281 C313.614258,455.863281 312.808594,456.009766 312.017578,456.302734 C311.226562,456.595703 310.464844,457.035156 309.732422,457.621094 C309,458.207031 308.405273,459.056641 307.948242,460.169922 C307.491211,461.283203 307.262695,462.583984 307.262695,464.072266 C307.262695,466.474609 307.907227,468.419922 309.196289,469.908203 C310.485352,471.396484 312.137695,472.140625 314.15332,472.140625 Z M314.610352,469.451172 C313.461914,469.451172 312.457031,469.017578 311.595703,468.150391 C310.734375,467.283203 310.303711,465.900391 310.303711,464.001953 C310.303711,462.349609 310.728516,461.03125 311.578125,460.046875 C312.427734,459.0625 313.561523,458.570312 314.979492,458.570312 C316.03418,458.570312 316.933594,458.942383 317.677734,459.686523 C318.421875,460.430664 318.793945,461.189453 318.793945,461.962891 L318.793945,461.962891 L318.793945,465.126953 C318.817383,465.888672 318.445312,466.799805 317.677734,467.860352 C316.910156,468.920898 315.887695,469.451172 314.610352,469.451172 Z M328.514648,474.988281 C329.077148,474.988281 329.516602,474.654297 329.833008,473.986328 L329.833008,473.986328 L341.575195,449.253906 C341.739258,448.960938 341.821289,448.65625 341.821289,448.339844 C341.821289,448.011719 341.692383,447.709961 341.43457,447.43457 C341.176758,447.15918 340.854492,447.021484 340.467773,447.021484 C340.31543,447.021484 340.186523,447.039062 340.081055,447.074219 C339.975586,447.109375 339.873047,447.162109 339.773438,447.232422 C339.673828,447.302734 339.588867,447.367188 339.518555,447.425781 C339.448242,447.484375 339.37793,447.575195 339.307617,447.698242 C339.237305,447.821289 339.19043,447.90625 339.166992,447.953125 C339.143555,448 339.102539,448.079102 339.043945,448.19043 C338.985352,448.301758 338.956055,448.369141 338.956055,448.392578 L338.956055,448.392578 L327.424805,472.720703 C327.237305,473.107422 327.143555,473.417969 327.143555,473.652344 C327.143555,474.015625 327.28125,474.329102 327.556641,474.592773 C327.832031,474.856445 328.151367,474.988281 328.514648,474.988281 Z M360.032227,472 C360.969727,472 361.438477,471.542969 361.438477,470.628906 C361.49707,469.714844 361.045898,469.257812 360.084961,469.257812 C360.026367,469.257812 359.961914,469.263672 359.891602,469.275391 C359.821289,469.287109 359.774414,469.292969 359.750977,469.292969 L359.750977,469.292969 L357.764648,469.292969 L357.764648,465.953125 L360.436523,465.953125 C361.327148,465.929688 361.772461,465.472656 361.772461,464.582031 C361.772461,463.691406 361.338867,463.246094 360.47168,463.246094 L360.47168,463.246094 L357.764648,463.246094 L357.764648,451.292969 C357.764648,450.964844 357.74707,450.704102 357.711914,450.510742 C357.676758,450.317383 357.553711,450.135742 357.342773,449.96582 C357.131836,449.795898 356.821289,449.710938 356.411133,449.710938 L356.411133,449.710938 L354.530273,449.710938 C354.120117,449.710938 353.818359,449.763672 353.625,449.869141 C353.431641,449.974609 353.217773,450.220703 352.983398,450.607422 L352.983398,450.607422 L345.56543,462.314453 C345.495117,462.431641 345.407227,462.575195 345.301758,462.745117 C345.196289,462.915039 345.128906,463.029297 345.099609,463.087891 C345.070312,463.146484 345.043945,463.231445 345.020508,463.342773 C344.99707,463.454102 344.985352,463.603516 344.985352,463.791016 L344.985352,463.791016 L344.985352,464.546875 C344.985352,464.957031 345.064453,465.276367 345.222656,465.504883 C345.380859,465.733398 345.541992,465.865234 345.706055,465.900391 C345.870117,465.935547 346.086914,465.953125 346.356445,465.953125 L346.356445,465.953125 L355.321289,465.953125 L355.321289,469.292969 L353.352539,469.292969 C353.317383,469.292969 353.264648,469.287109 353.194336,469.275391 C353.124023,469.263672 353.06543,469.257812 353.018555,469.257812 C352.104492,469.257812 351.647461,469.714844 351.647461,470.628906 C351.647461,471.039062 351.732422,471.352539 351.902344,471.569336 C352.072266,471.786133 352.233398,471.912109 352.385742,471.947266 C352.538086,471.982422 352.749023,472 353.018555,472 L353.018555,472 L360.032227,472 Z M355.321289,463.246094 L348.09668,463.246094 L355.321289,451.837891 L355.321289,463.246094 Z M377.680664,472 C378.571289,472 379.016602,471.542969 379.016602,470.628906 C379.063477,469.738281 378.606445,469.292969 377.645508,469.292969 L377.645508,469.292969 L374.288086,469.292969 L374.288086,451.117188 C374.299805,450.179688 373.895508,449.710938 373.075195,449.710938 C372.524414,449.722656 372.102539,450.050781 371.80957,450.695312 C370.918945,452.535156 369.741211,453.636719 368.276367,454 C368.182617,454.023438 367.974609,454.052734 367.652344,454.087891 C367.330078,454.123047 367.101562,454.164062 366.966797,454.210938 C366.832031,454.257812 366.694336,454.383789 366.553711,454.588867 C366.413086,454.793945 366.342773,455.078125 366.342773,455.441406 C366.342773,456.355469 366.782227,456.8125 367.661133,456.8125 C368.844727,456.8125 370.045898,456.355469 371.264648,455.441406 L371.264648,455.441406 L371.264648,469.292969 L367.924805,469.292969 C366.987305,469.292969 366.518555,469.75 366.518555,470.664062 C366.518555,471.027344 366.621094,471.334961 366.826172,471.586914 C367.03125,471.838867 367.338867,471.976562 367.749023,472 L367.749023,472 L377.680664,472 Z M391.180664,472.28125 C393.65332,472.28125 395.578125,471.633789 396.955078,470.338867 C398.332031,469.043945 399.020508,467.447266 399.020508,465.548828 C399.020508,464.494141 398.727539,463.462891 398.141602,462.455078 C397.555664,461.447266 396.553711,460.65625 395.135742,460.082031 C397.03418,458.757812 397.983398,457.041016 397.983398,454.931641 C397.983398,453.443359 397.388672,452.201172 396.199219,451.205078 C395.009766,450.208984 393.348633,449.710938 391.21582,449.710938 C388.813477,449.710938 387.073242,450.138672 385.995117,450.994141 C384.916992,451.849609 384.37793,452.792969 384.37793,453.824219 C384.37793,454.328125 384.500977,454.735352 384.74707,455.045898 C384.993164,455.356445 385.356445,455.511719 385.836914,455.511719 C386.129883,455.511719 386.378906,455.458984 386.583984,455.353516 C386.789062,455.248047 386.938477,455.104492 387.032227,454.922852 C387.125977,454.741211 387.205078,454.571289 387.269531,454.413086 C387.333984,454.254883 387.37793,454.09375 387.401367,453.929688 L387.401367,453.929688 L387.436523,453.71875 C387.729492,452.851562 388.989258,452.417969 391.21582,452.417969 C392.575195,452.417969 393.539062,452.675781 394.107422,453.191406 C394.675781,453.707031 394.959961,454.287109 394.959961,454.931641 C394.959961,455.892578 394.599609,456.727539 393.878906,457.436523 C393.158203,458.145508 392.317383,458.535156 391.356445,458.605469 C391.110352,458.628906 390.791016,458.652344 390.398438,458.675781 C390.005859,458.699219 389.724609,458.716797 389.554688,458.728516 C389.384766,458.740234 389.173828,458.77832 388.921875,458.842773 C388.669922,458.907227 388.49707,458.986328 388.40332,459.080078 C388.30957,459.173828 388.21875,459.302734 388.130859,459.466797 C388.042969,459.630859 387.999023,459.847656 387.999023,460.117188 C387.999023,461.03125 388.397461,461.488281 389.194336,461.488281 L389.194336,461.488281 L390.776367,461.488281 C392.745117,461.488281 394.107422,461.895508 394.863281,462.709961 C395.619141,463.524414 395.99707,464.458984 395.99707,465.513672 C395.99707,466.568359 395.619141,467.511719 394.863281,468.34375 C394.107422,469.175781 392.879883,469.591797 391.180664,469.591797 C389.879883,469.591797 388.749023,469.363281 387.788086,468.90625 C387.495117,468.765625 387.249023,468.610352 387.049805,468.44043 C386.850586,468.270508 386.701172,468.088867 386.601562,467.895508 C386.501953,467.702148 386.428711,467.549805 386.381836,467.438477 C386.334961,467.327148 386.299805,467.177734 386.276367,466.990234 L386.276367,466.990234 L386.276367,466.708984 C386.229492,466.345703 386.074219,466.038086 385.810547,465.786133 C385.546875,465.53418 385.209961,465.408203 384.799805,465.408203 C384.389648,465.408203 384.035156,465.545898 383.736328,465.821289 C383.4375,466.09668 383.288086,466.498047 383.288086,467.025391 C383.288086,468.583984 384.032227,469.849609 385.520508,470.822266 C387.008789,471.794922 388.895508,472.28125 391.180664,472.28125 Z" id="3rd/413" fill="#000000"></path>
            <path d="M106.008225,322.578082 C115.074891,332.606082 123.448224,343.047415 130.928224,353.990081 C131.781557,355.376748 132.808224,356.715415 133.688224,358.088748 C134.594891,359.458081 135.448224,360.832748 136.234891,362.206081 C137.87489,364.926081 139.381557,367.567414 140.368224,370.171414 C140.608224,370.824748 140.861557,371.459414 141.101557,372.076748 C141.328224,372.699414 141.528224,373.316748 141.701557,373.928748 C142.03489,375.150081 142.23489,376.348747 142.301557,377.511414 C142.368224,378.671414 142.248224,379.810081 142.03489,380.880747 C141.808224,381.944747 141.421557,382.966081 140.848224,383.935414 C138.781557,387.360747 135.141557,388.416747 130.648224,387.788747 C128.368224,387.490081 126.061557,386.684747 123.554891,385.612747 C122.314891,385.071414 121.048224,384.451414 119.781558,383.768747 C118.501558,383.087414 117.194891,382.352747 115.994891,381.527414 C104.528225,374.216748 94.5415582,362.559415 87.6482251,348.354082 C80.9815586,334.622082 75.4215587,320.004749 71.1415588,304.711416 L68.1548922,293.12475 L65.661559,281.298083 L63.7148923,269.28475 C63.341559,267.258084 63.1682257,265.24475 62.9282257,263.20475 L62.261559,257.08475 C59.2615591,291.818083 62.7682257,327.126082 72.3948921,360.512748 C82.9015585,371.270081 94.0082249,380.704747 105.434891,388.791414 C116.888224,396.86208 128.754891,403.535413 140.661557,408.89408 C152.75489,414.34608 164.421556,420.47408 175.448223,427.432746 C176.83489,428.295413 178.181556,429.191413 179.501556,430.114079 C180.861556,430.980746 182.194889,431.864746 183.461556,432.782079 C184.728223,433.688746 185.914889,434.655413 187.048223,435.590079 C188.221556,436.496746 189.301556,437.432746 190.274889,438.395413 C191.248222,439.356746 192.114889,440.348746 192.861556,441.366079 C193.634889,442.344746 194.301556,443.332746 194.808222,444.362079 C195.821556,446.416746 196.234889,448.596746 195.874889,450.883412 C195.261556,454.888746 192.301556,457.364745 187.994889,458.552745 C183.714889,459.735412 177.928223,459.798079 172.181556,458.814079 C158.928223,456.780745 145.328224,450.230079 133.621557,440.055413 C121.568224,429.615413 110.274891,417.779413 100.008225,404.671413 C89.7148917,391.576747 80.5948919,377.147414 72.7282254,361.684748 C77.9682253,379.800747 85.2082251,397.263414 93.9815582,413.832747 C96.0882249,418.02208 98.5148915,422.03008 100.861558,426.08208 C102.008225,428.128746 103.288225,430.078079 104.554891,432.051413 L108.328225,437.962079 C113.621558,445.650079 119.061558,453.248746 125.074891,460.366079 C146.968224,480.194078 171.51489,495.775411 197.168222,506.619411 C212.914889,513.226077 228.354888,520.263411 243.528221,528.108744 C245.408221,529.098077 247.328221,530.000744 249.181554,531.010077 C251.061554,531.988744 252.874888,533.060744 254.648221,534.062077 C258.221554,535.990077 261.514887,538.098077 264.301554,540.234077 C269.928221,544.298077 273.48822,548.890077 272.541554,553.76741 C271.701554,558.072743 267.408221,560.548743 261.128221,561.760743 C260.341554,561.91141 259.528221,562.044743 258.688221,562.158076 C257.861554,562.254076 256.994888,562.30341 256.114888,562.350076 C254.354888,562.434076 252.501554,562.446076 250.568221,562.39541 C248.661554,562.322076 246.648221,562.284743 244.661554,562.018076 C242.648221,561.774076 240.621555,561.476743 238.568221,561.13941 C229.221555,559.642076 219.994888,556.640743 211.128222,552.744743 C208.928222,551.748743 206.768222,550.61941 204.621555,549.49941 L201.421556,547.772743 C200.354889,547.194077 199.314889,546.596743 198.288222,545.932743 C196.234889,544.636743 194.208222,543.304743 192.221556,541.942077 C191.221556,541.256743 190.234889,540.578077 189.261556,539.86741 L186.408223,537.626077 C160.821557,517.399411 139.208224,493.056745 122.434891,466.347412 C120.474891,463.959412 118.448224,461.634079 116.554891,459.192745 L110.941558,451.823412 C109.101558,449.346079 107.381558,446.768746 105.594891,444.244746 C104.728225,442.964746 103.781558,441.735413 102.981558,440.414079 L100.474891,436.499413 C98.8082248,433.884746 97.1015582,431.300746 95.5948915,428.59008 C94.0482249,425.90208 92.4348916,423.244746 90.9415583,420.527413 L86.5948918,412.284747 C85.8482251,410.923413 85.2082251,409.50608 84.5282252,408.103413 L82.5282252,403.89008 C91.3148916,437.327413 106.528225,470.146078 127.768224,499.804744 C138.39489,514.626077 148.31489,529.596744 156.501557,544.514077 C158.27489,547.78341 160.008223,550.978076 161.421557,554.096743 C162.848223,557.202076 163.968223,560.19141 164.67489,562.76341 C166.03489,567.966076 165.448223,572.026076 161.128223,573.492743 C156.19489,575.227409 149.341557,572.603409 141.91489,567.772743 C138.288224,565.240743 134.501557,562.190076 130.821557,558.782076 C129.008224,557.02741 127.221557,555.202076 125.461557,553.338076 C124.581557,552.39941 123.714891,551.458076 122.834891,550.516743 C121.968224,549.576743 121.128224,548.614077 120.328224,547.614077 C107.088225,531.90741 97.9682248,514.392744 93.0082249,497.456744 C88.1682251,480.984745 84.8748918,464.483412 82.9148919,448.330079 C80.9815586,432.158079 80.3815586,416.320746 81.1415586,400.96608 C66.7682256,369.350081 58.2882258,334.890082 56.0748925,300.031416 C52.3015593,332.326082 53.9682259,366.376748 61.7148924,400.02208 C65.821559,417.951413 69.2615589,435.696746 71.0615588,452.722079 C71.4748921,456.427412 71.7682255,460.115412 71.8615588,463.560745 C72.0215588,466.964745 71.9948921,470.100745 71.6082255,472.787412 C70.8482255,478.142078 68.7415589,481.638078 64.2482257,481.207412 C61.7015591,480.962078 59.0748925,479.578078 56.4348925,477.336745 C55.0882259,476.231412 53.8482259,474.839412 52.5815593,473.294078 C51.3148926,471.742078 50.0615593,470.014078 48.8348927,468.143412 C43.9415595,460.648745 39.7415596,450.708746 36.6615597,440.874079 C30.4482265,421.076746 28.7415599,401.256747 30.6882265,383.676747 C32.5415598,367.034081 35.5682264,351.035415 39.7948929,335.816749 C44.0882262,320.591416 49.448226,306.191416 55.6615592,292.738083 C55.5948925,288.551416 55.4348925,284.351416 55.4482259,280.151417 L55.7548925,267.551417 C55.9815592,263.36475 56.3415592,259.178084 56.6348925,254.991417 C56.7282258,253.938084 56.7548925,252.884751 56.8882258,251.844751 L57.2748925,248.724751 L58.0348925,242.471418 C60.2748924,225.831418 63.9148923,209.391418 68.9548922,193.431419 L67.6082256,195.924752 C67.1548923,196.764752 66.7015589,197.604752 66.3148923,198.458085 L63.8482257,203.578085 L61.3815591,208.751418 L60.7682257,210.058085 L60.2082258,211.378085 L59.1015591,214.018085 L56.8748925,219.338085 L55.7548925,222.018085 L55.2082259,223.364751 L54.7148926,224.711418 L50.7548927,235.684751 C45.8348928,250.471417 41.9682262,265.871417 39.1815596,281.711417 C38.514893,286.231416 37.674893,290.711416 36.754893,295.16475 C35.9815597,299.604749 35.0882264,304.004749 34.0482264,308.364749 C33.1682264,312.711416 32.1682265,317.004749 31.0348932,321.244749 C29.9548932,325.468749 28.9015599,329.619415 27.6348932,333.703415 C26.4748933,337.286082 25.4748933,340.760748 24.2748933,343.947415 C23.0882267,347.128748 21.8082267,350.007415 20.3948934,352.312748 C17.6882268,356.898081 14.4748936,359.228748 10.448227,357.003415 C8.14156039,355.748748 6.34156044,353.382081 4.82156048,350.232748 C4.0615605,348.656748 3.39489385,346.883415 2.79489386,344.951415 C2.50156053,343.986082 2.22156054,342.979415 1.95489388,341.939415 C1.71489389,340.895415 1.51489389,339.812748 1.32822723,338.702082 C0.954893907,336.479415 0.661560581,334.136749 0.421560587,331.716749 C0.194893926,329.295415 -0.0184394022,326.799415 0.00822726373,324.246082 C-0.0184394022,321.698082 0.0215605968,319.111416 0.101560595,316.511416 C0.194893926,313.924749 0.30156059,311.324749 0.608227249,308.764749 C2.5282272,288.138083 8.42156039,269.418084 16.9682268,254.138084 L19.8348934,248.911417 C20.8482267,247.191417 21.90156,245.484751 22.94156,243.791417 C25.0082266,240.404751 27.0882266,237.071418 29.1682265,233.804751 C31.3815598,230.564751 33.6082264,227.378085 35.8215597,224.244751 C36.9415597,222.684751 38.034893,221.124751 39.1682263,219.604751 L42.7015595,215.084752 C45.0748928,212.111418 47.3682261,209.178085 49.768226,206.338085 C52.2615593,203.511418 54.7282259,200.738085 57.1815592,198.031419 C59.5815591,195.311419 62.221559,192.711419 64.7948923,190.164752 L68.6482255,186.391419 C69.9148922,185.138086 71.1815588,183.911419 72.5415588,182.724752 C77.914892,167.578086 84.7282251,153.018086 92.5948916,139.098087 C100.474891,125.204754 109.488225,111.991421 119.501558,99.6714206 C116.781558,101.831421 114.274891,104.231421 111.688224,106.564754 L107.794891,110.111421 L106.821558,111.004754 L105.901558,111.924754 L104.034891,113.791421 C101.568225,116.298087 99.0348915,118.778087 96.5948915,121.351421 L89.4348917,129.298087 C88.848225,129.964754 88.2215584,130.618087 87.6482251,131.31142 L85.9548918,133.378087 L82.5415585,137.564753 L79.1282253,141.79142 L75.8882254,146.15142 L72.6615588,150.55142 C71.5815588,152.03142 70.4615588,153.498086 69.4882255,155.03142 L63.3948923,164.244753 C53.7282259,179.538086 43.7548928,194.218085 33.0748931,207.164752 C30.7682265,210.004752 28.4082266,212.751418 26.0615599,215.164752 C25.4748933,215.778085 24.8882266,216.364751 24.3148933,216.924751 C23.7682267,217.484751 23.2082267,218.031418 22.66156,218.551418 C21.5682267,219.578085 20.4882268,220.498085 19.4215601,221.271418 C15.1815602,224.364751 11.3015603,225.178085 8.48822705,221.511418 C6.90156042,219.431418 6.03489378,216.511418 5.76822712,212.991418 C5.60822712,209.498085 6.08822711,205.418085 7.00822709,201.018085 C7.23489375,199.924752 7.48822708,198.804752 7.76822707,197.671419 C7.91489373,197.098085 8.0615604,196.524752 8.22156039,195.951419 C8.39489372,195.378085 8.58156038,194.818085 8.76822704,194.231419 C9.51489369,191.938085 10.3548937,189.591419 11.2748936,187.231419 C12.1948936,184.871419 13.1682269,182.498086 14.2082269,180.151419 C15.3282269,177.831419 16.5015602,175.524753 17.7015602,173.271419 C18.9015601,171.004753 20.1282268,168.778086 21.3682267,166.604753 C22.62156,164.418086 24.0482267,162.35142 25.4082266,160.298086 C26.7948933,158.244753 28.1948932,156.244753 29.6215599,154.298086 C30.3415598,153.324753 31.0215598,152.35142 31.7815598,151.418086 C32.5548931,150.498086 33.3148931,149.578087 34.0748931,148.67142 C37.1682263,145.058087 40.2215596,141.618087 43.4748928,138.47142 C46.7815594,135.364754 50.1148927,132.47142 53.4615593,129.804754 C54.9282259,128.604754 56.5015592,127.484754 58.0348925,126.35142 L62.661559,123.018087 C65.741559,120.818087 68.7415589,118.631421 71.9415588,116.644754 C75.0882254,114.631421 78.2215586,112.658087 81.3148919,110.724754 C84.4748918,108.844754 87.7148917,107.084754 90.8615583,105.338088 L95.5815582,102.751421 C97.1815582,101.924754 98.8215581,101.151421 100.421558,100.364754 C103.648225,98.8047539 106.834891,97.284754 109.994891,95.8180873 C113.274891,94.4314207 116.501558,93.0980874 119.701558,91.8047541 C121.314891,91.1780875 122.874891,90.5114208 124.501557,89.9247542 L129.394891,88.2180875 C149.741557,65.6447548 173.87489,46.8180886 200.181556,32.3247556 C188.154889,36.2714222 176.101556,40.9247554 164.47489,46.7780886 L160.061557,48.9247552 C158.59489,49.6580885 157.181557,50.4847551 155.741557,51.2580885 C152.861557,52.8314218 149.95489,54.404755 147.07489,56.044755 C141.488224,59.5114216 135.688224,62.8847548 130.248224,66.7780881 C115.608224,76.7914212 100.808225,86.0314209 86.1148918,93.4847541 C82.8882252,95.1114207 79.7682253,96.7114207 76.714892,97.964754 C73.6882254,99.2447539 70.7815588,100.218088 68.2215589,100.738088 C63.1948924,101.844754 59.3415591,100.991421 58.1282258,96.4580873 C57.7948925,95.1780874 57.6615592,93.7647541 57.8215592,92.2847541 C57.9815591,90.8180875 58.3682258,89.2580875 58.9548925,87.6180875 C60.1148924,84.351421 62.021559,80.7514211 64.5282257,77.1114211 C67.1282256,73.5380879 70.2615588,69.8714213 73.6748921,66.2580881 C77.1682253,62.7247548 81.0348919,59.3647549 84.8482251,56.1514217 C100.501558,43.4980887 117.701558,35.2180889 134.101557,31.138089 C137.67489,30.2714223 141.208224,29.4447557 144.71489,28.658089 C148.301557,27.978089 151.848223,27.3380891 155.35489,26.7247557 L160.608223,25.8447558 L165.901556,25.1914224 C169.408223,24.7647558 172.888223,24.3780891 176.31489,24.0314225 C179.821556,23.7914225 183.288223,23.5914225 186.714889,23.4047558 L191.808222,23.1647558 L196.954889,23.1514225 C200.354889,23.1647558 203.714889,23.1914225 207.021555,23.2447558 C210.408222,23.4314225 213.728222,23.6447558 217.021555,23.8847558 C250.101554,8.65808953 286.16822,0.524756404 322.341553,0 C324.688219,-0.0619102486 326.568219,1.23142305 326.568219,2.88475634 C326.568219,4.53808964 324.714886,5.92475627 322.434886,5.9780896 L314.048219,6.20475626 C312.648219,6.20475626 311.261553,6.37808959 309.861553,6.47142292 L305.674886,6.80475625 L301.501553,7.12475624 L299.40822,7.29808957 L297.32822,7.56475623 L289.00822,8.67142287 C286.221553,8.96475619 283.48822,9.55142284 280.72822,10.0447562 C277.981554,10.5780895 275.221554,11.0447561 272.474887,11.6047561 L264.301554,13.5647561 L260.221554,14.5514227 L256.181554,15.7380893 C253.821554,18.1380893 251.501554,20.5247559 249.234888,22.8980892 C247.008221,25.3914224 244.834888,27.898089 242.714888,30.3647556 L239.554888,34.0714222 C238.541555,35.3514222 237.541555,36.6580888 236.554888,37.9380888 C234.568221,40.5114221 232.634888,43.0580887 230.754888,45.5914219 C228.914888,48.2447552 227.141555,50.8847551 225.394888,53.4980884 L222.821555,57.404755 L220.408222,61.4580882 C218.821555,64.1514215 217.274888,66.7914214 215.781555,69.4447547 C214.341555,72.2047546 212.954889,74.9247545 211.594889,77.6180878 C205.528222,90.0047542 198.768222,101.844754 191.248222,113.071421 C189.434889,115.938087 187.461556,118.644754 185.501556,121.204754 C183.621556,123.83142 181.634889,126.19142 179.594889,128.084754 C177.621556,130.084754 175.63489,131.684754 173.528223,132.618087 C172.488223,133.084754 171.421556,133.404754 170.341556,133.538087 C169.27489,133.684754 168.221556,133.684754 167.141556,133.458087 C163.31489,132.67142 161.11489,129.47142 160.168223,124.818087 C159.71489,122.524754 159.621557,119.938087 159.768223,117.111421 C159.941557,114.311421 160.301557,111.244754 160.928223,108.231421 C163.781557,94.4714207 171.048223,80.5914211 181.688223,68.8447547 C185.781556,64.1114215 190.288223,59.8580882 194.728222,55.3514217 C199.381556,51.1780885 203.994889,46.7514219 208.968222,42.8580887 C213.834889,38.6980888 219.021555,35.0580889 224.208222,31.2047556 C226.861555,29.3914223 229.554888,27.658089 232.248221,25.8714224 C233.608221,24.9914224 234.941555,24.0447558 236.328221,23.2180892 L240.514888,20.7514226 C226.421555,25.7780891 212.741555,32.0047556 199.648222,39.3647554 C186.568223,46.7780886 174.128223,55.3780884 162.43489,64.9380881 C159.67489,71.3114213 157.461557,78.0047545 155.288223,84.3780876 C154.248223,87.6314209 153.341557,90.9380875 152.421557,94.1647541 L151.07489,98.9780873 L149.941557,103.871421 C149.221557,107.138088 148.488224,110.311421 147.861557,113.511421 C147.301557,116.778087 146.768224,119.991421 146.27489,123.164754 C145.728224,126.284754 145.408224,129.538087 145.07489,132.698087 L144.608224,137.418087 L144.39489,139.75142 C144.31489,140.524753 144.301557,141.324753 144.248224,142.11142 C144.07489,145.59142 143.808224,149.03142 143.421557,152.418086 C143.128224,155.858086 142.821557,159.324753 142.341557,162.684753 C142.221557,163.511419 142.088224,164.351419 141.968224,165.191419 C141.861557,166.044753 141.768224,166.898086 141.661557,167.764753 C141.448224,169.471419 141.208224,171.151419 140.928224,172.831419 C140.781557,173.658086 140.63489,174.484753 140.47489,175.324753 L140.248224,176.564752 L140.048224,177.831419 C139.79489,179.524752 139.501557,181.204752 139.168224,182.858086 C138.848224,184.524752 138.448224,186.151419 138.101557,187.778086 C137.781557,189.431419 137.421557,191.058085 137.021557,192.618085 C136.621557,194.191419 136.181557,195.698085 135.674891,197.138085 C135.221557,198.591419 134.781557,200.004752 134.248224,201.298085 C133.714891,202.604752 133.128224,203.804752 132.461557,204.898085 C131.821557,205.991418 131.048224,206.951418 130.341557,207.831418 C128.848224,209.564752 127.048224,210.751418 124.874891,211.218085 C121.021558,212.031418 117.794891,210.004752 115.194891,206.164752 C113.901558,204.258085 112.728224,201.884752 111.768224,199.244752 C110.874891,196.631419 110.141558,193.724752 109.541558,190.698085 C106.888225,176.964752 108.168225,161.258086 113.448224,146.178087 C122.474891,120.751421 135.488224,95.804754 152.728223,73.2714212 C141.008224,83.831421 130.154891,95.4580874 120.354891,107.951421 L116.768224,112.711421 L114.968224,115.084754 C114.354891,115.871421 113.754891,116.658087 113.208224,117.498087 L106.461558,127.35142 L100.181558,137.524753 C98.1548915,140.964753 96.2882249,144.498087 94.3282249,147.978087 L94.2882249,150.658086 L94.3548916,153.39142 L94.5148916,158.778086 C94.6348916,162.35142 94.7282249,165.831419 95.0882249,169.391419 C95.3948915,172.911419 95.7282249,176.378086 96.0615582,179.791419 C96.5148915,183.244752 97.0482248,186.671419 97.5548915,190.018085 C97.8348915,191.698085 98.0615581,193.351419 98.3815581,195.018085 L99.4082248,200.004752 L100.461558,204.898085 C100.834891,206.524752 101.128225,208.098085 101.594891,209.724752 C102.461558,212.938085 103.341558,216.098085 104.221558,219.204751 L104.888225,221.511418 C105.114891,222.284751 105.394891,223.058085 105.648225,223.831418 L107.208225,228.404751 C108.354891,231.644751 109.274891,234.858084 110.408225,238.151418 C111.501558,241.418084 112.368224,244.671417 113.274891,247.938084 C114.274891,251.231417 115.141558,254.511417 115.861558,257.791417 C116.021558,258.60475 116.248224,259.431417 116.461558,260.258084 C116.661558,261.08475 116.861558,261.911417 117.061558,262.738084 C117.448224,264.391417 117.794891,266.04475 118.114891,267.698084 C118.261558,268.52475 118.408224,269.351417 118.554891,270.178083 C118.741558,271.00475 118.914891,271.831417 119.074891,272.658083 C119.394891,274.298083 119.674891,275.938083 119.888224,277.538083 C119.994891,278.338083 120.088224,279.138083 120.168224,279.92475 C120.234891,280.711417 120.288224,281.48475 120.394891,282.24475 C120.554891,283.76475 120.648224,285.24475 120.634891,286.658083 C120.634891,288.08475 120.541558,289.431416 120.328224,290.711416 C120.168224,291.978083 119.954891,293.178083 119.568224,294.271416 C118.834891,296.471416 117.608224,298.311416 115.754891,299.618083 C112.501558,301.938083 108.781558,301.391416 104.968225,298.938083 C101.194891,296.484749 97.1548915,292.12475 93.9148916,287.058083 C92.008225,284.178083 90.1415583,281.08475 88.7148917,277.831417 C87.2215584,274.56475 85.7948918,271.12475 84.6348918,267.538084 C83.5815585,263.96475 82.6615585,260.258084 81.8882252,256.431417 C81.7948919,255.951417 81.6882252,255.471417 81.6082252,254.991417 L81.4082252,253.538084 C81.3015586,252.578084 81.1815586,251.604751 81.0615586,250.631417 C80.8482252,248.671417 80.6615586,246.698084 80.5148919,244.698084 C79.7015586,230.258084 80.0215586,215.498085 81.5682252,200.631419 L82.9815585,189.471419 C83.5682252,185.764752 84.2748918,182.058086 84.9282251,178.311419 L85.4348918,175.498086 L86.0748918,172.738086 L87.3415584,167.164753 C87.7815584,165.311419 88.1682251,163.418086 88.6748917,161.564753 L90.2215583,156.044753 C75.5015587,185.898086 66.0615589,218.564751 62.6882257,251.938084 C63.0082257,252.791417 63.3548923,253.644751 63.741559,254.498084 L64.8482256,257.058084 L67.0748923,262.08475 L69.2882255,267.031417 C70.0748922,268.658084 70.9282255,270.28475 71.7415588,271.88475 C73.3815588,275.08475 75.0215587,278.231417 76.674892,281.311417 C78.4615586,284.40475 80.2482253,287.418083 82.0348919,290.378083 C89.368225,302.191416 97.4215582,312.951416 106.008225,322.578082" id="path15" fill="#2F7D29" transform="translate(163.284109, 287.014430) scale(-1, 1) rotate(-180.000000) translate(-163.284109, -287.014430) "></path>
            <path d="M537.928214,353.992214 C537.061547,355.378881 536.048214,356.717548 535.154881,358.090881 C534.248214,359.460214 533.394881,360.834881 532.608214,362.208214 C530.981547,364.928214 529.461547,367.569547 528.474881,370.173547 C528.234881,370.826881 527.981547,371.461547 527.741547,372.078881 C527.514881,372.701547 527.314881,373.318881 527.154881,373.930881 C526.821547,375.152214 526.608214,376.35088 526.554881,377.513547 C526.488214,378.673547 526.594881,379.812214 526.821547,380.88288 C527.034881,381.94688 527.421547,382.968214 528.008214,383.937547 C530.061547,387.36288 533.701547,388.41888 538.19488,387.79088 C540.47488,387.492214 542.79488,386.68688 545.288214,385.61488 C546.528214,385.073547 547.79488,384.453547 549.07488,383.77088 C550.35488,383.089547 551.648213,382.35488 552.861547,381.529547 C564.328213,374.218881 574.31488,362.561548 581.208213,348.356215 C587.861546,334.624215 593.421546,320.006882 597.714879,304.713549 L600.688212,293.126883 L603.181546,281.300216 L605.141545,269.286883 C605.501545,267.260217 605.688212,265.246883 605.914879,263.206883 L606.594879,257.086883 C609.581545,291.820216 606.088212,327.128215 596.448212,360.514881 C585.941546,371.272214 574.848213,380.70688 563.421547,388.793547 C551.95488,396.864213 540.088214,403.537546 528.194881,408.896213 C516.088214,414.348213 504.434881,420.476213 493.394882,427.434879 C492.021548,428.297546 490.661548,429.193546 489.354882,430.116212 C487.981548,430.982879 486.648215,431.866879 485.394882,432.784212 C484.114882,433.690879 482.941549,434.657546 481.794882,435.592212 C480.621549,436.498879 479.541549,437.434879 478.568215,438.397546 C477.594882,439.358879 476.728215,440.350879 475.981549,441.368212 C475.208215,442.346879 474.554882,443.334879 474.048215,444.364212 C473.034882,446.418879 472.621549,448.598879 472.981549,450.885545 C473.581549,454.890879 476.541549,457.366878 480.848215,458.554878 C485.128215,459.737545 490.914882,459.800212 496.661548,458.816212 C509.914881,456.782878 523.528214,450.232212 535.234881,440.057546 C547.274885,429.617546 558.581547,417.781546 568.83488,404.673546 C579.128213,391.57888 588.248213,377.149547 596.114879,361.686881 C590.888212,379.80288 583.634879,397.265547 574.87488,413.83488 C572.75488,418.024213 570.341546,422.032213 567.99488,426.084213 C566.848213,428.130879 565.55488,430.080212 564.301546,432.053546 L560.528213,437.964212 C555.221547,445.652212 549.781547,453.250879 543.781547,460.368212 C521.888214,480.196211 497.341548,495.777544 471.674882,506.621544 C455.941549,513.22821 440.50155,520.265544 425.328217,528.110877 C423.434883,529.10021 421.514883,530.002877 419.66155,531.01221 C417.794883,531.990877 415.98155,533.062877 414.208217,534.06421 C410.62155,535.99221 407.328217,538.10021 404.54155,540.23621 C398.928217,544.30021 395.368217,548.89221 396.314884,553.769543 C397.154884,558.074876 401.448217,560.550876 407.714884,561.762876 C408.50155,561.913543 409.314884,562.046876 410.154884,562.160209 C410.994884,562.256209 411.848217,562.305543 412.728217,562.352209 C414.50155,562.436209 416.354884,562.448209 418.274885,562.397543 C420.194883,562.324209 422.194883,562.286876 424.194883,562.020209 C426.194883,561.776209 428.234883,561.478876 430.274885,561.141543 C439.634883,559.644209 448.861549,556.642876 457.714882,552.746876 C459.928216,551.750876 462.074882,550.621543 464.221549,549.501543 L467.421549,547.774876 C468.488216,547.19621 469.541549,546.598876 470.554882,545.934876 C472.608215,544.638876 474.634882,543.306876 476.621549,541.94421 C477.621549,541.258876 478.621549,540.58021 479.594882,539.869543 L482.434882,537.62821 C508.034881,517.401544 529.648214,493.058878 546.421547,466.349545 C548.368214,463.961545 550.39488,461.636212 552.288213,459.194878 L557.901547,451.825545 C559.741547,449.348212 561.461547,446.770879 563.248213,444.246879 C564.128213,442.966879 565.061546,441.737546 565.87488,440.416212 L568.368213,436.501546 C570.03488,433.886879 571.741546,431.302879 573.261546,428.592213 C574.808213,425.904213 576.408213,423.246879 577.901546,420.529546 L582.248213,412.28688 C583.008213,410.925546 583.648213,409.508213 584.314879,408.105546 L586.314879,403.892213 C577.541546,437.329546 562.328213,470.148211 541.088214,499.806877 C530.448214,514.62821 520.528214,529.598877 512.354881,544.51621 C510.568214,547.785543 508.834881,550.980209 507.421548,554.098876 C506.008215,557.204209 504.888215,560.193543 504.181548,562.765543 C502.808215,567.968209 503.394881,572.028209 507.728215,573.494876 C512.661548,575.229542 519.501548,572.605542 526.928214,567.774876 C530.554881,565.242876 534.341547,562.192209 538.03488,558.784209 C539.83488,557.029543 541.63488,555.204209 543.39488,553.340209 C544.261547,552.401543 545.141547,551.460209 546.008214,550.518876 C546.87488,549.578876 547.71488,548.61621 548.528214,547.61621 C561.768213,531.909543 570.87488,514.394877 575.848213,497.458877 C580.688213,480.986878 583.981546,464.485545 585.928213,448.332212 C587.861546,432.160212 588.474879,416.322879 587.714879,400.968213 C602.088212,369.352214 610.568212,334.892215 612.768212,300.033549 C616.541545,332.328215 614.874879,366.378881 607.128212,400.024213 C603.034879,417.953546 599.594879,435.698879 597.794879,452.724212 C597.381546,456.429545 597.074879,460.117545 596.981546,463.562878 C596.834879,466.966878 596.861546,470.102878 597.248212,472.789545 C598.008212,478.144211 600.101546,481.640211 604.594879,481.209545 C607.141545,480.964211 609.768212,479.580211 612.408212,477.338878 C613.754879,476.233545 615.008212,474.841545 616.274885,473.296211 C617.528212,471.744211 618.781545,470.016211 620.008212,468.145545 C624.914878,460.650878 629.114878,450.710879 632.194878,440.876212 C638.408211,421.078879 640.114878,401.25888 638.154878,383.67888 C636.301545,367.036214 633.288211,351.037548 629.048212,335.818882 C624.768212,320.593549 619.394878,306.193549 613.181545,292.740216 C613.261545,288.553549 613.421545,284.353549 613.408212,280.15355 L613.101545,267.55355 C612.874879,263.366883 612.501545,259.180217 612.221545,254.99355 C612.128212,253.940217 612.088212,252.886884 611.954879,251.846884 L611.568212,248.726884 L610.808212,242.473551 C608.581545,225.833551 604.928212,209.393551 599.888212,193.433552 L601.234879,195.926885 C601.701546,196.766885 602.141546,197.606885 602.541546,198.460218 L604.994879,203.580218 L607.461545,208.753551 L608.088212,210.060218 L608.634879,211.380218 L609.754879,214.020218 L611.981545,219.340218 L613.088212,222.020218 L613.648212,223.366884 L614.141545,224.713551 L618.088212,235.686884 C623.008212,250.47355 626.874878,265.87355 629.661545,281.71355 C630.341545,286.233549 631.181545,290.713549 632.088211,295.166883 C632.861545,299.606882 633.768211,304.006882 634.794878,308.366882 C635.674878,312.713549 636.674878,317.006882 637.808211,321.246882 C638.888211,325.470882 639.941545,329.621548 641.221545,333.705548 C642.368211,337.288215 643.381545,340.762881 644.568211,343.949548 C645.754878,347.130881 647.048211,350.009548 648.448211,352.314881 C651.154878,356.900214 654.368211,359.230881 658.394877,357.005548 C660.714877,355.750881 662.501544,353.384214 664.021544,350.234881 C664.781544,348.658881 665.461544,346.885548 666.061544,344.953548 C666.354877,343.988215 666.634877,342.981548 666.888211,341.941548 C667.128211,340.897548 667.328211,339.814881 667.514877,338.704215 C667.888211,336.481548 668.194877,334.138882 668.421544,331.718882 C668.648211,329.297548 668.861544,326.801548 668.848211,324.248215 C668.874877,321.700215 668.834877,319.113549 668.741544,316.513549 C668.648211,313.926882 668.541544,311.326882 668.234877,308.766882 C666.328211,288.140216 660.421544,269.420217 651.888211,254.140217 L649.008211,248.91355 C647.994878,247.19355 646.941544,245.486884 645.914878,243.79355 C643.834878,240.406884 641.754878,237.073551 639.688211,233.806884 C637.461545,230.566884 635.234878,227.380218 633.021545,224.246884 C631.901545,222.686884 630.821545,221.126884 629.688212,219.606884 L626.154878,215.086885 C623.781545,212.113551 621.488212,209.180218 619.074878,206.340218 C616.594879,203.513551 614.114879,200.740218 611.661545,198.033552 C609.261545,195.313552 606.621545,192.713552 604.048212,190.166885 L600.208212,186.393552 C598.928212,185.140219 597.674879,183.913552 596.301546,182.726885 C590.941546,167.580219 584.114879,153.020219 576.261546,139.10022 C568.381546,125.206887 559.368213,111.993554 549.341547,99.6735538 C552.07488,101.833554 554.568213,104.233554 557.168213,106.566887 L561.048213,110.113554 L562.021547,111.006887 L562.95488,111.926887 L564.808213,113.793554 C567.274885,116.30022 569.821546,118.78022 572.261546,121.353554 L579.408213,129.30022 C580.008213,129.966887 580.621546,130.62022 581.194879,131.313553 L582.888213,133.38022 L586.301546,137.566886 L589.728213,141.793553 L592.954879,146.153553 L596.194879,150.553553 C597.274885,152.033553 598.381546,153.500219 599.368212,155.033553 L605.448212,164.246886 C615.128212,179.540219 625.101545,194.220218 635.781545,207.166885 C638.074878,210.006885 640.448211,212.753551 642.781545,215.166885 C643.368211,215.780218 643.968211,216.366884 644.528211,216.926884 C645.088211,217.486884 645.634878,218.033551 646.181544,218.553551 C647.274885,219.580218 648.368211,220.500218 649.421544,221.273551 C653.661544,224.366884 657.541544,225.180218 660.354877,221.513551 C661.954877,219.433551 662.808211,216.513551 663.088211,212.993551 C663.234877,209.500218 662.754877,205.420218 661.848211,201.020218 C661.621544,199.926885 661.354877,198.806885 661.074877,197.673552 C660.941544,197.100218 660.794877,196.526885 660.634877,195.953552 C660.448211,195.380218 660.274885,194.820218 660.088211,194.233552 C659.341544,191.940218 658.488211,189.593552 657.581544,187.233552 C656.661544,184.873552 655.688211,182.500219 654.648211,180.153552 C653.514878,177.833552 652.341544,175.526886 651.154878,173.273552 C649.954878,171.006886 648.728211,168.780219 647.474878,166.606886 C646.221544,164.420219 644.794878,162.353553 643.434878,160.300219 C642.048211,158.246886 640.648211,156.246886 639.221545,154.300219 C638.514878,153.326886 637.821545,152.353553 637.061545,151.420219 C636.301545,150.500219 635.541545,149.58022 634.768211,148.673553 C631.688211,145.06022 628.621545,141.62022 625.381545,138.473553 C622.074878,135.366887 618.728212,132.473553 615.394879,129.806887 C613.928212,128.606887 612.354879,127.486887 610.808212,126.353553 L606.181545,123.02022 C603.114879,120.82022 600.114879,118.633554 596.901546,116.646887 C593.754879,114.633554 590.634879,112.66022 587.528213,110.726887 C584.381546,108.846887 581.141546,107.086887 577.994879,105.340221 L573.261546,102.753554 C571.661546,101.926887 570.021546,101.153554 568.421546,100.366887 C565.19488,98.8068871 562.021547,97.2868872 558.848213,95.8202205 C555.581547,94.4335539 552.341547,93.1002206 549.141547,91.8068873 C547.528214,91.1802207 545.968214,90.513554 544.341547,89.9268874 L539.461547,88.2202207 C519.101548,65.646888 494.968215,46.8202218 468.661549,32.3268888 C480.688215,36.2735554 492.754882,40.9268886 504.381548,46.7802218 L508.794881,48.9268884 C510.248215,49.6602217 511.661548,50.4868883 513.114881,51.2602217 C515.981548,52.833555 518.888214,54.4068882 521.768214,56.0468882 C527.368214,59.5135548 533.154881,62.886888 538.59488,66.7802213 C553.23488,76.7935544 568.03488,86.0335541 582.728213,93.4868873 C585.954879,95.1135539 589.074879,96.7135539 592.128212,97.9668872 C595.154879,99.2468871 598.061546,100.220221 600.621546,100.740221 C605.648212,101.846887 609.514879,100.993554 610.728212,96.4602205 C611.061545,95.1802206 611.194879,93.7668873 611.021545,92.2868873 C610.861545,90.8202207 610.474879,89.2602207 609.901545,87.6202207 C608.728212,84.3535542 606.834879,80.7535543 604.314879,77.1135543 C601.714879,73.5402211 598.581546,69.8735545 595.181546,66.2602213 C591.688212,62.726888 587.821546,59.3668881 583.994879,56.1535549 C568.341546,43.5002219 551.141547,35.2202221 534.754881,31.1402222 C531.181547,30.2735555 527.634881,29.4468889 524.141547,28.6602222 C520.554881,27.9802222 516.994881,27.3402223 513.488214,26.7268889 L508.248215,25.846889 L502.954881,25.1935556 C499.434881,24.766889 495.968215,24.3802223 492.528215,24.0335557 C489.021548,23.7935557 485.554882,23.5935557 482.141549,23.406889 L477.034882,23.166889 L471.901549,23.1535557 C468.501549,23.166889 465.141549,23.1935557 461.821549,23.246889 C458.448216,23.4335557 455.114883,23.646889 451.834883,23.886889 C418.754883,8.66022268 382.674884,0.526889553 346.501552,0 C344.168219,-0.0597770987 342.274885,1.2335562 342.274885,2.88688949 C342.288219,4.54022279 344.141552,5.92688942 346.421552,5.98022275 L354.808218,6.20688941 C356.194885,6.20688941 357.594885,6.38022274 358.981552,6.47355607 L363.168218,6.8068894 L367.354885,7.12688939 L369.448218,7.30022272 L371.528218,7.56688938 L379.848218,8.67355602 C382.621551,8.96688934 385.368218,9.55355599 388.114884,10.0468894 C390.874884,10.5802227 393.634884,11.0468893 396.368217,11.6068893 L404.54155,13.5668893 L408.634884,14.5535559 L412.66155,15.7402225 C415.034884,18.1402225 417.34155,20.5268891 419.608217,22.9002224 C421.834883,25.3935556 424.008217,27.9002222 426.14155,30.3668888 L429.288217,34.0735554 C430.30155,35.3535554 431.30155,36.660222 432.30155,37.940222 C434.274885,40.5135553 436.208216,43.0602219 438.088216,45.5935551 C439.928216,48.2468884 441.714883,50.8868883 443.448216,53.5002216 L446.021549,57.4068882 L448.434883,61.4602214 C450.021549,64.1535547 451.581549,66.7935546 453.074883,69.4468879 C454.501549,72.2068878 455.901549,74.9268877 457.248216,77.620221 C463.328216,90.0068874 470.088216,101.846887 477.594882,113.073554 C479.408215,115.94022 481.381549,118.646887 483.341549,121.206887 C485.234882,123.833553 487.208215,126.193553 489.261548,128.086887 C491.234882,130.086887 493.221548,131.686887 495.314882,132.62022 C496.368215,133.086887 497.434881,133.406887 498.501548,133.54022 C499.581548,133.686887 500.621548,133.686887 501.714881,133.46022 C505.528215,132.673553 507.728215,129.473553 508.688215,124.82022 C509.141548,122.526887 509.221548,119.94022 509.074881,117.113554 C508.914881,114.313554 508.554881,111.246887 507.914881,108.233554 C505.061548,94.4735539 497.794881,80.5935543 487.168215,68.8468879 C483.074882,64.1135547 478.568215,59.8602214 474.114882,55.3535549 C469.474882,51.1802217 464.861549,46.7535551 459.874882,42.8602219 C455.021549,38.700222 449.834883,35.0602221 444.634883,31.2068888 C441.994883,29.3935555 439.30155,27.6602222 436.594883,25.8735556 C435.234883,24.9935556 433.90155,24.046889 432.514883,23.2202224 L428.34155,20.7535558 C442.42155,25.7802223 456.101549,32.0068888 469.208216,39.3668886 C482.274885,46.7802218 494.714882,55.3802216 506.408215,64.9402213 C509.168215,71.3135545 511.381548,78.0068877 513.568214,84.3802208 C514.608214,87.6335541 515.514881,90.9402207 516.434881,94.1668873 L517.768214,98.9802205 L518.901548,103.873554 C519.634881,107.140221 520.354881,110.313554 520.994881,113.513554 C521.554881,116.78022 522.074881,119.993554 522.581548,123.166887 C523.128214,126.286887 523.434881,129.54022 523.768214,132.70022 L524.234881,137.42022 L524.461547,139.753553 C524.528214,140.526886 524.554881,141.326886 524.594881,142.113553 C524.768214,145.593553 525.048214,149.033553 525.421547,152.420219 C525.728214,155.860219 526.034881,159.326886 526.514881,162.686886 C526.634881,163.513552 526.754881,164.353552 526.888214,165.193552 C526.981547,166.046886 527.088214,166.900219 527.181547,167.766886 C527.394881,169.473552 527.648214,171.153552 527.928214,172.833552 C528.074881,173.660219 528.221547,174.486886 528.368214,175.326886 L528.608214,176.566885 L528.794881,177.833552 C529.061547,179.526885 529.354881,181.206885 529.688214,182.860219 C530.008214,184.526885 530.408214,186.153552 530.754881,187.780219 C531.061547,189.433552 531.421547,191.060218 531.821547,192.620218 C532.221547,194.193552 532.674881,195.700218 533.168214,197.140218 C533.634881,198.593552 534.061547,200.006885 534.608214,201.300218 C535.128214,202.606885 535.728214,203.806885 536.381547,204.900218 C537.034881,205.993551 537.808214,206.953551 538.51488,207.833551 C539.99488,209.566885 541.79488,210.753551 543.981547,211.220218 C547.821547,212.033551 551.048213,210.006885 553.648213,206.166885 C554.941547,204.260218 556.128213,201.886885 557.088213,199.246885 C557.981547,196.633552 558.71488,193.726885 559.31488,190.700218 C561.95488,176.966885 560.688213,161.260219 555.39488,146.18022 C546.368214,120.753554 533.354881,95.8068872 516.114881,73.2735544 C527.848214,83.8335542 538.688214,95.4602206 548.488214,107.953554 L552.088213,112.713554 L553.888213,115.086887 C554.488213,115.873554 555.088213,116.66022 555.63488,117.50022 L562.381547,127.353553 L568.67488,137.526886 C570.701546,140.966886 572.568213,144.50022 574.528213,147.98022 L574.568213,150.660219 L574.501546,153.393553 L574.341546,158.780219 C574.208213,162.353553 574.11488,165.833552 573.75488,169.393552 C573.448213,172.913552 573.128213,176.380219 572.781546,179.793552 C572.328213,183.246885 571.79488,186.673552 571.288213,190.020218 C571.021546,191.700218 570.781546,193.353552 570.47488,195.020218 L569.43488,200.006885 L568.381546,204.900218 C568.008213,206.526885 567.728213,208.100218 567.261546,209.726885 C566.39488,212.940218 565.51488,216.100218 564.621546,219.206884 L563.968213,221.513551 C563.741547,222.286884 563.448213,223.060218 563.19488,223.833551 L561.63488,228.406884 C560.501547,231.646884 559.568213,234.860217 558.43488,238.153551 C557.35488,241.420217 556.47488,244.67355 555.568213,247.940217 C554.581547,251.23355 553.71488,254.51355 552.99488,257.79355 C552.83488,258.606883 552.59488,259.43355 552.39488,260.260217 C552.181547,261.086883 551.981547,261.91355 551.781547,262.740217 C551.39488,264.39355 551.048213,266.046883 550.741547,267.700217 C550.59488,268.526883 550.448214,269.35355 550.301547,270.180216 C550.11488,271.006883 549.941547,271.83355 549.781547,272.660216 C549.448214,274.300216 549.168214,275.940216 548.95488,277.540216 C548.848214,278.340216 548.75488,279.140216 548.688214,279.926883 C548.621547,280.71355 548.55488,281.486883 548.461547,282.246883 C548.288214,283.766883 548.208214,285.246883 548.208214,286.660216 C548.221547,288.086883 548.31488,289.433549 548.51488,290.713549 C548.67488,291.980216 548.901547,293.180216 549.274885,294.273549 C550.008214,296.473549 551.248213,298.313549 553.088213,299.620216 C556.35488,301.940216 560.061547,301.393549 563.87488,298.940216 C567.661546,296.486882 571.688213,292.126883 574.941546,287.060216 C576.848213,284.180216 578.701546,281.086883 580.141546,277.83355 C581.621546,274.566883 583.061546,271.126883 584.221546,267.540217 C585.274885,263.966883 586.181546,260.260217 586.954879,256.43355 C587.048213,255.95355 587.154879,255.47355 587.234879,254.99355 L587.434879,253.540217 C587.554879,252.580217 587.674879,251.606884 587.781546,250.63355 C588.008213,248.67355 588.181546,246.700217 588.341546,244.700217 C589.141546,230.260217 588.834879,215.500218 587.288213,200.633552 L585.861546,189.473552 C585.274885,185.766885 584.568213,182.060219 583.914879,178.313552 L583.408213,175.500219 L582.781546,172.740219 L581.501546,167.166886 C581.061546,165.313552 580.688213,163.420219 580.181546,161.566886 L578.621546,156.046886 C593.341546,185.900219 602.781546,218.566884 606.154879,251.940217 C605.848212,252.79355 605.488212,253.646884 605.114879,254.500217 L603.994879,257.060217 L601.781546,262.086883 L599.554879,267.03355 C598.781546,268.660217 597.928212,270.286883 597.114879,271.886883 C595.461546,275.086883 593.821546,278.23355 592.181546,281.31355 C590.381546,284.406883 588.594879,287.420216 586.821546,290.380216 C579.488213,302.193549 571.43488,312.953549 562.83488,322.580215 C553.768213,332.608215 545.408214,343.049548 537.928214,353.992214 Z" id="path16" fill="#2F7D29" transform="translate(505.565603, 287.015497) scale(-1, 1) rotate(-180.000000) translate(-505.565603, -287.015497) "></path>
            <polygon id="Star" fill="#D0011B" points="335 232.198848 254.037547 272 269.5 187.699808 204 127.99808 294.518774 115.698848 335 39 375.481225 115.698848 466 127.99808 400.499999 187.699808 415.962452 272"></polygon>
            <path d="M293.31131,132 L375.792833,132 L375.792833,141.822654 L359.442329,141.822654 L359.442329,164.191076 L381,164.191076 L381,174.01373 L359.442329,174.01373 L359.442329,215.735698 L348.507279,215.735698 L348.507279,174.01373 L321.534154,174.01373 C320.492721,183.544622 318.409855,191.616705 315.389697,198.132723 C311.328108,206.302059 304.662934,212.623569 295.394177,217 L289.458006,208.344394 C297.893617,203.773455 303.517357,198.035469 306.433371,191.227689 C308.30795,186.364988 309.661814,180.627002 310.494961,174.01373 L288,174.01373 L288,164.191076 L311.223964,164.191076 C311.223964,163.607551 311.328108,163.121282 311.328108,162.537758 L311.328108,141.822654 L293.31131,141.822654 L293.31131,132 Z M322.367301,141.822654 L322.367301,162.537758 C322.367301,163.121282 322.263158,163.607551 322.263158,164.191076 L348.507279,164.191076 L348.507279,141.822654 L322.367301,141.822654 Z" id="" fill="#FFFFFF"></path>
            <path d="M185.73394,424.996094 C187.585502,424.996094 188.511283,424.082031 188.511283,422.253906 C188.534721,420.472656 187.60894,419.582031 185.73394,419.582031 L185.73394,419.582031 L182.394096,419.582031 L182.394096,405.554687 C184.901908,408.039062 187.761283,409.28125 190.972221,409.28125 C194.815971,409.28125 198.190971,407.910156 201.097221,405.167969 C204.003471,402.425781 205.456596,398.347656 205.456596,392.933594 C205.456596,387.988281 204.173393,384.050781 201.606987,381.121094 C199.04058,378.191406 195.788627,376.726562 191.851127,376.726562 C188.429252,376.75 185.276908,377.980469 182.394096,380.417969 L182.394096,380.417969 L182.394096,379.855469 C182.394096,378.988281 182.212455,378.302734 181.849174,377.798828 C181.485893,377.294922 180.683158,377.042969 179.440971,377.042969 L179.440971,377.042969 L173.183158,377.042969 C171.214408,377.042969 170.230033,377.875 170.230033,379.539062 C170.230033,380.546875 170.423393,381.279297 170.810112,381.736328 C171.19683,382.193359 171.940971,382.421875 173.042533,382.421875 L173.042533,382.421875 L176.347221,382.421875 L176.347221,419.582031 L173.042533,419.582031 C172.526908,419.582031 172.099174,419.617187 171.75933,419.6875 C171.419487,419.757812 171.079643,420.021484 170.739799,420.478516 C170.399955,420.935547 170.230033,421.597656 170.230033,422.464844 C170.230033,424.152344 171.190971,424.996094 173.112846,424.996094 L173.112846,424.996094 L185.73394,424.996094 Z M190.023002,403.902344 C187.679252,403.902344 185.82183,402.917969 184.450737,400.949219 C183.079643,398.980469 182.394096,397.175781 182.394096,395.535156 L182.394096,395.535156 L182.394096,388.996094 C182.394096,387.449219 183.226127,385.919922 184.89019,384.408203 C186.554252,382.896484 188.511283,382.140625 190.761283,382.140625 C193.058158,382.140625 195.073783,383.001953 196.808158,384.724609 C198.542533,386.447266 199.409721,389.207031 199.409721,393.003906 C199.409721,396.332031 198.554252,398.980469 196.843315,400.949219 C195.132377,402.917969 192.85894,403.902344 190.023002,403.902344 Z M224.826484,371.558594 C226.373359,371.558594 227.480781,371.224609 228.14875,370.556641 C228.816719,369.888672 229.150703,369.144531 229.150703,368.324219 C229.150703,367.363281 228.752266,366.572266 227.955391,365.951172 C227.158516,365.330078 226.138984,365.019531 224.896797,365.019531 C223.373359,365.019531 222.271797,365.365234 221.592109,366.056641 C220.912422,366.748047 220.572578,367.503906 220.572578,368.324219 C220.572578,369.144531 220.912422,369.894531 221.592109,370.574219 C222.271797,371.230469 223.349922,371.558594 224.826484,371.558594 Z M236.920234,409 C238.748359,409 239.662422,408.085937 239.662422,406.257812 L239.662422,406.257812 L239.662422,406.011719 C239.662422,404.394531 238.724922,403.585937 236.849922,403.585937 L236.849922,403.585937 L229.150703,403.585937 L229.150703,379.855469 C229.150703,377.980469 228.283516,377.042969 226.549141,377.042969 L226.549141,377.042969 L214.982734,377.042969 C214.303047,377.042969 213.746406,377.125 213.312812,377.289062 C212.879219,377.453125 212.592109,377.716797 212.451484,378.080078 C212.310859,378.443359 212.217109,378.748047 212.170234,378.994141 C212.123359,379.240234 212.099922,379.550781 212.099922,379.925781 C212.099922,381.589844 213.084297,382.421875 215.053047,382.421875 L215.053047,382.421875 L223.174141,382.421875 L223.174141,403.585937 L214.314766,403.585937 C213.353828,403.585937 212.644844,403.779297 212.187812,404.166016 C211.730781,404.552734 211.502266,405.25 211.502266,406.257812 C211.502266,408.085937 212.392891,409 214.174141,409 L214.174141,409 L236.920234,409 Z M258.645592,409 C260.497154,409 261.422935,408.085937 261.422935,406.257812 C261.446373,404.476562 260.520592,403.585937 258.645592,403.585937 L258.645592,403.585937 L255.305748,403.585937 L255.305748,392.371094 C255.305748,388.808594 256.196373,386.212891 257.977623,384.583984 C259.758873,382.955078 261.65731,382.140625 263.672935,382.140625 C265.59481,382.140625 266.831138,382.644531 267.38192,383.652344 C267.932701,384.660156 268.208092,386.21875 268.208092,388.328125 L268.208092,388.328125 L268.208092,403.585937 L266.204185,403.585937 C265.290123,403.585937 264.604576,403.779297 264.147545,404.166016 C263.690513,404.552734 263.43856,404.886719 263.391685,405.167969 C263.34481,405.449219 263.321373,405.882812 263.321373,406.46875 C263.321373,408.15625 264.258873,409 266.133873,409 L266.133873,409 L277.629967,409 C279.411217,409 280.301842,408.085937 280.301842,406.257812 C280.301842,404.476562 279.387779,403.585937 277.559654,403.585937 L277.559654,403.585937 L274.184654,403.585937 L274.184654,388.257812 C274.184654,386.78125 274.102623,385.515625 273.93856,384.460937 C273.774498,383.40625 273.411217,382.216797 272.848717,380.892578 C272.286217,379.568359 271.325279,378.542969 269.965904,377.816406 C268.606529,377.089844 266.895592,376.726562 264.833092,376.726562 C261.270592,376.726562 258.09481,378.074219 255.305748,380.769531 L255.305748,380.769531 L255.305748,379.609375 C255.305748,377.898437 254.391685,377.042969 252.56356,377.042969 L252.56356,377.042969 L245.672935,377.042969 C243.985435,377.042969 243.141685,377.875 243.141685,379.539062 C243.141685,380.40625 243.311607,381.068359 243.651451,381.525391 C243.991295,381.982422 244.325279,382.246094 244.653404,382.316406 C244.981529,382.386719 245.43856,382.421875 246.024498,382.421875 L246.024498,382.421875 L249.258873,382.421875 L249.258873,403.585937 L249.258873,403.585937 L245.954185,403.585937 C244.079185,403.585937 243.141685,404.5 243.141685,406.328125 C243.141685,408.109375 244.055748,409 245.883873,409 L245.883873,409 L258.645592,409 Z M297.738136,371.558594 C299.285011,371.558594 300.392433,371.224609 301.060402,370.556641 C301.728371,369.888672 302.062355,369.144531 302.062355,368.324219 C302.062355,367.363281 301.663917,366.572266 300.867042,365.951172 C300.070167,365.330078 299.050636,365.019531 297.808449,365.019531 C296.285011,365.019531 295.183449,365.365234 294.503761,366.056641 C293.824074,366.748047 293.48423,367.503906 293.48423,368.324219 C293.48423,369.144531 293.824074,369.894531 294.503761,370.574219 C295.183449,371.230469 296.261574,371.558594 297.738136,371.558594 Z M309.831886,409 C311.660011,409 312.574074,408.085937 312.574074,406.257812 L312.574074,406.257812 L312.574074,406.011719 C312.574074,404.394531 311.636574,403.585937 309.761574,403.585937 L309.761574,403.585937 L302.062355,403.585937 L302.062355,379.855469 C302.062355,377.980469 301.195167,377.042969 299.460792,377.042969 L299.460792,377.042969 L287.894386,377.042969 C287.214699,377.042969 286.658058,377.125 286.224464,377.289062 C285.790871,377.453125 285.503761,377.716797 285.363136,378.080078 C285.222511,378.443359 285.128761,378.748047 285.081886,378.994141 C285.035011,379.240234 285.011574,379.550781 285.011574,379.925781 C285.011574,381.589844 285.995949,382.421875 287.964699,382.421875 L287.964699,382.421875 L296.085792,382.421875 L296.085792,403.585937 L287.226417,403.585937 C286.26548,403.585937 285.556496,403.779297 285.099464,404.166016 C284.642433,404.552734 284.413917,405.25 284.413917,406.257812 C284.413917,408.085937 285.304542,409 287.085792,409 L287.085792,409 L309.831886,409 Z M330.397087,409.28125 C334.240837,409.28125 337.815056,408.15625 341.119743,405.90625 C341.635368,407.101562 342.55529,407.916016 343.879509,408.349609 C345.203728,408.783203 346.990837,409 349.240837,409 L349.240837,409 L350.893181,409 C352.627556,409 353.494743,408.109375 353.494743,406.328125 C353.471306,405.15625 353.178337,404.382812 352.615837,404.007812 C352.100212,403.679687 351.244743,403.503906 350.049431,403.480469 L350.049431,403.480469 L349.451775,403.480469 C348.303337,403.480469 347.424431,403.375 346.815056,403.164062 L346.815056,403.164062 L346.815056,389.066406 C346.815056,386.652344 346.4049,384.595703 345.584587,382.896484 C344.764275,381.197266 343.633415,379.914062 342.192009,379.046875 C340.750603,378.179687 339.250603,377.552734 337.692009,377.166016 C336.133415,376.779297 334.440056,376.585937 332.611931,376.585937 C329.166618,376.585937 326.494743,376.925781 324.596306,377.605469 C322.697868,378.285156 321.74865,379.632812 321.74865,381.648437 C321.74865,382.515625 322.047478,383.236328 322.645134,383.810547 C323.24279,384.384766 323.951775,384.671875 324.772087,384.671875 C325.826775,384.671875 326.647087,384.261719 327.233025,383.441406 C327.2799,383.347656 327.37365,383.166016 327.514275,382.896484 C327.6549,382.626953 327.772087,382.480469 327.865837,382.457031 C327.959587,382.433594 328.176384,382.363281 328.516228,382.246094 C328.856071,382.128906 329.33654,382.058594 329.957634,382.035156 C330.578728,382.011719 331.393181,382 332.400993,382 C334.041618,382 335.424431,382.193359 336.549431,382.580078 C337.674431,382.966797 338.500603,383.388672 339.027946,383.845703 C339.55529,384.302734 339.965446,384.947266 340.258415,385.779297 C340.551384,386.611328 340.709587,387.208984 340.733025,387.572266 C340.756462,387.935547 340.768181,388.480469 340.768181,389.207031 C338.166618,389.207031 335.688103,389.359375 333.332634,389.664062 C330.977165,389.96875 328.68615,390.472656 326.459587,391.175781 C324.233025,391.878906 322.457634,392.898437 321.133415,394.234375 C319.809196,395.570312 319.147087,397.175781 319.147087,399.050781 C319.147087,401.652344 320.184196,404.007812 322.258415,406.117187 C324.332634,408.226562 327.045525,409.28125 330.397087,409.28125 Z M331.979118,403.902344 C330.104118,403.902344 328.504509,403.427734 327.18029,402.478516 C325.856071,401.529297 325.193962,400.386719 325.193962,399.050781 C325.193962,397.457031 326.600212,396.208984 329.412712,395.306641 C332.225212,394.404297 336.010368,393.90625 340.768181,393.8125 L340.768181,393.8125 L340.768181,397.679687 C340.768181,398.945312 340.428337,400.005859 339.74865,400.861328 C339.068962,401.716797 338.225212,402.349609 337.2174,402.759766 C336.209587,403.169922 335.277946,403.462891 334.422478,403.638672 C333.567009,403.814453 332.752556,403.902344 331.979118,403.902344 Z M381.091194,395.675781 C382.825569,395.628906 383.692757,394.720703 383.692757,392.951172 C383.692757,391.181641 382.778694,390.296875 380.950569,390.296875 L380.950569,390.296875 L361.298225,390.296875 C359.423225,390.273437 358.485725,391.246094 358.485725,393.214844 C358.485725,394.808594 359.329475,395.628906 361.016975,395.675781 L361.016975,395.675781 L381.091194,395.675781 Z M407.492333,409.28125 C412.039208,409.28125 415.707176,407.816406 418.496239,404.886719 C421.285301,401.957031 422.679833,397.996094 422.679833,393.003906 C422.679833,388.011719 421.273583,384.027344 418.461083,381.050781 C415.648583,378.074219 412.01577,376.585937 407.562645,376.585937 C403.039208,376.585937 399.382958,378.050781 396.593895,380.980469 C393.804833,383.910156 392.410301,387.917969 392.410301,393.003906 C392.410301,397.949219 393.793114,401.898437 396.558739,404.851562 C399.324364,407.804687 402.968895,409.28125 407.492333,409.28125 Z M407.562645,403.902344 C405.242333,403.902344 403.150536,402.976562 401.287254,401.125 C399.423973,399.273437 398.492333,396.355469 398.492333,392.371094 C398.492333,388.855469 399.394676,386.248047 401.199364,384.548828 C403.004051,382.849609 405.125145,382 407.562645,382 C410.23452,382 412.414208,382.9375 414.101708,384.8125 C415.789208,386.6875 416.632958,389.230469 416.632958,392.441406 C416.632958,396.003906 415.783348,398.804687 414.084129,400.84375 C412.384911,402.882812 410.211083,403.902344 407.562645,403.902344 Z M449.678627,409 C451.600502,409 452.56144,408.132812 452.56144,406.398437 C452.56144,405.53125 452.37394,404.869141 451.99894,404.412109 C451.62394,403.955078 451.272377,403.703125 450.944252,403.65625 C450.616127,403.609375 450.21769,403.585937 449.74894,403.585937 L449.74894,403.585937 L441.627846,403.585937 L441.627846,396.554687 C441.627846,391.984375 442.80558,388.439453 445.161049,385.919922 C447.516518,383.400391 450.323158,382.140625 453.580971,382.140625 C453.627846,382.140625 453.745033,382.152344 453.932533,382.175781 C454.120033,382.199219 454.237221,382.210937 454.284096,382.210937 C454.776283,383.664062 455.760658,384.390625 457.237221,384.390625 C458.057533,384.390625 458.754799,384.103516 459.329018,383.529297 C459.903237,382.955078 460.190346,382.234375 460.190346,381.367187 C460.190346,380.148437 459.663002,379.070312 458.608315,378.132812 C457.553627,377.195312 455.830971,376.726562 453.440346,376.726562 C450.932533,376.726562 448.659096,377.289062 446.620033,378.414062 C444.580971,379.539062 442.916908,380.96875 441.627846,382.703125 L441.627846,382.703125 L441.627846,380.066406 C441.627846,378.050781 440.760658,377.042969 439.026283,377.042969 L439.026283,377.042969 L429.604408,377.042969 C427.776283,377.042969 426.862221,377.851562 426.862221,379.46875 C426.862221,380.054687 426.885658,380.517578 426.932533,380.857422 C426.979408,381.197266 427.219643,381.542969 427.653237,381.894531 C428.08683,382.246094 428.737221,382.421875 429.604408,382.421875 L429.604408,382.421875 L435.580971,382.421875 L435.580971,403.585937 L429.604408,403.585937 C427.776283,403.585937 426.862221,404.429687 426.862221,406.117187 C426.862221,406.703125 426.885658,407.148437 426.932533,407.453125 C426.979408,407.757812 427.231362,408.091797 427.688393,408.455078 C428.145424,408.818359 428.784096,409 429.604408,409 L429.604408,409 L449.678627,409 Z M471.157891,409 C472.939141,409 473.829766,408.085937 473.829766,406.257812 C473.829766,404.476562 472.915703,403.585937 471.087578,403.585937 L471.087578,403.585937 L469.786797,403.585937 L469.786797,392.300781 C469.786797,389.277344 470.302422,386.828125 471.333672,384.953125 C472.364922,383.078125 473.724297,382.140625 475.411797,382.140625 C476.185234,382.140625 476.78875,382.474609 477.222344,383.142578 C477.655937,383.810547 477.907891,384.507812 477.978203,385.234375 C478.048516,385.960937 478.083672,386.898437 478.083672,388.046875 L478.083672,388.046875 L478.083672,403.585937 C477.122734,403.585937 476.378594,403.779297 475.85125,404.166016 C475.323906,404.552734 475.083672,405.226562 475.130547,406.1875 C475.130547,408.0625 476.044609,409 477.872734,409 L477.872734,409 L484.200859,409 C486.122734,409 487.083672,408.085937 487.083672,406.257812 C487.083672,404.476562 486.146172,403.585937 484.271172,403.585937 L484.271172,403.585937 L482.970391,403.585937 L482.970391,392.300781 C482.970391,389.230469 483.497734,386.769531 484.552422,384.917969 C485.607109,383.066406 486.954766,382.140625 488.595391,382.140625 C489.368828,382.140625 489.972344,382.474609 490.405937,383.142578 C490.839531,383.810547 491.091484,384.507812 491.161797,385.234375 C491.232109,385.960937 491.267266,386.898437 491.267266,388.046875 L491.267266,388.046875 L491.267266,403.585937 C490.306328,403.585937 489.562187,403.779297 489.034844,404.166016 C488.5075,404.552734 488.267266,405.226562 488.314141,406.1875 C488.314141,408.0625 489.228203,409 491.056328,409 L491.056328,409 L497.525078,409 C499.306328,409 500.196953,408.109375 500.196953,406.328125 C500.196953,405.859375 500.173516,405.478516 500.126641,405.185547 C500.079766,404.892578 499.827812,404.552734 499.370781,404.166016 C498.91375,403.779297 498.228203,403.585937 497.314141,403.585937 L497.314141,403.585937 L496.083672,403.585937 L496.083672,387.625 C496.083672,384.695312 495.790703,382.433594 495.204766,380.839844 C494.173516,378.097656 492.263359,376.726562 489.474297,376.726562 C486.357109,376.726562 483.861016,378.027344 481.986016,380.628906 C480.673516,378.027344 478.775078,376.726562 476.290703,376.726562 C473.876641,376.726562 471.708672,377.640625 469.786797,379.46875 C469.716484,377.804687 468.814141,376.972656 467.079766,376.972656 C466.962578,376.972656 466.810234,376.996094 466.622734,377.042969 L466.622734,377.042969 L463.388359,377.042969 C461.653984,377.042969 460.786797,377.851562 460.786797,379.46875 C460.786797,379.867187 460.804375,380.171875 460.839531,380.382812 C460.874687,380.59375 460.962578,380.892578 461.103203,381.279297 C461.243828,381.666016 461.525078,381.953125 461.946953,382.140625 C462.368828,382.328125 462.919609,382.421875 463.599297,382.421875 L463.599297,382.421875 L464.900078,382.421875 L464.900078,403.585937 L464.900078,403.585937 L463.458672,403.585937 C461.677422,403.585937 460.786797,404.476562 460.786797,406.257812 C460.786797,408.085937 461.700859,409 463.528984,409 L463.528984,409 L471.157891,409 Z" id="pinia-orm" fill="#000000"></path>
            <path d="M276.200195,331 C277.137695,331 277.606445,330.542969 277.606445,329.628906 C277.606445,328.738281 277.137695,328.292969 276.200195,328.292969 L276.200195,328.292969 L275.655273,328.292969 L276.200195,325.603516 L281.350586,325.603516 L281.930664,328.292969 L281.350586,328.292969 C280.413086,328.292969 279.944336,328.773437 279.944336,329.734375 C279.944336,330.578125 280.424805,331 281.385742,331 L281.385742,331 L285.850586,331 C286.788086,331 287.256836,330.542969 287.256836,329.628906 C287.280273,328.738281 286.799805,328.292969 285.81543,328.292969 L285.81543,328.292969 L285.024414,328.292969 C284.895508,327.71875 284.760742,327.121094 284.620117,326.5 L284.620117,326.5 L281.069336,310.257812 C281.022461,309.976562 280.966797,309.750977 280.902344,309.581055 C280.837891,309.411133 280.679687,309.223633 280.427734,309.018555 C280.175781,308.813477 279.844727,308.710937 279.43457,308.710937 L279.43457,308.710937 L278.256836,308.710937 C277.916992,308.710937 277.638672,308.749023 277.421875,308.825195 C277.205078,308.901367 277.038086,309.033203 276.920898,309.220703 C276.803711,309.408203 276.727539,309.560547 276.692383,309.677734 C276.657227,309.794922 276.604492,309.988281 276.53418,310.257812 L276.53418,310.257812 L272.895508,326.710937 L272.561523,328.292969 L271.700195,328.292969 C270.762695,328.292969 270.305664,328.738281 270.329102,329.628906 L270.329102,329.751953 C270.329102,330.583984 270.786133,331 271.700195,331 L271.700195,331 L276.200195,331 Z M280.770508,322.896484 L276.81543,322.896484 C276.838867,322.708984 277.011719,321.835937 277.333984,320.277344 C277.65625,318.71875 277.963867,317.12793 278.256836,315.504883 C278.549805,313.881836 278.731445,312.554687 278.801758,311.523437 C278.825195,312.367187 278.96875,313.533203 279.232422,315.021484 C279.496094,316.509766 279.800781,318.091797 280.146484,319.767578 C280.492187,321.443359 280.700195,322.486328 280.770508,322.896484 L280.770508,322.896484 Z M295.061523,331.105469 C295.682617,331.105469 296.151367,330.888672 296.467773,330.455078 C296.655273,330.173828 296.924805,329.277344 297.276367,327.765625 C297.62793,326.253906 297.803711,324.970703 297.803711,323.916016 C297.850586,325.205078 298.102539,326.763672 298.55957,328.591797 C298.583008,328.685547 298.624023,328.864258 298.682617,329.12793 C298.741211,329.391602 298.782227,329.558594 298.805664,329.628906 C298.829102,329.699219 298.875977,329.831055 298.946289,330.024414 C299.016602,330.217773 299.078125,330.349609 299.130859,330.419922 C299.183594,330.490234 299.256836,330.586914 299.350586,330.709961 C299.444336,330.833008 299.543945,330.912109 299.649414,330.947266 C299.754883,330.982422 299.886719,331.017578 300.044922,331.052734 C300.203125,331.087891 300.375977,331.105469 300.563477,331.105469 L300.563477,331.105469 L301.108398,331.105469 C301.56543,331.105469 301.919922,331.00293 302.171875,330.797852 C302.423828,330.592773 302.59668,330.238281 302.69043,329.734375 L302.69043,329.734375 L304.272461,320.083984 C304.47168,319.029297 304.606445,318.238281 304.676758,317.710937 L304.676758,317.710937 L305.22168,317.710937 C306.124023,317.710937 306.575195,317.271484 306.575195,316.392578 C306.575195,315.478516 306.124023,315.021484 305.22168,315.021484 L305.22168,315.021484 L300.282227,315.021484 C299.391602,315.021484 298.946289,315.449219 298.946289,316.304687 C298.946289,316.714844 299.025391,317.03418 299.183594,317.262695 C299.341797,317.491211 299.50293,317.623047 299.666992,317.658203 C299.831055,317.693359 300.047852,317.710937 300.317383,317.710937 L300.317383,317.710937 L302.198242,317.710937 C302.092773,318.285156 301.952148,319.143555 301.776367,320.286133 C301.600586,321.428711 301.457031,322.348633 301.345703,323.045898 C301.234375,323.743164 301.114258,324.601562 300.985352,325.621094 C300.856445,326.640625 300.768555,327.595703 300.72168,328.486328 C300.62793,326.998047 300.352539,325.351562 299.895508,323.546875 C299.860352,323.5 299.813477,323.362305 299.754883,323.133789 C299.696289,322.905273 299.661133,322.761719 299.649414,322.703125 C299.637695,322.644531 299.59668,322.530273 299.526367,322.360352 C299.456055,322.19043 299.397461,322.076172 299.350586,322.017578 C299.303711,321.958984 299.230469,321.874023 299.130859,321.762695 C299.03125,321.651367 298.928711,321.578125 298.823242,321.542969 C298.717773,321.507812 298.591797,321.472656 298.445312,321.4375 C298.298828,321.402344 298.131836,321.384766 297.944336,321.384766 L297.944336,321.384766 L297.733398,321.384766 C297.416992,321.384766 297.167969,321.408203 296.986328,321.455078 C296.804687,321.501953 296.605469,321.645508 296.388672,321.885742 C296.171875,322.125977 296.004883,322.486328 295.887695,322.966797 C295.149414,325.732422 294.768555,327.572266 294.745117,328.486328 L294.745117,328.486328 L294.709961,327.800781 L294.586914,327.009766 L293.198242,317.710937 L295.026367,317.710937 C295.295898,317.710937 295.512695,317.693359 295.676758,317.658203 C295.84082,317.623047 296.007812,317.505859 296.177734,317.306641 C296.347656,317.107422 296.432617,316.802734 296.432617,316.392578 L296.432617,316.392578 L296.432617,316.269531 C296.432617,315.4375 295.975586,315.021484 295.061523,315.021484 L295.061523,315.021484 L290.086914,315.021484 C289.231445,315.021484 288.803711,315.4375 288.803711,316.269531 C288.803711,316.703125 288.897461,317.040039 289.084961,317.280273 C289.272461,317.520508 289.442383,317.652344 289.594727,317.675781 C289.74707,317.699219 289.94043,317.710937 290.174805,317.710937 L290.174805,317.710937 L290.702148,317.710937 C290.78418,318.238281 290.918945,319.029297 291.106445,320.083984 L291.106445,320.083984 L292.688477,329.734375 C292.829102,330.648437 293.368164,331.105469 294.305664,331.105469 L294.305664,331.105469 L295.061523,331.105469 Z M317.350586,331.140625 C319.342773,331.140625 320.918945,330.630859 322.079102,329.611328 C323.239258,328.591797 323.819336,327.660156 323.819336,326.816406 C323.819336,326.078125 323.362305,325.708984 322.448242,325.708984 L322.448242,325.708984 L322.342773,325.708984 C322.014648,325.708984 321.753906,325.744141 321.560547,325.814453 C321.367187,325.884766 321.241211,325.949219 321.182617,326.007812 C321.124023,326.066406 321.033203,326.21875 320.910156,326.464844 C320.787109,326.710937 320.69043,326.892578 320.620117,327.009766 C320.03418,327.970703 319.166992,328.451172 318.018555,328.451172 C316.682617,328.451172 315.455078,328.143555 314.335937,327.52832 C313.216797,326.913086 312.44043,325.873047 312.006836,324.408203 L312.006836,324.408203 L322.483398,324.408203 C323.397461,324.408203 323.854492,323.992187 323.854492,323.160156 C323.854492,321.742187 323.681641,320.50293 323.335937,319.442383 C322.990234,318.381836 322.577148,317.564453 322.09668,316.990234 C321.616211,316.416016 321.033203,315.956055 320.347656,315.610352 C319.662109,315.264648 319.049805,315.041992 318.510742,314.942383 C317.97168,314.842773 317.415039,314.792969 316.84082,314.792969 C314.485352,314.792969 312.563477,315.537109 311.075195,317.025391 C309.586914,318.513672 308.842773,320.482422 308.842773,322.931641 C308.842773,325.404297 309.625,327.390625 311.189453,328.890625 C312.753906,330.390625 314.807617,331.140625 317.350586,331.140625 Z M320.760742,321.929687 L311.936523,321.929687 C312.100586,320.582031 312.616211,319.506836 313.483398,318.704102 C314.350586,317.901367 315.469727,317.5 316.84082,317.5 C319.266602,317.5 320.573242,318.976562 320.760742,321.929687 L320.760742,321.929687 Z M335.737305,331.140625 C337.084961,331.140625 338.236328,330.979492 339.191406,330.657227 C340.146484,330.334961 340.852539,329.910156 341.30957,329.382812 C341.766602,328.855469 342.091797,328.333984 342.285156,327.818359 C342.478516,327.302734 342.575195,326.757812 342.575195,326.183594 C342.575195,325.175781 342.241211,324.273437 341.573242,323.476562 C340.870117,322.65625 339.956055,322.067383 338.831055,321.709961 C337.706055,321.352539 336.519531,321.088867 335.271484,320.918945 C334.023437,320.749023 333.147461,320.558594 332.643555,320.347656 C331.893555,320.054687 331.518555,319.65625 331.518555,319.152344 C331.530273,318.050781 332.842773,317.5 335.456055,317.5 C336.334961,317.5 337.008789,317.584961 337.477539,317.754883 C337.946289,317.924805 338.230469,318.135742 338.330078,318.387695 C338.429687,318.639648 338.491211,318.891602 338.514648,319.143555 C338.538086,319.395508 338.643555,319.603516 338.831055,319.767578 C339.018555,319.931641 339.352539,320.013672 339.833008,320.013672 L339.833008,320.013672 L340.131836,320.013672 C340.459961,320.013672 340.708984,319.996094 340.878906,319.960937 C341.048828,319.925781 341.201172,319.793945 341.335937,319.56543 C341.470703,319.336914 341.538086,318.994141 341.538086,318.537109 L341.538086,318.537109 L341.538086,316.058594 C341.538086,315.214844 341.139648,314.792969 340.342773,314.792969 C339.897461,314.792969 339.516602,314.998047 339.200195,315.408203 C338.192383,314.998047 336.979492,314.792969 335.561523,314.792969 C332.959961,314.792969 331.155273,315.25 330.147461,316.164062 C329.139648,317.078125 328.635742,318.132812 328.635742,319.328125 C328.635742,320.394531 329.022461,321.285156 329.795898,322 C330.53418,322.714844 331.536133,323.224609 332.801758,323.529297 C334.067383,323.833984 335.303711,324.085937 336.510742,324.285156 C337.717773,324.484375 338.584961,324.800781 339.112305,325.234375 C339.499023,325.621094 339.692383,325.984375 339.692383,326.324219 C339.692383,327.742187 338.374023,328.451172 335.737305,328.451172 C335.045898,328.451172 334.454102,328.37793 333.961914,328.231445 C333.469727,328.084961 333.083008,327.879883 332.801758,327.616211 C332.520508,327.352539 332.30957,327.118164 332.168945,326.913086 C332.02832,326.708008 331.896484,326.450195 331.773437,326.139648 C331.650391,325.829102 331.56543,325.638672 331.518555,325.568359 C331.307617,325.181641 330.915039,324.988281 330.34082,324.988281 C329.708008,324.988281 329.265625,325.073242 329.013672,325.243164 C328.761719,325.413086 328.635742,325.785156 328.635742,326.359375 L328.635742,326.359375 L328.635742,329.839844 C328.635742,330.707031 329.022461,331.140625 329.795898,331.140625 C330.15918,331.140625 330.422852,331.064453 330.586914,330.912109 C330.750977,330.759766 330.967773,330.455078 331.237305,329.998047 C332.608398,330.759766 334.108398,331.140625 335.737305,331.140625 Z M354.352539,331.140625 C356.625977,331.140625 358.459961,330.408203 359.854492,328.943359 C361.249023,327.478516 361.946289,325.498047 361.946289,323.001953 C361.946289,320.505859 361.243164,318.513672 359.836914,317.025391 C358.430664,315.537109 356.614258,314.792969 354.387695,314.792969 C352.125977,314.792969 350.297852,315.525391 348.90332,316.990234 C347.508789,318.455078 346.811523,320.458984 346.811523,323.001953 C346.811523,325.474609 347.50293,327.449219 348.885742,328.925781 C350.268555,330.402344 352.09082,331.140625 354.352539,331.140625 Z M354.387695,328.451172 C353.227539,328.451172 352.181641,327.988281 351.25,327.0625 C350.318359,326.136719 349.852539,324.677734 349.852539,322.685547 C349.852539,320.927734 350.303711,319.624023 351.206055,318.774414 C352.108398,317.924805 353.168945,317.5 354.387695,317.5 C355.723633,317.5 356.813477,317.96875 357.657227,318.90625 C358.500977,319.84375 358.922852,321.115234 358.922852,322.720703 C358.922852,324.501953 358.498047,325.902344 357.648437,326.921875 C356.798828,327.941406 355.711914,328.451172 354.387695,328.451172 Z M368.625977,331 C369.516602,331 369.961914,330.542969 369.961914,329.628906 C369.961914,328.738281 369.504883,328.292969 368.59082,328.292969 L368.59082,328.292969 L367.94043,328.292969 L367.94043,322.650391 C367.94043,321.138672 368.198242,319.914062 368.713867,318.976562 C369.229492,318.039062 369.90918,317.570312 370.75293,317.570312 C371.139648,317.570312 371.441406,317.737305 371.658203,318.071289 C371.875,318.405273 372.000977,318.753906 372.036133,319.117187 C372.071289,319.480469 372.088867,319.949219 372.088867,320.523437 L372.088867,320.523437 L372.088867,328.292969 C371.608398,328.292969 371.236328,328.389648 370.972656,328.583008 C370.708984,328.776367 370.588867,329.113281 370.612305,329.59375 C370.612305,330.53125 371.069336,331 371.983398,331 L371.983398,331 L375.147461,331 C376.108398,331 376.588867,330.542969 376.588867,329.628906 C376.588867,328.738281 376.120117,328.292969 375.182617,328.292969 L375.182617,328.292969 L374.532227,328.292969 L374.532227,322.650391 C374.532227,321.115234 374.795898,319.884766 375.323242,318.958984 C375.850586,318.033203 376.524414,317.570312 377.344727,317.570312 C377.731445,317.570312 378.033203,317.737305 378.25,318.071289 C378.466797,318.405273 378.592773,318.753906 378.62793,319.117187 C378.663086,319.480469 378.680664,319.949219 378.680664,320.523437 L378.680664,320.523437 L378.680664,328.292969 C378.200195,328.292969 377.828125,328.389648 377.564453,328.583008 C377.300781,328.776367 377.180664,329.113281 377.204102,329.59375 C377.204102,330.53125 377.661133,331 378.575195,331 L378.575195,331 L381.80957,331 C382.700195,331 383.145508,330.554687 383.145508,329.664062 C383.145508,329.429687 383.133789,329.239258 383.110352,329.092773 C383.086914,328.946289 382.960937,328.776367 382.732422,328.583008 C382.503906,328.389648 382.161133,328.292969 381.704102,328.292969 L381.704102,328.292969 L381.088867,328.292969 L381.088867,320.3125 C381.088867,318.847656 380.942383,317.716797 380.649414,316.919922 C380.133789,315.548828 379.178711,314.863281 377.78418,314.863281 C376.225586,314.863281 374.977539,315.513672 374.040039,316.814453 C373.383789,315.513672 372.43457,314.863281 371.192383,314.863281 C369.985352,314.863281 368.901367,315.320312 367.94043,316.234375 C367.905273,315.402344 367.454102,314.986328 366.586914,314.986328 C366.52832,314.986328 366.452148,314.998047 366.358398,315.021484 L366.358398,315.021484 L364.741211,315.021484 C363.874023,315.021484 363.44043,315.425781 363.44043,316.234375 C363.44043,316.433594 363.449219,316.585937 363.466797,316.691406 C363.484375,316.796875 363.52832,316.946289 363.598633,317.139648 C363.668945,317.333008 363.80957,317.476562 364.020508,317.570312 C364.231445,317.664062 364.506836,317.710937 364.84668,317.710937 L364.84668,317.710937 L365.49707,317.710937 L365.49707,328.292969 L365.49707,328.292969 L364.776367,328.292969 C363.885742,328.292969 363.44043,328.738281 363.44043,329.628906 C363.44043,330.542969 363.897461,331 364.811523,331 L364.811523,331 L368.625977,331 Z M392.936523,331.140625 C394.928711,331.140625 396.504883,330.630859 397.665039,329.611328 C398.825195,328.591797 399.405273,327.660156 399.405273,326.816406 C399.405273,326.078125 398.948242,325.708984 398.03418,325.708984 L398.03418,325.708984 L397.928711,325.708984 C397.600586,325.708984 397.339844,325.744141 397.146484,325.814453 C396.953125,325.884766 396.827148,325.949219 396.768555,326.007812 C396.709961,326.066406 396.619141,326.21875 396.496094,326.464844 C396.373047,326.710937 396.276367,326.892578 396.206055,327.009766 C395.620117,327.970703 394.75293,328.451172 393.604492,328.451172 C392.268555,328.451172 391.041016,328.143555 389.921875,327.52832 C388.802734,326.913086 388.026367,325.873047 387.592773,324.408203 L387.592773,324.408203 L398.069336,324.408203 C398.983398,324.408203 399.44043,323.992187 399.44043,323.160156 C399.44043,321.742187 399.267578,320.50293 398.921875,319.442383 C398.576172,318.381836 398.163086,317.564453 397.682617,316.990234 C397.202148,316.416016 396.619141,315.956055 395.933594,315.610352 C395.248047,315.264648 394.635742,315.041992 394.09668,314.942383 C393.557617,314.842773 393.000977,314.792969 392.426758,314.792969 C390.071289,314.792969 388.149414,315.537109 386.661133,317.025391 C385.172852,318.513672 384.428711,320.482422 384.428711,322.931641 C384.428711,325.404297 385.210937,327.390625 386.775391,328.890625 C388.339844,330.390625 390.393555,331.140625 392.936523,331.140625 Z M396.34668,321.929687 L387.522461,321.929687 C387.686523,320.582031 388.202148,319.506836 389.069336,318.704102 C389.936523,317.901367 391.055664,317.5 392.426758,317.5 C394.852539,317.5 396.15918,318.976562 396.34668,321.929687 L396.34668,321.929687 Z" id="Awesome" fill="#000000"></path>
            <path d="M311.798828,293 C312.232422,293 312.563477,292.897461 312.791992,292.692383 C313.020508,292.487305 313.146484,292.302734 313.169922,292.138672 C313.193359,291.974609 313.205078,291.746094 313.205078,291.453125 L313.205078,291.453125 L313.205078,289.976562 C313.205078,289.542969 313.114258,289.217773 312.932617,289.000977 C312.750977,288.78418 312.578125,288.658203 312.414062,288.623047 C312.25,288.587891 312.009766,288.570312 311.693359,288.570312 L311.693359,288.570312 L311.623047,288.570312 C311.189453,288.570312 310.84082,288.655273 310.577148,288.825195 C310.313477,288.995117 310.181641,289.378906 310.181641,289.976562 L310.181641,289.976562 L310.181641,290.292969 L302.798828,290.292969 C303.373047,289.8125 304.222656,289.118164 305.347656,288.209961 C306.472656,287.301758 307.257812,286.654297 307.703125,286.267578 C308.148437,285.880859 308.760742,285.338867 309.540039,284.641602 C310.319336,283.944336 310.861328,283.387695 311.166016,282.97168 C311.470703,282.555664 311.819336,282.040039 312.211914,281.424805 C312.604492,280.80957 312.868164,280.220703 313.00293,279.658203 C313.137695,279.095703 313.205078,278.492187 313.205078,277.847656 C313.205078,275.738281 312.4375,274.021484 310.902344,272.697266 C309.367187,271.373047 307.457031,270.710937 305.171875,270.710937 C303.085937,270.710937 301.380859,271.329102 300.056641,272.56543 C298.732422,273.801758 298.070312,275.164062 298.070312,276.652344 C298.070312,277.25 298.228516,277.674805 298.544922,277.926758 C298.861328,278.178711 299.212891,278.304687 299.599609,278.304687 C300.044922,278.304687 300.393555,278.155273 300.645508,277.856445 C300.897461,277.557617 301.038086,277.317383 301.067383,277.135742 C301.09668,276.954102 301.111328,276.78125 301.111328,276.617187 C301.181641,275.808594 301.515625,275.073242 302.113281,274.411133 C302.710937,273.749023 303.537109,273.417969 304.591797,273.417969 C306.033203,273.417969 307.325195,273.801758 308.467773,274.569336 C309.610352,275.336914 310.181641,276.441406 310.181641,277.882812 C310.181641,278.269531 310.149414,278.635742 310.084961,278.981445 C310.020508,279.327148 309.888672,279.693359 309.689453,280.080078 C309.490234,280.466797 309.293945,280.80957 309.100586,281.108398 C308.907227,281.407227 308.587891,281.791016 308.142578,282.259766 C307.697266,282.728516 307.301758,283.124023 306.956055,283.446289 C306.610352,283.768555 306.083008,284.228516 305.374023,284.826172 C304.665039,285.423828 304.052734,285.933594 303.537109,286.355469 C303.021484,286.777344 302.262695,287.401367 301.260742,288.227539 C300.258789,289.053711 299.400391,289.765625 298.685547,290.363281 C298.275391,290.726562 298.070312,291.171875 298.070312,291.699219 C298.09375,292.566406 298.5625,293 299.476562,293 L299.476562,293 L311.798828,293 Z M324.542969,293.28125 C325.398437,293.28125 326.259766,293.09668 327.126953,292.727539 C327.994141,292.358398 328.84082,291.77832 329.666992,290.987305 C330.493164,290.196289 331.164062,289.018555 331.679687,287.454102 C332.195312,285.889648 332.453125,284.064453 332.453125,281.978516 C332.453125,279.916016 332.201172,278.117187 331.697266,276.582031 C331.193359,275.046875 330.53418,273.87793 329.719727,273.075195 C328.905273,272.272461 328.067383,271.677734 327.206055,271.291016 C326.344727,270.904297 325.457031,270.710937 324.542969,270.710937 C323.652344,270.710937 322.773437,270.898437 321.90625,271.273437 C321.039062,271.648437 320.192383,272.243164 319.366211,273.057617 C318.540039,273.87207 317.875,275.046875 317.371094,276.582031 C316.867187,278.117187 316.615234,279.916016 316.615234,281.978516 C316.615234,284.087891 316.873047,285.918945 317.388672,287.47168 C317.904297,289.024414 318.575195,290.202148 319.401367,291.004883 C320.227539,291.807617 321.068359,292.387695 321.923828,292.745117 C322.779297,293.102539 323.652344,293.28125 324.542969,293.28125 Z M324.542969,290.591797 C323.289062,290.591797 322.158203,289.888672 321.150391,288.482422 C320.142578,287.076172 319.638672,284.802734 319.638672,281.662109 C319.638672,278.732422 320.145508,276.625977 321.15918,275.342773 C322.172852,274.05957 323.289062,273.417969 324.507812,273.417969 C325.035156,273.417969 325.556641,273.543945 326.072266,273.795898 C326.587891,274.047852 327.115234,274.455078 327.654297,275.017578 C328.193359,275.580078 328.624023,276.438477 328.946289,277.592773 C329.268555,278.74707 329.429687,280.103516 329.429687,281.662109 C329.429687,284.802734 328.919922,287.076172 327.900391,288.482422 C326.880859,289.888672 325.761719,290.591797 324.542969,290.591797 Z M349.591797,293 C350.025391,293 350.356445,292.897461 350.584961,292.692383 C350.813477,292.487305 350.939453,292.302734 350.962891,292.138672 C350.986328,291.974609 350.998047,291.746094 350.998047,291.453125 L350.998047,291.453125 L350.998047,289.976562 C350.998047,289.542969 350.907227,289.217773 350.725586,289.000977 C350.543945,288.78418 350.371094,288.658203 350.207031,288.623047 C350.042969,288.587891 349.802734,288.570312 349.486328,288.570312 L349.486328,288.570312 L349.416016,288.570312 C348.982422,288.570312 348.633789,288.655273 348.370117,288.825195 C348.106445,288.995117 347.974609,289.378906 347.974609,289.976562 L347.974609,289.976562 L347.974609,290.292969 L340.591797,290.292969 C341.166016,289.8125 342.015625,289.118164 343.140625,288.209961 C344.265625,287.301758 345.050781,286.654297 345.496094,286.267578 C345.941406,285.880859 346.553711,285.338867 347.333008,284.641602 C348.112305,283.944336 348.654297,283.387695 348.958984,282.97168 C349.263672,282.555664 349.612305,282.040039 350.004883,281.424805 C350.397461,280.80957 350.661133,280.220703 350.795898,279.658203 C350.930664,279.095703 350.998047,278.492187 350.998047,277.847656 C350.998047,275.738281 350.230469,274.021484 348.695312,272.697266 C347.160156,271.373047 345.25,270.710937 342.964844,270.710937 C340.878906,270.710937 339.173828,271.329102 337.849609,272.56543 C336.525391,273.801758 335.863281,275.164062 335.863281,276.652344 C335.863281,277.25 336.021484,277.674805 336.337891,277.926758 C336.654297,278.178711 337.005859,278.304687 337.392578,278.304687 C337.837891,278.304687 338.186523,278.155273 338.438477,277.856445 C338.69043,277.557617 338.831055,277.317383 338.860352,277.135742 C338.889648,276.954102 338.904297,276.78125 338.904297,276.617187 C338.974609,275.808594 339.308594,275.073242 339.90625,274.411133 C340.503906,273.749023 341.330078,273.417969 342.384766,273.417969 C343.826172,273.417969 345.118164,273.801758 346.260742,274.569336 C347.40332,275.336914 347.974609,276.441406 347.974609,277.882812 C347.974609,278.269531 347.942383,278.635742 347.87793,278.981445 C347.813477,279.327148 347.681641,279.693359 347.482422,280.080078 C347.283203,280.466797 347.086914,280.80957 346.893555,281.108398 C346.700195,281.407227 346.380859,281.791016 345.935547,282.259766 C345.490234,282.728516 345.094727,283.124023 344.749023,283.446289 C344.40332,283.768555 343.875977,284.228516 343.166992,284.826172 C342.458008,285.423828 341.845703,285.933594 341.330078,286.355469 C340.814453,286.777344 340.055664,287.401367 339.053711,288.227539 C338.051758,289.053711 337.193359,289.765625 336.478516,290.363281 C336.068359,290.726562 335.863281,291.171875 335.863281,291.699219 C335.886719,292.566406 336.355469,293 337.269531,293 L337.269531,293 L349.591797,293 Z M368.980469,293 C369.917969,293 370.386719,292.542969 370.386719,291.628906 C370.445312,290.714844 369.994141,290.257812 369.033203,290.257812 C368.974609,290.257812 368.910156,290.263672 368.839844,290.275391 C368.769531,290.287109 368.722656,290.292969 368.699219,290.292969 L368.699219,290.292969 L366.712891,290.292969 L366.712891,286.953125 L369.384766,286.953125 C370.275391,286.929687 370.720703,286.472656 370.720703,285.582031 C370.720703,284.691406 370.287109,284.246094 369.419922,284.246094 L369.419922,284.246094 L366.712891,284.246094 L366.712891,272.292969 C366.712891,271.964844 366.695312,271.704102 366.660156,271.510742 C366.625,271.317383 366.501953,271.135742 366.291016,270.96582 C366.080078,270.795898 365.769531,270.710937 365.359375,270.710937 L365.359375,270.710937 L363.478516,270.710937 C363.068359,270.710937 362.766602,270.763672 362.573242,270.869141 C362.379883,270.974609 362.166016,271.220703 361.931641,271.607422 L361.931641,271.607422 L354.513672,283.314453 C354.443359,283.431641 354.355469,283.575195 354.25,283.745117 C354.144531,283.915039 354.077148,284.029297 354.047852,284.087891 C354.018555,284.146484 353.992187,284.231445 353.96875,284.342773 C353.945312,284.454102 353.933594,284.603516 353.933594,284.791016 L353.933594,284.791016 L353.933594,285.546875 C353.933594,285.957031 354.012695,286.276367 354.170898,286.504883 C354.329102,286.733398 354.490234,286.865234 354.654297,286.900391 C354.818359,286.935547 355.035156,286.953125 355.304687,286.953125 L355.304687,286.953125 L364.269531,286.953125 L364.269531,290.292969 L362.300781,290.292969 C362.265625,290.292969 362.212891,290.287109 362.142578,290.275391 C362.072266,290.263672 362.013672,290.257812 361.966797,290.257812 C361.052734,290.257812 360.595703,290.714844 360.595703,291.628906 C360.595703,292.039062 360.680664,292.352539 360.850586,292.569336 C361.020508,292.786133 361.181641,292.912109 361.333984,292.947266 C361.486328,292.982422 361.697266,293 361.966797,293 L361.966797,293 L368.980469,293 Z M364.269531,284.246094 L357.044922,284.246094 L364.269531,272.837891 L364.269531,284.246094 Z" id="2024" fill="#000000"></path>
        </g>
    </g>
</svg>
