<?xml version="1.0" encoding="UTF-8"?>
<svg width="669px" height="575px" viewBox="0 0 669 575" version="1.1" xmlns="http://www.w3.org/2000/svg" xmlns:xlink="http://www.w3.org/1999/xlink">
    <title>Group</title>
    <g id="Page-1" stroke="none" stroke-width="1" fill="none" fill-rule="evenodd">
        <g id="Group" transform="translate(0.000000, 0.000000)" fill-rule="nonzero">
            <path d="M106.008225,322.578082 C115.074891,332.606082 123.448224,343.047415 130.928224,353.990081 C131.781557,355.376748 132.808224,356.715415 133.688224,358.088748 C134.594891,359.458081 135.448224,360.832748 136.234891,362.206081 C137.87489,364.926081 139.381557,367.567414 140.368224,370.171414 C140.608224,370.824748 140.861557,371.459414 141.101557,372.076748 C141.328224,372.699414 141.528224,373.316748 141.701557,373.928748 C142.03489,375.150081 142.23489,376.348747 142.301557,377.511414 C142.368224,378.671414 142.248224,379.810081 142.03489,380.880747 C141.808224,381.944747 141.421557,382.966081 140.848224,383.935414 C138.781557,387.360747 135.141557,388.416747 130.648224,387.788747 C128.368224,387.490081 126.061557,386.684747 123.554891,385.612747 C122.314891,385.071414 121.048224,384.451414 119.781558,383.768747 C118.501558,383.087414 117.194891,382.352747 115.994891,381.527414 C104.528225,374.216748 94.5415582,362.559415 87.6482251,348.354082 C80.9815586,334.622082 75.4215587,320.004749 71.1415588,304.711416 L68.1548922,293.12475 L65.661559,281.298083 L63.7148923,269.28475 C63.341559,267.258084 63.1682257,265.24475 62.9282257,263.20475 L62.261559,257.08475 C59.2615591,291.818083 62.7682257,327.126082 72.3948921,360.512748 C82.9015585,371.270081 94.0082249,380.704747 105.434891,388.791414 C116.888224,396.86208 128.754891,403.535413 140.661557,408.89408 C152.75489,414.34608 164.421556,420.47408 175.448223,427.432746 C176.83489,428.295413 178.181556,429.191413 179.501556,430.114079 C180.861556,430.980746 182.194889,431.864746 183.461556,432.782079 C184.728223,433.688746 185.914889,434.655413 187.048223,435.590079 C188.221556,436.496746 189.301556,437.432746 190.274889,438.395413 C191.248222,439.356746 192.114889,440.348746 192.861556,441.366079 C193.634889,442.344746 194.301556,443.332746 194.808222,444.362079 C195.821556,446.416746 196.234889,448.596746 195.874889,450.883412 C195.261556,454.888746 192.301556,457.364745 187.994889,458.552745 C183.714889,459.735412 177.928223,459.798079 172.181556,458.814079 C158.928223,456.780745 145.328224,450.230079 133.621557,440.055413 C121.568224,429.615413 110.274891,417.779413 100.008225,404.671413 C89.7148917,391.576747 80.5948919,377.147414 72.7282254,361.684748 C77.9682253,379.800747 85.2082251,397.263414 93.9815582,413.832747 C96.0882249,418.02208 98.5148915,422.03008 100.861558,426.08208 C102.008225,428.128746 103.288225,430.078079 104.554891,432.051413 L108.328225,437.962079 C113.621558,445.650079 119.061558,453.248746 125.074891,460.366079 C146.968224,480.194078 171.51489,495.775411 197.168222,506.619411 C212.914889,513.226077 228.354888,520.263411 243.528221,528.108744 C245.408221,529.098077 247.328221,530.000744 249.181554,531.010077 C251.061554,531.988744 252.874888,533.060744 254.648221,534.062077 C258.221554,535.990077 261.514887,538.098077 264.301554,540.234077 C269.928221,544.298077 273.48822,548.890077 272.541554,553.76741 C271.701554,558.072743 267.408221,560.548743 261.128221,561.760743 C260.341554,561.91141 259.528221,562.044743 258.688221,562.158076 C257.861554,562.254076 256.994888,562.30341 256.114888,562.350076 C254.354888,562.434076 252.501554,562.446076 250.568221,562.39541 C248.661554,562.322076 246.648221,562.284743 244.661554,562.018076 C242.648221,561.774076 240.621555,561.476743 238.568221,561.13941 C229.221555,559.642076 219.994888,556.640743 211.128222,552.744743 C208.928222,551.748743 206.768222,550.61941 204.621555,549.49941 L201.421556,547.772743 C200.354889,547.194077 199.314889,546.596743 198.288222,545.932743 C196.234889,544.636743 194.208222,543.304743 192.221556,541.942077 C191.221556,541.256743 190.234889,540.578077 189.261556,539.86741 L186.408223,537.626077 C160.821557,517.399411 139.208224,493.056745 122.434891,466.347412 C120.474891,463.959412 118.448224,461.634079 116.554891,459.192745 L110.941558,451.823412 C109.101558,449.346079 107.381558,446.768746 105.594891,444.244746 C104.728225,442.964746 103.781558,441.735413 102.981558,440.414079 L100.474891,436.499413 C98.8082248,433.884746 97.1015582,431.300746 95.5948915,428.59008 C94.0482249,425.90208 92.4348916,423.244746 90.9415583,420.527413 L86.5948918,412.284747 C85.8482251,410.923413 85.2082251,409.50608 84.5282252,408.103413 L82.5282252,403.89008 C91.3148916,437.327413 106.528225,470.146078 127.768224,499.804744 C138.39489,514.626077 148.31489,529.596744 156.501557,544.514077 C158.27489,547.78341 160.008223,550.978076 161.421557,554.096743 C162.848223,557.202076 163.968223,560.19141 164.67489,562.76341 C166.03489,567.966076 165.448223,572.026076 161.128223,573.492743 C156.19489,575.227409 149.341557,572.603409 141.91489,567.772743 C138.288224,565.240743 134.501557,562.190076 130.821557,558.782076 C129.008224,557.02741 127.221557,555.202076 125.461557,553.338076 C124.581557,552.39941 123.714891,551.458076 122.834891,550.516743 C121.968224,549.576743 121.128224,548.614077 120.328224,547.614077 C107.088225,531.90741 97.9682248,514.392744 93.0082249,497.456744 C88.1682251,480.984745 84.8748918,464.483412 82.9148919,448.330079 C80.9815586,432.158079 80.3815586,416.320746 81.1415586,400.96608 C66.7682256,369.350081 58.2882258,334.890082 56.0748925,300.031416 C52.3015593,332.326082 53.9682259,366.376748 61.7148924,400.02208 C65.821559,417.951413 69.2615589,435.696746 71.0615588,452.722079 C71.4748921,456.427412 71.7682255,460.115412 71.8615588,463.560745 C72.0215588,466.964745 71.9948921,470.100745 71.6082255,472.787412 C70.8482255,478.142078 68.7415589,481.638078 64.2482257,481.207412 C61.7015591,480.962078 59.0748925,479.578078 56.4348925,477.336745 C55.0882259,476.231412 53.8482259,474.839412 52.5815593,473.294078 C51.3148926,471.742078 50.0615593,470.014078 48.8348927,468.143412 C43.9415595,460.648745 39.7415596,450.708746 36.6615597,440.874079 C30.4482265,421.076746 28.7415599,401.256747 30.6882265,383.676747 C32.5415598,367.034081 35.5682264,351.035415 39.7948929,335.816749 C44.0882262,320.591416 49.448226,306.191416 55.6615592,292.738083 C55.5948925,288.551416 55.4348925,284.351416 55.4482259,280.151417 L55.7548925,267.551417 C55.9815592,263.36475 56.3415592,259.178084 56.6348925,254.991417 C56.7282258,253.938084 56.7548925,252.884751 56.8882258,251.844751 L57.2748925,248.724751 L58.0348925,242.471418 C60.2748924,225.831418 63.9148923,209.391418 68.9548922,193.431419 L67.6082256,195.924752 C67.1548923,196.764752 66.7015589,197.604752 66.3148923,198.458085 L63.8482257,203.578085 L61.3815591,208.751418 L60.7682257,210.058085 L60.2082258,211.378085 L59.1015591,214.018085 L56.8748925,219.338085 L55.7548925,222.018085 L55.2082259,223.364751 L54.7148926,224.711418 L50.7548927,235.684751 C45.8348928,250.471417 41.9682262,265.871417 39.1815596,281.711417 C38.514893,286.231416 37.674893,290.711416 36.754893,295.16475 C35.9815597,299.604749 35.0882264,304.004749 34.0482264,308.364749 C33.1682264,312.711416 32.1682265,317.004749 31.0348932,321.244749 C29.9548932,325.468749 28.9015599,329.619415 27.6348932,333.703415 C26.4748933,337.286082 25.4748933,340.760748 24.2748933,343.947415 C23.0882267,347.128748 21.8082267,350.007415 20.3948934,352.312748 C17.6882268,356.898081 14.4748936,359.228748 10.448227,357.003415 C8.14156039,355.748748 6.34156044,353.382081 4.82156048,350.232748 C4.0615605,348.656748 3.39489385,346.883415 2.79489386,344.951415 C2.50156053,343.986082 2.22156054,342.979415 1.95489388,341.939415 C1.71489389,340.895415 1.51489389,339.812748 1.32822723,338.702082 C0.954893907,336.479415 0.661560581,334.136749 0.421560587,331.716749 C0.194893926,329.295415 -0.0184394022,326.799415 0.00822726373,324.246082 C-0.0184394022,321.698082 0.0215605968,319.111416 0.101560595,316.511416 C0.194893926,313.924749 0.30156059,311.324749 0.608227249,308.764749 C2.5282272,288.138083 8.42156039,269.418084 16.9682268,254.138084 L19.8348934,248.911417 C20.8482267,247.191417 21.90156,245.484751 22.94156,243.791417 C25.0082266,240.404751 27.0882266,237.071418 29.1682265,233.804751 C31.3815598,230.564751 33.6082264,227.378085 35.8215597,224.244751 C36.9415597,222.684751 38.034893,221.124751 39.1682263,219.604751 L42.7015595,215.084752 C45.0748928,212.111418 47.3682261,209.178085 49.768226,206.338085 C52.2615593,203.511418 54.7282259,200.738085 57.1815592,198.031419 C59.5815591,195.311419 62.221559,192.711419 64.7948923,190.164752 L68.6482255,186.391419 C69.9148922,185.138086 71.1815588,183.911419 72.5415588,182.724752 C77.914892,167.578086 84.7282251,153.018086 92.5948916,139.098087 C100.474891,125.204754 109.488225,111.991421 119.501558,99.6714206 C116.781558,101.831421 114.274891,104.231421 111.688224,106.564754 L107.794891,110.111421 L106.821558,111.004754 L105.901558,111.924754 L104.034891,113.791421 C101.568225,116.298087 99.0348915,118.778087 96.5948915,121.351421 L89.4348917,129.298087 C88.848225,129.964754 88.2215584,130.618087 87.6482251,131.31142 L85.9548918,133.378087 L82.5415585,137.564753 L79.1282253,141.79142 L75.8882254,146.15142 L72.6615588,150.55142 C71.5815588,152.03142 70.4615588,153.498086 69.4882255,155.03142 L63.3948923,164.244753 C53.7282259,179.538086 43.7548928,194.218085 33.0748931,207.164752 C30.7682265,210.004752 28.4082266,212.751418 26.0615599,215.164752 C25.4748933,215.778085 24.8882266,216.364751 24.3148933,216.924751 C23.7682267,217.484751 23.2082267,218.031418 22.66156,218.551418 C21.5682267,219.578085 20.4882268,220.498085 19.4215601,221.271418 C15.1815602,224.364751 11.3015603,225.178085 8.48822705,221.511418 C6.90156042,219.431418 6.03489378,216.511418 5.76822712,212.991418 C5.60822712,209.498085 6.08822711,205.418085 7.00822709,201.018085 C7.23489375,199.924752 7.48822708,198.804752 7.76822707,197.671419 C7.91489373,197.098085 8.0615604,196.524752 8.22156039,195.951419 C8.39489372,195.378085 8.58156038,194.818085 8.76822704,194.231419 C9.51489369,191.938085 10.3548937,189.591419 11.2748936,187.231419 C12.1948936,184.871419 13.1682269,182.498086 14.2082269,180.151419 C15.3282269,177.831419 16.5015602,175.524753 17.7015602,173.271419 C18.9015601,171.004753 20.1282268,168.778086 21.3682267,166.604753 C22.62156,164.418086 24.0482267,162.35142 25.4082266,160.298086 C26.7948933,158.244753 28.1948932,156.244753 29.6215599,154.298086 C30.3415598,153.324753 31.0215598,152.35142 31.7815598,151.418086 C32.5548931,150.498086 33.3148931,149.578087 34.0748931,148.67142 C37.1682263,145.058087 40.2215596,141.618087 43.4748928,138.47142 C46.7815594,135.364754 50.1148927,132.47142 53.4615593,129.804754 C54.9282259,128.604754 56.5015592,127.484754 58.0348925,126.35142 L62.661559,123.018087 C65.741559,120.818087 68.7415589,118.631421 71.9415588,116.644754 C75.0882254,114.631421 78.2215586,112.658087 81.3148919,110.724754 C84.4748918,108.844754 87.7148917,107.084754 90.8615583,105.338088 L95.5815582,102.751421 C97.1815582,101.924754 98.8215581,101.151421 100.421558,100.364754 C103.648225,98.8047539 106.834891,97.284754 109.994891,95.8180873 C113.274891,94.4314207 116.501558,93.0980874 119.701558,91.8047541 C121.314891,91.1780875 122.874891,90.5114208 124.501557,89.9247542 L129.394891,88.2180875 C149.741557,65.6447548 173.87489,46.8180886 200.181556,32.3247556 C188.154889,36.2714222 176.101556,40.9247554 164.47489,46.7780886 L160.061557,48.9247552 C158.59489,49.6580885 157.181557,50.4847551 155.741557,51.2580885 C152.861557,52.8314218 149.95489,54.404755 147.07489,56.044755 C141.488224,59.5114216 135.688224,62.8847548 130.248224,66.7780881 C115.608224,76.7914212 100.808225,86.0314209 86.1148918,93.4847541 C82.8882252,95.1114207 79.7682253,96.7114207 76.714892,97.964754 C73.6882254,99.2447539 70.7815588,100.218088 68.2215589,100.738088 C63.1948924,101.844754 59.3415591,100.991421 58.1282258,96.4580873 C57.7948925,95.1780874 57.6615592,93.7647541 57.8215592,92.2847541 C57.9815591,90.8180875 58.3682258,89.2580875 58.9548925,87.6180875 C60.1148924,84.351421 62.021559,80.7514211 64.5282257,77.1114211 C67.1282256,73.5380879 70.2615588,69.8714213 73.6748921,66.2580881 C77.1682253,62.7247548 81.0348919,59.3647549 84.8482251,56.1514217 C100.501558,43.4980887 117.701558,35.2180889 134.101557,31.138089 C137.67489,30.2714223 141.208224,29.4447557 144.71489,28.658089 C148.301557,27.978089 151.848223,27.3380891 155.35489,26.7247557 L160.608223,25.8447558 L165.901556,25.1914224 C169.408223,24.7647558 172.888223,24.3780891 176.31489,24.0314225 C179.821556,23.7914225 183.288223,23.5914225 186.714889,23.4047558 L191.808222,23.1647558 L196.954889,23.1514225 C200.354889,23.1647558 203.714889,23.1914225 207.021555,23.2447558 C210.408222,23.4314225 213.728222,23.6447558 217.021555,23.8847558 C250.101554,8.65808953 286.16822,0.524756404 322.341553,5.68434189e-14 C324.688219,-0.0619102486 326.568219,1.23142305 326.568219,2.88475634 C326.568219,4.53808964 324.714886,5.92475627 322.434886,5.9780896 L314.048219,6.20475626 C312.648219,6.20475626 311.261553,6.37808959 309.861553,6.47142292 L305.674886,6.80475625 L301.501553,7.12475624 L299.40822,7.29808957 L297.32822,7.56475623 L289.00822,8.67142287 C286.221553,8.96475619 283.48822,9.55142284 280.72822,10.0447562 C277.981554,10.5780895 275.221554,11.0447561 272.474887,11.6047561 L264.301554,13.5647561 L260.221554,14.5514227 L256.181554,15.7380893 C253.821554,18.1380893 251.501554,20.5247559 249.234888,22.8980892 C247.008221,25.3914224 244.834888,27.898089 242.714888,30.3647556 L239.554888,34.0714222 C238.541555,35.3514222 237.541555,36.6580888 236.554888,37.9380888 C234.568221,40.5114221 232.634888,43.0580887 230.754888,45.5914219 C228.914888,48.2447552 227.141555,50.8847551 225.394888,53.4980884 L222.821555,57.404755 L220.408222,61.4580882 C218.821555,64.1514215 217.274888,66.7914214 215.781555,69.4447547 C214.341555,72.2047546 212.954889,74.9247545 211.594889,77.6180878 C205.528222,90.0047542 198.768222,101.844754 191.248222,113.071421 C189.434889,115.938087 187.461556,118.644754 185.501556,121.204754 C183.621556,123.83142 181.634889,126.19142 179.594889,128.084754 C177.621556,130.084754 175.63489,131.684754 173.528223,132.618087 C172.488223,133.084754 171.421556,133.404754 170.341556,133.538087 C169.27489,133.684754 168.221556,133.684754 167.141556,133.458087 C163.31489,132.67142 161.11489,129.47142 160.168223,124.818087 C159.71489,122.524754 159.621557,119.938087 159.768223,117.111421 C159.941557,114.311421 160.301557,111.244754 160.928223,108.231421 C163.781557,94.4714207 171.048223,80.5914211 181.688223,68.8447547 C185.781556,64.1114215 190.288223,59.8580882 194.728222,55.3514217 C199.381556,51.1780885 203.994889,46.7514219 208.968222,42.8580887 C213.834889,38.6980888 219.021555,35.0580889 224.208222,31.2047556 C226.861555,29.3914223 229.554888,27.658089 232.248221,25.8714224 C233.608221,24.9914224 234.941555,24.0447558 236.328221,23.2180892 L240.514888,20.7514226 C226.421555,25.7780891 212.741555,32.0047556 199.648222,39.3647554 C186.568223,46.7780886 174.128223,55.3780884 162.43489,64.9380881 C159.67489,71.3114213 157.461557,78.0047545 155.288223,84.3780876 C154.248223,87.6314209 153.341557,90.9380875 152.421557,94.1647541 L151.07489,98.9780873 L149.941557,103.871421 C149.221557,107.138088 148.488224,110.311421 147.861557,113.511421 C147.301557,116.778087 146.768224,119.991421 146.27489,123.164754 C145.728224,126.284754 145.408224,129.538087 145.07489,132.698087 L144.608224,137.418087 L144.39489,139.75142 C144.31489,140.524753 144.301557,141.324753 144.248224,142.11142 C144.07489,145.59142 143.808224,149.03142 143.421557,152.418086 C143.128224,155.858086 142.821557,159.324753 142.341557,162.684753 C142.221557,163.511419 142.088224,164.351419 141.968224,165.191419 C141.861557,166.044753 141.768224,166.898086 141.661557,167.764753 C141.448224,169.471419 141.208224,171.151419 140.928224,172.831419 C140.781557,173.658086 140.63489,174.484753 140.47489,175.324753 L140.248224,176.564752 L140.048224,177.831419 C139.79489,179.524752 139.501557,181.204752 139.168224,182.858086 C138.848224,184.524752 138.448224,186.151419 138.101557,187.778086 C137.781557,189.431419 137.421557,191.058085 137.021557,192.618085 C136.621557,194.191419 136.181557,195.698085 135.674891,197.138085 C135.221557,198.591419 134.781557,200.004752 134.248224,201.298085 C133.714891,202.604752 133.128224,203.804752 132.461557,204.898085 C131.821557,205.991418 131.048224,206.951418 130.341557,207.831418 C128.848224,209.564752 127.048224,210.751418 124.874891,211.218085 C121.021558,212.031418 117.794891,210.004752 115.194891,206.164752 C113.901558,204.258085 112.728224,201.884752 111.768224,199.244752 C110.874891,196.631419 110.141558,193.724752 109.541558,190.698085 C106.888225,176.964752 108.168225,161.258086 113.448224,146.178087 C122.474891,120.751421 135.488224,95.804754 152.728223,73.2714212 C141.008224,83.831421 130.154891,95.4580874 120.354891,107.951421 L116.768224,112.711421 L114.968224,115.084754 C114.354891,115.871421 113.754891,116.658087 113.208224,117.498087 L106.461558,127.35142 L100.181558,137.524753 C98.1548915,140.964753 96.2882249,144.498087 94.3282249,147.978087 L94.2882249,150.658086 L94.3548916,153.39142 L94.5148916,158.778086 C94.6348916,162.35142 94.7282249,165.831419 95.0882249,169.391419 C95.3948915,172.911419 95.7282249,176.378086 96.0615582,179.791419 C96.5148915,183.244752 97.0482248,186.671419 97.5548915,190.018085 C97.8348915,191.698085 98.0615581,193.351419 98.3815581,195.018085 L99.4082248,200.004752 L100.461558,204.898085 C100.834891,206.524752 101.128225,208.098085 101.594891,209.724752 C102.461558,212.938085 103.341558,216.098085 104.221558,219.204751 L104.888225,221.511418 C105.114891,222.284751 105.394891,223.058085 105.648225,223.831418 L107.208225,228.404751 C108.354891,231.644751 109.274891,234.858084 110.408225,238.151418 C111.501558,241.418084 112.368224,244.671417 113.274891,247.938084 C114.274891,251.231417 115.141558,254.511417 115.861558,257.791417 C116.021558,258.60475 116.248224,259.431417 116.461558,260.258084 C116.661558,261.08475 116.861558,261.911417 117.061558,262.738084 C117.448224,264.391417 117.794891,266.04475 118.114891,267.698084 C118.261558,268.52475 118.408224,269.351417 118.554891,270.178083 C118.741558,271.00475 118.914891,271.831417 119.074891,272.658083 C119.394891,274.298083 119.674891,275.938083 119.888224,277.538083 C119.994891,278.338083 120.088224,279.138083 120.168224,279.92475 C120.234891,280.711417 120.288224,281.48475 120.394891,282.24475 C120.554891,283.76475 120.648224,285.24475 120.634891,286.658083 C120.634891,288.08475 120.541558,289.431416 120.328224,290.711416 C120.168224,291.978083 119.954891,293.178083 119.568224,294.271416 C118.834891,296.471416 117.608224,298.311416 115.754891,299.618083 C112.501558,301.938083 108.781558,301.391416 104.968225,298.938083 C101.194891,296.484749 97.1548915,292.12475 93.9148916,287.058083 C92.008225,284.178083 90.1415583,281.08475 88.7148917,277.831417 C87.2215584,274.56475 85.7948918,271.12475 84.6348918,267.538084 C83.5815585,263.96475 82.6615585,260.258084 81.8882252,256.431417 C81.7948919,255.951417 81.6882252,255.471417 81.6082252,254.991417 L81.4082252,253.538084 C81.3015586,252.578084 81.1815586,251.604751 81.0615586,250.631417 C80.8482252,248.671417 80.6615586,246.698084 80.5148919,244.698084 C79.7015586,230.258084 80.0215586,215.498085 81.5682252,200.631419 L82.9815585,189.471419 C83.5682252,185.764752 84.2748918,182.058086 84.9282251,178.311419 L85.4348918,175.498086 L86.0748918,172.738086 L87.3415584,167.164753 C87.7815584,165.311419 88.1682251,163.418086 88.6748917,161.564753 L90.2215583,156.044753 C75.5015587,185.898086 66.0615589,218.564751 62.6882257,251.938084 C63.0082257,252.791417 63.3548923,253.644751 63.741559,254.498084 L64.8482256,257.058084 L67.0748923,262.08475 L69.2882255,267.031417 C70.0748922,268.658084 70.9282255,270.28475 71.7415588,271.88475 C73.3815588,275.08475 75.0215587,278.231417 76.674892,281.311417 C78.4615586,284.40475 80.2482253,287.418083 82.0348919,290.378083 C89.368225,302.191416 97.4215582,312.951416 106.008225,322.578082" id="path15" fill="#757575" transform="translate(163.284109, 287.014430) scale(-1, 1) rotate(-180.000000) translate(-163.284109, -287.014430) "></path>
            <path d="M562.83488,322.578082 C553.768213,332.606082 545.408214,343.047415 537.928214,353.990081 C537.061547,355.376748 536.048214,356.715415 535.154881,358.088748 C534.248214,359.458081 533.394881,360.832748 532.608214,362.206081 C530.981547,364.926081 529.461547,367.567414 528.474881,370.171414 C528.234881,370.824748 527.981547,371.459414 527.741547,372.076748 C527.514881,372.699414 527.314881,373.316748 527.154881,373.928748 C526.821547,375.150081 526.608214,376.348747 526.554881,377.511414 C526.488214,378.671414 526.594881,379.810081 526.821547,380.880747 C527.034881,381.944747 527.421547,382.966081 528.008214,383.935414 C530.061547,387.360747 533.701547,388.416747 538.19488,387.788747 C540.47488,387.490081 542.79488,386.684747 545.288214,385.612747 C546.528214,385.071414 547.79488,384.451414 549.07488,383.768747 C550.35488,383.087414 551.648213,382.352747 552.861547,381.527414 C564.328213,374.216748 574.31488,362.559415 581.208213,348.354082 C587.861546,334.622082 593.421546,320.004749 597.714879,304.711416 L600.688212,293.12475 L603.181546,281.298083 L605.141545,269.28475 C605.501545,267.258084 605.688212,265.24475 605.914879,263.20475 L606.594879,257.08475 C609.581545,291.818083 606.088212,327.126082 596.448212,360.512748 C585.941546,371.270081 574.848213,380.704747 563.421547,388.791414 C551.95488,396.86208 540.088214,403.535413 528.194881,408.89408 C516.088214,414.34608 504.434881,420.47408 493.394882,427.432746 C492.021548,428.295413 490.661548,429.191413 489.354882,430.114079 C487.981548,430.980746 486.648215,431.864746 485.394882,432.782079 C484.114882,433.688746 482.941549,434.655413 481.794882,435.590079 C480.621549,436.496746 479.541549,437.432746 478.568215,438.395413 C477.594882,439.356746 476.728215,440.348746 475.981549,441.366079 C475.208215,442.344746 474.554882,443.332746 474.048215,444.362079 C473.034882,446.416746 472.621549,448.596746 472.981549,450.883412 C473.581549,454.888746 476.541549,457.364745 480.848215,458.552745 C485.128215,459.735412 490.914882,459.798079 496.661548,458.814079 C509.914881,456.780745 523.528214,450.230079 535.234881,440.055413 C547.274885,429.615413 558.581547,417.779413 568.83488,404.671413 C579.128213,391.576747 588.248213,377.147414 596.114879,361.684748 C590.888212,379.800747 583.634879,397.263414 574.87488,413.832747 C572.75488,418.02208 570.341546,422.03008 567.99488,426.08208 C566.848213,428.128746 565.55488,430.078079 564.301546,432.051413 L560.528213,437.962079 C555.221547,445.650079 549.781547,453.248746 543.781547,460.366079 C521.888214,480.194078 497.341548,495.775411 471.674882,506.619411 C455.941549,513.226077 440.50155,520.263411 425.328217,528.108744 C423.434883,529.098077 421.514883,530.000744 419.66155,531.010077 C417.794883,531.988744 415.98155,533.060744 414.208217,534.062077 C410.62155,535.990077 407.328217,538.098077 404.54155,540.234077 C398.928217,544.298077 395.368217,548.890077 396.314884,553.76741 C397.154884,558.072743 401.448217,560.548743 407.714884,561.760743 C408.50155,561.91141 409.314884,562.044743 410.154884,562.158076 C410.994884,562.254076 411.848217,562.30341 412.728217,562.350076 C414.50155,562.434076 416.354884,562.446076 418.274885,562.39541 C420.194883,562.322076 422.194883,562.284743 424.194883,562.018076 C426.194883,561.774076 428.234883,561.476743 430.274885,561.13941 C439.634883,559.642076 448.861549,556.640743 457.714882,552.744743 C459.928216,551.748743 462.074882,550.61941 464.221549,549.49941 L467.421549,547.772743 C468.488216,547.194077 469.541549,546.596743 470.554882,545.932743 C472.608215,544.636743 474.634882,543.304743 476.621549,541.942077 C477.621549,541.256743 478.621549,540.578077 479.594882,539.86741 L482.434882,537.626077 C508.034881,517.399411 529.648214,493.056745 546.421547,466.347412 C548.368214,463.959412 550.39488,461.634079 552.288213,459.192745 L557.901547,451.823412 C559.741547,449.346079 561.461547,446.768746 563.248213,444.244746 C564.128213,442.964746 565.061546,441.735413 565.87488,440.414079 L568.368213,436.499413 C570.03488,433.884746 571.741546,431.300746 573.261546,428.59008 C574.808213,425.90208 576.408213,423.244746 577.901546,420.527413 L582.248213,412.284747 C583.008213,410.923413 583.648213,409.50608 584.314879,408.103413 L586.314879,403.89008 C577.541546,437.327413 562.328213,470.146078 541.088214,499.804744 C530.448214,514.626077 520.528214,529.596744 512.354881,544.514077 C510.568214,547.78341 508.834881,550.978076 507.421548,554.096743 C506.008215,557.202076 504.888215,560.19141 504.181548,562.76341 C502.808215,567.966076 503.394881,572.026076 507.728215,573.492743 C512.661548,575.227409 519.501548,572.603409 526.928214,567.772743 C530.554881,565.240743 534.341547,562.190076 538.03488,558.782076 C539.83488,557.02741 541.63488,555.202076 543.39488,553.338076 C544.261547,552.39941 545.141547,551.458076 546.008214,550.516743 C546.87488,549.576743 547.71488,548.614077 548.528214,547.614077 C561.768213,531.90741 570.87488,514.392744 575.848213,497.456744 C580.688213,480.984745 583.981546,464.483412 585.928213,448.330079 C587.861546,432.158079 588.474879,416.320746 587.714879,400.96608 C602.088212,369.350081 610.568212,334.890082 612.768212,300.031416 C616.541545,332.326082 614.874879,366.376748 607.128212,400.02208 C603.034879,417.951413 599.594879,435.696746 597.794879,452.722079 C597.381546,456.427412 597.074879,460.115412 596.981546,463.560745 C596.834879,466.964745 596.861546,470.100745 597.248212,472.787412 C598.008212,478.142078 600.101546,481.638078 604.594879,481.207412 C607.141545,480.962078 609.768212,479.578078 612.408212,477.336745 C613.754879,476.231412 615.008212,474.839412 616.274885,473.294078 C617.528212,471.742078 618.781545,470.014078 620.008212,468.143412 C624.914878,460.648745 629.114878,450.708746 632.194878,440.874079 C638.408211,421.076746 640.114878,401.256747 638.154878,383.676747 C636.301545,367.034081 633.288211,351.035415 629.048212,335.816749 C624.768212,320.591416 619.394878,306.191416 613.181545,292.738083 C613.261545,288.551416 613.421545,284.351416 613.408212,280.151417 L613.101545,267.551417 C612.874879,263.36475 612.501545,259.178084 612.221545,254.991417 C612.128212,253.938084 612.088212,252.884751 611.954879,251.844751 L611.568212,248.724751 L610.808212,242.471418 C608.581545,225.831418 604.928212,209.391418 599.888212,193.431419 L601.234879,195.924752 C601.701546,196.764752 602.141546,197.604752 602.541546,198.458085 L604.994879,203.578085 L607.461545,208.751418 L608.088212,210.058085 L608.634879,211.378085 L609.754879,214.018085 L611.981545,219.338085 L613.088212,222.018085 L613.648212,223.364751 L614.141545,224.711418 L618.088212,235.684751 C623.008212,250.471417 626.874878,265.871417 629.661545,281.711417 C630.341545,286.231416 631.181545,290.711416 632.088211,295.16475 C632.861545,299.604749 633.768211,304.004749 634.794878,308.364749 C635.674878,312.711416 636.674878,317.004749 637.808211,321.244749 C638.888211,325.468749 639.941545,329.619415 641.221545,333.703415 C642.368211,337.286082 643.381545,340.760748 644.568211,343.947415 C645.754878,347.128748 647.048211,350.007415 648.448211,352.312748 C651.154878,356.898081 654.368211,359.228748 658.394877,357.003415 C660.714877,355.748748 662.501544,353.382081 664.021544,350.232748 C664.781544,348.656748 665.461544,346.883415 666.061544,344.951415 C666.354877,343.986082 666.634877,342.979415 666.888211,341.939415 C667.128211,340.895415 667.328211,339.812748 667.514877,338.702082 C667.888211,336.479415 668.194877,334.136749 668.421544,331.716749 C668.648211,329.295415 668.861544,326.799415 668.848211,324.246082 C668.874877,321.698082 668.834877,319.111416 668.741544,316.511416 C668.648211,313.924749 668.541544,311.324749 668.234877,308.764749 C666.328211,288.138083 660.421544,269.418084 651.888211,254.138084 L649.008211,248.911417 C647.994878,247.191417 646.941544,245.484751 645.914878,243.791417 C643.834878,240.404751 641.754878,237.071418 639.688211,233.804751 C637.461545,230.564751 635.234878,227.378085 633.021545,224.244751 C631.901545,222.684751 630.821545,221.124751 629.688212,219.604751 L626.154878,215.084752 C623.781545,212.111418 621.488212,209.178085 619.074878,206.338085 C616.594879,203.511418 614.114879,200.738085 611.661545,198.031419 C609.261545,195.311419 606.621545,192.711419 604.048212,190.164752 L600.208212,186.391419 C598.928212,185.138086 597.674879,183.911419 596.301546,182.724752 C590.941546,167.578086 584.114879,153.018086 576.261546,139.098087 C568.381546,125.204754 559.368213,111.991421 549.341547,99.6714206 C552.07488,101.831421 554.568213,104.231421 557.168213,106.564754 L561.048213,110.111421 L562.021547,111.004754 L562.95488,111.924754 L564.808213,113.791421 C567.274885,116.298087 569.821546,118.778087 572.261546,121.351421 L579.408213,129.298087 C580.008213,129.964754 580.621546,130.618087 581.194879,131.31142 L582.888213,133.378087 L586.301546,137.564753 L589.728213,141.79142 L592.954879,146.15142 L596.194879,150.55142 C597.274885,152.03142 598.381546,153.498086 599.368212,155.03142 L605.448212,164.244753 C615.128212,179.538086 625.101545,194.218085 635.781545,207.164752 C638.074878,210.004752 640.448211,212.751418 642.781545,215.164752 C643.368211,215.778085 643.968211,216.364751 644.528211,216.924751 C645.088211,217.484751 645.634878,218.031418 646.181544,218.551418 C647.274885,219.578085 648.368211,220.498085 649.421544,221.271418 C653.661544,224.364751 657.541544,225.178085 660.354877,221.511418 C661.954877,219.431418 662.808211,216.511418 663.088211,212.991418 C663.234877,209.498085 662.754877,205.418085 661.848211,201.018085 C661.621544,199.924752 661.354877,198.804752 661.074877,197.671419 C660.941544,197.098085 660.794877,196.524752 660.634877,195.951419 C660.448211,195.378085 660.274885,194.818085 660.088211,194.231419 C659.341544,191.938085 658.488211,189.591419 657.581544,187.231419 C656.661544,184.871419 655.688211,182.498086 654.648211,180.151419 C653.514878,177.831419 652.341544,175.524753 651.154878,173.271419 C649.954878,171.004753 648.728211,168.778086 647.474878,166.604753 C646.221544,164.418086 644.794878,162.35142 643.434878,160.298086 C642.048211,158.244753 640.648211,156.244753 639.221545,154.298086 C638.514878,153.324753 637.821545,152.35142 637.061545,151.418086 C636.301545,150.498086 635.541545,149.578087 634.768211,148.67142 C631.688211,145.058087 628.621545,141.618087 625.381545,138.47142 C622.074878,135.364754 618.728212,132.47142 615.394879,129.804754 C613.928212,128.604754 612.354879,127.484754 610.808212,126.35142 L606.181545,123.018087 C603.114879,120.818087 600.114879,118.631421 596.901546,116.644754 C593.754879,114.631421 590.634879,112.658087 587.528213,110.724754 C584.381546,108.844754 581.141546,107.084754 577.994879,105.338088 L573.261546,102.751421 C571.661546,101.924754 570.021546,101.151421 568.421546,100.364754 C565.19488,98.8047539 562.021547,97.284754 558.848213,95.8180873 C555.581547,94.4314207 552.341547,93.0980874 549.141547,91.8047541 C547.528214,91.1780875 545.968214,90.5114208 544.341547,89.9247542 L539.461547,88.2180875 C519.101548,65.6447548 494.968215,46.8180886 468.661549,32.3247556 C480.688215,36.2714222 492.754882,40.9247554 504.381548,46.7780886 L508.794881,48.9247552 C510.248215,49.6580885 511.661548,50.4847551 513.114881,51.2580885 C515.981548,52.8314218 518.888214,54.404755 521.768214,56.044755 C527.368214,59.5114216 533.154881,62.8847548 538.59488,66.7780881 C553.23488,76.7914212 568.03488,86.0314209 582.728213,93.4847541 C585.954879,95.1114207 589.074879,96.7114207 592.128212,97.964754 C595.154879,99.2447539 598.061546,100.218088 600.621546,100.738088 C605.648212,101.844754 609.514879,100.991421 610.728212,96.4580873 C611.061545,95.1780874 611.194879,93.7647541 611.021545,92.2847541 C610.861545,90.8180875 610.474879,89.2580875 609.901545,87.6180875 C608.728212,84.351421 606.834879,80.7514211 604.314879,77.1114211 C601.714879,73.5380879 598.581546,69.8714213 595.181546,66.2580881 C591.688212,62.7247548 587.821546,59.3647549 583.994879,56.1514217 C568.341546,43.4980887 551.141547,35.2180889 534.754881,31.138089 C531.181547,30.2714223 527.634881,29.4447557 524.141547,28.658089 C520.554881,27.978089 516.994881,27.3380891 513.488214,26.7247557 L508.248215,25.8447558 L502.954881,25.1914224 C499.434881,24.7647558 495.968215,24.3780891 492.528215,24.0314225 C489.021548,23.7914225 485.554882,23.5914225 482.141549,23.4047558 L477.034882,23.1647558 L471.901549,23.1514225 C468.501549,23.1647558 465.141549,23.1914225 461.821549,23.2447558 C458.448216,23.4314225 455.114883,23.6447558 451.834883,23.8847558 C418.754883,8.65808953 382.674884,0.524756404 346.501552,0 C344.168219,-0.0619102486 342.274885,1.23142305 342.274885,2.88475634 C342.288219,4.53808964 344.141552,5.92475627 346.421552,5.9780896 L354.808218,6.20475626 C356.194885,6.20475626 357.594885,6.37808959 358.981552,6.47142292 L363.168218,6.80475625 L367.354885,7.12475624 L369.448218,7.29808957 L371.528218,7.56475623 L379.848218,8.67142287 C382.621551,8.96475619 385.368218,9.55142284 388.114884,10.0447562 C390.874884,10.5780895 393.634884,11.0447561 396.368217,11.6047561 L404.54155,13.5647561 L408.634884,14.5514227 L412.66155,15.7380893 C415.034884,18.1380893 417.34155,20.5247559 419.608217,22.8980892 C421.834883,25.3914224 424.008217,27.898089 426.14155,30.3647556 L429.288217,34.0714222 C430.30155,35.3514222 431.30155,36.6580888 432.30155,37.9380888 C434.274885,40.5114221 436.208216,43.0580887 438.088216,45.5914219 C439.928216,48.2447552 441.714883,50.8847551 443.448216,53.4980884 L446.021549,57.404755 L448.434883,61.4580882 C450.021549,64.1514215 451.581549,66.7914214 453.074883,69.4447547 C454.501549,72.2047546 455.901549,74.9247545 457.248216,77.6180878 C463.328216,90.0047542 470.088216,101.844754 477.594882,113.071421 C479.408215,115.938087 481.381549,118.644754 483.341549,121.204754 C485.234882,123.83142 487.208215,126.19142 489.261548,128.084754 C491.234882,130.084754 493.221548,131.684754 495.314882,132.618087 C496.368215,133.084754 497.434881,133.404754 498.501548,133.538087 C499.581548,133.684754 500.621548,133.684754 501.714881,133.458087 C505.528215,132.67142 507.728215,129.47142 508.688215,124.818087 C509.141548,122.524754 509.221548,119.938087 509.074881,117.111421 C508.914881,114.311421 508.554881,111.244754 507.914881,108.231421 C505.061548,94.4714207 497.794881,80.5914211 487.168215,68.8447547 C483.074882,64.1114215 478.568215,59.8580882 474.114882,55.3514217 C469.474882,51.1780885 464.861549,46.7514219 459.874882,42.8580887 C455.021549,38.6980888 449.834883,35.0580889 444.634883,31.2047556 C441.994883,29.3914223 439.30155,27.658089 436.594883,25.8714224 C435.234883,24.9914224 433.90155,24.0447558 432.514883,23.2180892 L428.34155,20.7514226 C442.42155,25.7780891 456.101549,32.0047556 469.208216,39.3647554 C482.274885,46.7780886 494.714882,55.3780884 506.408215,64.9380881 C509.168215,71.3114213 511.381548,78.0047545 513.568214,84.3780876 C514.608214,87.6314209 515.514881,90.9380875 516.434881,94.1647541 L517.768214,98.9780873 L518.901548,103.871421 C519.634881,107.138088 520.354881,110.311421 520.994881,113.511421 C521.554881,116.778087 522.074881,119.991421 522.581548,123.164754 C523.128214,126.284754 523.434881,129.538087 523.768214,132.698087 L524.234881,137.418087 L524.461547,139.75142 C524.528214,140.524753 524.554881,141.324753 524.594881,142.11142 C524.768214,145.59142 525.048214,149.03142 525.421547,152.418086 C525.728214,155.858086 526.034881,159.324753 526.514881,162.684753 C526.634881,163.511419 526.754881,164.351419 526.888214,165.191419 C526.981547,166.044753 527.088214,166.898086 527.181547,167.764753 C527.394881,169.471419 527.648214,171.151419 527.928214,172.831419 C528.074881,173.658086 528.221547,174.484753 528.368214,175.324753 L528.608214,176.564752 L528.794881,177.831419 C529.061547,179.524752 529.354881,181.204752 529.688214,182.858086 C530.008214,184.524752 530.408214,186.151419 530.754881,187.778086 C531.061547,189.431419 531.421547,191.058085 531.821547,192.618085 C532.221547,194.191419 532.674881,195.698085 533.168214,197.138085 C533.634881,198.591419 534.061547,200.004752 534.608214,201.298085 C535.128214,202.604752 535.728214,203.804752 536.381547,204.898085 C537.034881,205.991418 537.808214,206.951418 538.51488,207.831418 C539.99488,209.564752 541.79488,210.751418 543.981547,211.218085 C547.821547,212.031418 551.048213,210.004752 553.648213,206.164752 C554.941547,204.258085 556.128213,201.884752 557.088213,199.244752 C557.981547,196.631419 558.71488,193.724752 559.31488,190.698085 C561.95488,176.964752 560.688213,161.258086 555.39488,146.178087 C546.368214,120.751421 533.354881,95.804754 516.114881,73.2714212 C527.848214,83.831421 538.688214,95.4580874 548.488214,107.951421 L552.088213,112.711421 L553.888213,115.084754 C554.488213,115.871421 555.088213,116.658087 555.63488,117.498087 L562.381547,127.35142 L568.67488,137.524753 C570.701546,140.964753 572.568213,144.498087 574.528213,147.978087 L574.568213,150.658086 L574.501546,153.39142 L574.341546,158.778086 C574.208213,162.35142 574.11488,165.831419 573.75488,169.391419 C573.448213,172.911419 573.128213,176.378086 572.781546,179.791419 C572.328213,183.244752 571.79488,186.671419 571.288213,190.018085 C571.021546,191.698085 570.781546,193.351419 570.47488,195.018085 L569.43488,200.004752 L568.381546,204.898085 C568.008213,206.524752 567.728213,208.098085 567.261546,209.724752 C566.39488,212.938085 565.51488,216.098085 564.621546,219.204751 L563.968213,221.511418 C563.741547,222.284751 563.448213,223.058085 563.19488,223.831418 L561.63488,228.404751 C560.501547,231.644751 559.568213,234.858084 558.43488,238.151418 C557.35488,241.418084 556.47488,244.671417 555.568213,247.938084 C554.581547,251.231417 553.71488,254.511417 552.99488,257.791417 C552.83488,258.60475 552.59488,259.431417 552.39488,260.258084 C552.181547,261.08475 551.981547,261.911417 551.781547,262.738084 C551.39488,264.391417 551.048213,266.04475 550.741547,267.698084 C550.59488,268.52475 550.448214,269.351417 550.301547,270.178083 C550.11488,271.00475 549.941547,271.831417 549.781547,272.658083 C549.448214,274.298083 549.168214,275.938083 548.95488,277.538083 C548.848214,278.338083 548.75488,279.138083 548.688214,279.92475 C548.621547,280.711417 548.55488,281.48475 548.461547,282.24475 C548.288214,283.76475 548.208214,285.24475 548.208214,286.658083 C548.221547,288.08475 548.31488,289.431416 548.51488,290.711416 C548.67488,291.978083 548.901547,293.178083 549.274885,294.271416 C550.008214,296.471416 551.248213,298.311416 553.088213,299.618083 C556.35488,301.938083 560.061547,301.391416 563.87488,298.938083 C567.661546,296.484749 571.688213,292.12475 574.941546,287.058083 C576.848213,284.178083 578.701546,281.08475 580.141546,277.831417 C581.621546,274.56475 583.061546,271.12475 584.221546,267.538084 C585.274885,263.96475 586.181546,260.258084 586.954879,256.431417 C587.048213,255.951417 587.154879,255.471417 587.234879,254.991417 L587.434879,253.538084 C587.554879,252.578084 587.674879,251.604751 587.781546,250.631417 C588.008213,248.671417 588.181546,246.698084 588.341546,244.698084 C589.141546,230.258084 588.834879,215.498085 587.288213,200.631419 L585.861546,189.471419 C585.274885,185.764752 584.568213,182.058086 583.914879,178.311419 L583.408213,175.498086 L582.781546,172.738086 L581.501546,167.164753 C581.061546,165.311419 580.688213,163.418086 580.181546,161.564753 L578.621546,156.044753 C593.341546,185.898086 602.781546,218.564751 606.154879,251.938084 C605.848212,252.791417 605.488212,253.644751 605.114879,254.498084 L603.994879,257.058084 L601.781546,262.08475 L599.554879,267.031417 C598.781546,268.658084 597.928212,270.28475 597.114879,271.88475 C595.461546,275.08475 593.821546,278.231417 592.181546,281.311417 C590.381546,284.40475 588.594879,287.418083 586.821546,290.378083 C579.488213,302.191416 571.43488,312.951416 562.83488,322.578082" id="path16" fill="#757575" transform="translate(505.565603, 287.014430) scale(-1, 1) rotate(-180.000000) translate(-505.565603, -287.014430) "></path>
            <g id="logo" transform="translate(204.000000, 39.000000)">
                <polygon id="Star" fill="#D0011B" points="131 193.198848 50.0375474 233 65.4999998 148.699808 0 88.9980803 90.5187738 76.6988485 131 0 171.481225 76.6988485 262 88.9980803 196.499999 148.699808 211.962452 233"></polygon>
                <path d="M89.3113099,93 L171.792833,93 L171.792833,102.822654 L155.442329,102.822654 L155.442329,125.191076 L177,125.191076 L177,135.01373 L155.442329,135.01373 L155.442329,176.735698 L144.507279,176.735698 L144.507279,135.01373 L117.534154,135.01373 C116.492721,144.544622 114.409855,152.616705 111.389697,159.132723 C107.328108,167.302059 100.662934,173.623569 91.3941771,178 L85.4580063,169.344394 C93.8936167,164.773455 99.5173574,159.035469 102.433371,152.227689 C104.30795,147.364989 105.661814,141.627002 106.494961,135.01373 L84,135.01373 L84,125.191076 L107.223964,125.191076 C107.223964,124.607551 107.328108,124.121282 107.328108,123.537758 L107.328108,102.822654 L89.3113099,102.822654 L89.3113099,93 Z M118.367301,102.822654 L118.367301,123.537758 C118.367301,124.121282 118.263158,124.607551 118.263158,125.191076 L144.507279,125.191076 L144.507279,102.822654 L118.367301,102.822654 Z" id="开" fill="#FFFFFF"></path>
            </g>
            <path d="M215.091797,413.359375 C219.494141,413.359375 223.170247,411.921875 226.120117,409.046875 C229.069987,406.171875 230.544922,402.982422 230.544922,399.478516 C230.514974,397.322266 229.152344,396.244141 226.457031,396.244141 C224.510417,396.244141 223.327474,396.947917 222.908203,398.355469 C222.788411,398.684896 222.728516,399.186523 222.728516,399.860352 C222.728516,400.53418 222.571289,401.25293 222.256836,402.016602 C221.942383,402.780273 221.380859,403.686198 220.572266,404.734375 C219.104818,405.902344 217.697266,406.486328 216.349609,406.486328 C215.181641,406.486328 214.185872,406.299154 213.362305,405.924805 C212.538737,405.550456 211.924805,405.116211 211.520508,404.62207 C211.116211,404.12793 210.809245,403.454102 210.599609,402.600586 C210.389974,401.74707 210.270182,401.02832 210.240234,400.444336 C210.210286,399.860352 210.195312,399.074219 210.195312,398.085937 L210.195312,379.039062 L225.378906,379.039062 C227.47526,379.039062 228.523437,377.916016 228.523437,375.669922 C228.523437,373.333984 227.385417,372.166016 225.109375,372.166016 L225.109375,372.166016 L210.195312,372.166016 L210.195312,363.855469 C210.195312,363.076823 210.090495,362.44043 209.880859,361.946289 C209.671224,361.452148 209.349284,361.115234 208.915039,360.935547 C208.480794,360.755859 208.121419,360.636068 207.836914,360.576172 C207.552409,360.516276 207.200521,360.486328 206.78125,360.486328 L206.78125,360.486328 L206.332031,360.486328 C205.583333,360.486328 204.999349,360.516276 204.580078,360.576172 C204.160807,360.636068 203.704102,360.935547 203.209961,361.474609 C202.71582,362.013672 202.46875,362.807292 202.46875,363.855469 L202.46875,363.855469 L202.46875,372.166016 L194.921875,372.166016 C192.585937,372.166016 191.417969,373.39388 191.417969,375.849609 C191.417969,377.975911 192.55599,379.039062 194.832031,379.039062 L194.832031,379.039062 L202.46875,379.039062 L202.46875,397.816406 C202.46875,399.34375 202.558594,400.871094 202.738281,402.398437 C203.03776,404.734375 203.681641,406.70345 204.669922,408.305664 C205.658203,409.907878 206.826172,411.030924 208.173828,411.674805 C209.521484,412.318685 210.734375,412.760417 211.8125,413 C212.890625,413.239583 213.983724,413.359375 215.091797,413.359375 Z M261.451172,413.359375 C267.261068,413.359375 271.947917,411.48763 275.511719,407.744141 C279.075521,404.000651 280.857422,398.939453 280.857422,392.560547 C280.857422,386.181641 279.060547,381.090495 275.466797,377.287109 C271.873047,373.483724 267.23112,371.582031 261.541016,371.582031 C255.761068,371.582031 251.089193,373.453776 247.525391,377.197266 C243.961589,380.940755 242.179687,386.061849 242.179687,392.560547 C242.179687,398.879557 243.946615,403.925781 247.480469,407.699219 C251.014323,411.472656 255.671224,413.359375 261.451172,413.359375 Z M261.541016,406.486328 C258.576172,406.486328 255.90332,405.303385 253.522461,402.9375 C251.141602,400.571615 249.951172,396.843099 249.951172,391.751953 C249.951172,387.259766 251.104167,383.92806 253.410156,381.756836 C255.716146,379.585612 258.426432,378.5 261.541016,378.5 C264.955078,378.5 267.740234,379.697917 269.896484,382.09375 C272.052734,384.489583 273.130859,387.738932 273.130859,391.841797 C273.130859,396.39388 272.045247,399.972656 269.874023,402.578125 C267.702799,405.183594 264.92513,406.486328 261.541016,406.486328 Z M332.248047,433.439453 C332.876953,433.439453 333.416016,433.37207 333.865234,433.237305 C334.314453,433.102539 334.756185,432.765625 335.19043,432.226562 C335.624674,431.6875 335.841797,430.863932 335.841797,429.755859 C335.841797,427.599609 334.64388,426.521484 332.248047,426.521484 L332.248047,426.521484 L327.576172,426.521484 L327.576172,375.759766 C327.576172,375.130859 327.561198,374.681641 327.53125,374.412109 C327.501302,374.142578 327.396484,373.745768 327.216797,373.22168 C327.037109,372.697591 326.685221,372.323242 326.161133,372.098633 C325.637044,371.874023 324.940755,371.761719 324.072266,371.761719 L324.072266,371.761719 L323.623047,371.761719 C322.874349,371.761719 322.290365,371.814128 321.871094,371.918945 C321.451823,372.023763 321.025065,372.360677 320.59082,372.929687 C320.156576,373.498698 319.939453,374.33724 319.939453,375.445312 L319.939453,375.445312 L319.939453,377.017578 C316.435547,373.513672 312.51237,371.761719 308.169922,371.761719 C302.839193,371.761719 298.272135,373.573568 294.46875,377.197266 C290.665365,380.820964 288.763672,385.942057 288.763672,392.560547 C288.763672,398.939453 290.493164,404.000651 293.952148,407.744141 C297.411133,411.48763 301.776042,413.359375 307.046875,413.359375 L307.046875,413.359375 L307.181641,413.359375 C311.79362,413.359375 316.046224,411.652344 319.939453,408.238281 L319.939453,408.238281 L319.939453,426.521484 L315.222656,426.521484 C314.563802,426.521484 314.017253,426.566406 313.583008,426.65625 C313.148763,426.746094 312.722005,427.068034 312.302734,427.62207 C311.883464,428.176107 311.673828,429.037109 311.673828,430.205078 C311.673828,432.361328 312.856771,433.439453 315.222656,433.439453 L315.222656,433.439453 L332.248047,433.439453 Z M308.439453,406.486328 C304.875651,406.486328 301.993164,405.236003 299.791992,402.735352 C297.59082,400.2347 296.490234,396.843099 296.490234,392.560547 C296.490234,388.158203 297.695638,384.744141 300.106445,382.318359 C302.517253,379.892578 305.594401,378.679687 309.337891,378.679687 C312.482422,378.679687 315.035482,379.997396 316.99707,382.632812 C318.958659,385.268229 319.939453,388.023437 319.939453,390.898437 L319.939453,390.898437 L319.939453,396.917969 C319.939453,398.984375 318.786458,401.095703 316.480469,403.251953 C314.174479,405.408203 311.494141,406.486328 308.439453,406.486328 Z M357.539062,365.158203 C359.515625,365.158203 360.930664,364.731445 361.78418,363.87793 C362.637695,363.024414 363.064453,362.073568 363.064453,361.025391 C363.064453,359.797526 362.555339,358.786784 361.537109,357.993164 C360.51888,357.199544 359.216146,356.802734 357.628906,356.802734 C355.682292,356.802734 354.27474,357.244466 353.40625,358.12793 C352.53776,359.011393 352.103516,359.977214 352.103516,361.025391 C352.103516,362.073568 352.53776,363.031901 353.40625,363.900391 C354.27474,364.738932 355.652344,365.158203 357.539062,365.158203 Z M372.992187,413 C375.328125,413 376.496094,411.832031 376.496094,409.496094 L376.496094,409.496094 L376.496094,409.181641 C376.496094,407.115234 375.298177,406.082031 372.902344,406.082031 L372.902344,406.082031 L363.064453,406.082031 L363.064453,375.759766 C363.064453,373.363932 361.95638,372.166016 359.740234,372.166016 L359.740234,372.166016 L344.960937,372.166016 C344.092448,372.166016 343.381185,372.270833 342.827148,372.480469 C342.273112,372.690104 341.90625,373.027018 341.726562,373.491211 C341.546875,373.955404 341.427083,374.344727 341.367187,374.65918 C341.307292,374.973633 341.277344,375.370443 341.277344,375.849609 C341.277344,377.975911 342.535156,379.039062 345.050781,379.039062 L345.050781,379.039062 L355.427734,379.039062 L355.427734,406.082031 L344.107422,406.082031 C342.879557,406.082031 341.973633,406.329102 341.389648,406.823242 C340.805664,407.317383 340.513672,408.208333 340.513672,409.496094 C340.513672,411.832031 341.651693,413 343.927734,413 L343.927734,413 L372.992187,413 Z M408.255859,413.359375 C412.658203,413.359375 416.33431,411.921875 419.28418,409.046875 C422.234049,406.171875 423.708984,402.982422 423.708984,399.478516 C423.679036,397.322266 422.316406,396.244141 419.621094,396.244141 C417.674479,396.244141 416.491536,396.947917 416.072266,398.355469 C415.952474,398.684896 415.892578,399.186523 415.892578,399.860352 C415.892578,400.53418 415.735352,401.25293 415.420898,402.016602 C415.106445,402.780273 414.544922,403.686198 413.736328,404.734375 C412.26888,405.902344 410.861328,406.486328 409.513672,406.486328 C408.345703,406.486328 407.349935,406.299154 406.526367,405.924805 C405.702799,405.550456 405.088867,405.116211 404.68457,404.62207 C404.280273,404.12793 403.973307,403.454102 403.763672,402.600586 C403.554036,401.74707 403.434245,401.02832 403.404297,400.444336 C403.374349,399.860352 403.359375,399.074219 403.359375,398.085937 L403.359375,379.039062 L418.542969,379.039062 C420.639323,379.039062 421.6875,377.916016 421.6875,375.669922 C421.6875,373.333984 420.549479,372.166016 418.273437,372.166016 L418.273437,372.166016 L403.359375,372.166016 L403.359375,363.855469 C403.359375,363.076823 403.254557,362.44043 403.044922,361.946289 C402.835286,361.452148 402.513346,361.115234 402.079102,360.935547 C401.644857,360.755859 401.285482,360.636068 401.000977,360.576172 C400.716471,360.516276 400.364583,360.486328 399.945312,360.486328 L399.945312,360.486328 L399.496094,360.486328 C398.747396,360.486328 398.163411,360.516276 397.744141,360.576172 C397.32487,360.636068 396.868164,360.935547 396.374023,361.474609 C395.879883,362.013672 395.632812,362.807292 395.632812,363.855469 L395.632812,363.855469 L395.632812,372.166016 L388.085937,372.166016 C385.75,372.166016 384.582031,373.39388 384.582031,375.849609 C384.582031,377.975911 385.720052,379.039062 387.996094,379.039062 L387.996094,379.039062 L395.632812,379.039062 L395.632812,397.816406 C395.632812,399.34375 395.722656,400.871094 395.902344,402.398437 C396.201823,404.734375 396.845703,406.70345 397.833984,408.305664 C398.822266,409.907878 399.990234,411.030924 401.337891,411.674805 C402.685547,412.318685 403.898437,412.760417 404.976562,413 C406.054687,413.239583 407.147786,413.359375 408.255859,413.359375 Z M454.615234,413.359375 C460.42513,413.359375 465.111979,411.48763 468.675781,407.744141 C472.239583,404.000651 474.021484,398.939453 474.021484,392.560547 C474.021484,386.181641 472.224609,381.090495 468.630859,377.287109 C465.037109,373.483724 460.395182,371.582031 454.705078,371.582031 C448.92513,371.582031 444.253255,373.453776 440.689453,377.197266 C437.125651,380.940755 435.34375,386.061849 435.34375,392.560547 C435.34375,398.879557 437.110677,403.925781 440.644531,407.699219 C444.178385,411.472656 448.835286,413.359375 454.615234,413.359375 Z M454.705078,406.486328 C451.740234,406.486328 449.067383,405.303385 446.686523,402.9375 C444.305664,400.571615 443.115234,396.843099 443.115234,391.751953 C443.115234,387.259766 444.268229,383.92806 446.574219,381.756836 C448.880208,379.585612 451.590495,378.5 454.705078,378.5 C458.119141,378.5 460.904297,379.697917 463.060547,382.09375 C465.216797,384.489583 466.294922,387.738932 466.294922,391.841797 C466.294922,396.39388 465.20931,399.972656 463.038086,402.578125 C460.866862,405.183594 458.089193,406.486328 454.705078,406.486328 Z" id="toqito" fill="#000000"></path>
            <path d="M276.674805,331 C277.131836,331 277.474609,330.90332 277.703125,330.709961 C277.931641,330.516602 278.057617,330.34375 278.081055,330.191406 C278.104492,330.039062 278.116211,329.828125 278.116211,329.558594 C278.116211,328.714844 277.65918,328.292969 276.745117,328.292969 L276.745117,328.292969 L275.584961,328.292969 L275.584961,322.720703 L279.62793,322.720703 C280.94043,322.720703 282.083008,322.503906 283.055664,322.070312 C284.02832,321.636719 284.760742,321.05957 285.25293,320.338867 C285.745117,319.618164 286.099609,318.894531 286.316406,318.167969 C286.533203,317.441406 286.641602,316.667969 286.641602,315.847656 C286.641602,315.074219 286.533203,314.31543 286.316406,313.571289 C286.099609,312.827148 285.750977,312.094727 285.270508,311.374023 C284.790039,310.65332 284.078125,310.079102 283.134766,309.651367 C282.191406,309.223633 281.069336,309.009766 279.768555,309.009766 L279.768555,309.009766 L271.348633,309.009766 C270.458008,309.009766 270.012695,309.478516 270.012695,310.416016 C270.012695,311.294922 270.481445,311.734375 271.418945,311.734375 L271.418945,311.734375 L272.561523,311.734375 L272.561523,328.292969 L271.418945,328.292969 C270.481445,328.292969 270.012695,328.738281 270.012695,329.628906 C270.012695,330.542969 270.481445,331 271.418945,331 L271.418945,331 L276.674805,331 Z M278.977539,320.013672 L275.584961,320.013672 L275.584961,311.734375 L278.907227,311.734375 C279.868164,311.734375 280.682617,311.87207 281.350586,312.147461 C282.018555,312.422852 282.510742,312.794922 282.827148,313.263672 C283.143555,313.732422 283.360352,314.177734 283.477539,314.599609 C283.594727,315.021484 283.65332,315.449219 283.65332,315.882812 C283.65332,316.9375 283.304687,317.889648 282.607422,318.739258 C281.910156,319.588867 280.700195,320.013672 278.977539,320.013672 L278.977539,320.013672 Z M298.454102,331.140625 C300.446289,331.140625 302.022461,330.630859 303.182617,329.611328 C304.342773,328.591797 304.922852,327.660156 304.922852,326.816406 C304.922852,326.078125 304.46582,325.708984 303.551758,325.708984 L303.551758,325.708984 L303.446289,325.708984 C303.118164,325.708984 302.857422,325.744141 302.664062,325.814453 C302.470703,325.884766 302.344727,325.949219 302.286133,326.007812 C302.227539,326.066406 302.136719,326.21875 302.013672,326.464844 C301.890625,326.710937 301.793945,326.892578 301.723633,327.009766 C301.137695,327.970703 300.270508,328.451172 299.12207,328.451172 C297.786133,328.451172 296.558594,328.143555 295.439453,327.52832 C294.320312,326.913086 293.543945,325.873047 293.110352,324.408203 L293.110352,324.408203 L303.586914,324.408203 C304.500977,324.408203 304.958008,323.992187 304.958008,323.160156 C304.958008,321.742187 304.785156,320.50293 304.439453,319.442383 C304.09375,318.381836 303.680664,317.564453 303.200195,316.990234 C302.719727,316.416016 302.136719,315.956055 301.451172,315.610352 C300.765625,315.264648 300.15332,315.041992 299.614258,314.942383 C299.075195,314.842773 298.518555,314.792969 297.944336,314.792969 C295.588867,314.792969 293.666992,315.537109 292.178711,317.025391 C290.69043,318.513672 289.946289,320.482422 289.946289,322.931641 C289.946289,325.404297 290.728516,327.390625 292.292969,328.890625 C293.857422,330.390625 295.911133,331.140625 298.454102,331.140625 Z M301.864258,321.929687 L293.040039,321.929687 C293.204102,320.582031 293.719727,319.506836 294.586914,318.704102 C295.454102,317.901367 296.573242,317.5 297.944336,317.5 C300.370117,317.5 301.676758,318.976562 301.864258,321.929687 L301.864258,321.929687 Z M319.424805,331 C320.385742,331 320.866211,330.566406 320.866211,329.699219 C320.866211,329.265625 320.772461,328.93457 320.584961,328.706055 C320.397461,328.477539 320.22168,328.351562 320.057617,328.328125 C319.893555,328.304687 319.694336,328.292969 319.459961,328.292969 L319.459961,328.292969 L315.399414,328.292969 L315.399414,324.777344 C315.399414,322.492187 315.988281,320.719727 317.166016,319.459961 C318.34375,318.200195 319.74707,317.570312 321.375977,317.570312 C321.399414,317.570312 321.458008,317.576172 321.551758,317.587891 C321.645508,317.599609 321.704102,317.605469 321.727539,317.605469 C321.973633,318.332031 322.46582,318.695312 323.204102,318.695312 C323.614258,318.695312 323.962891,318.551758 324.25,318.264648 C324.537109,317.977539 324.680664,317.617187 324.680664,317.183594 C324.680664,316.574219 324.416992,316.035156 323.889648,315.566406 C323.362305,315.097656 322.500977,314.863281 321.305664,314.863281 C320.051758,314.863281 318.915039,315.144531 317.895508,315.707031 C316.875977,316.269531 316.043945,316.984375 315.399414,317.851562 L315.399414,317.851562 L315.399414,316.533203 C315.399414,315.525391 314.96582,315.021484 314.098633,315.021484 L314.098633,315.021484 L309.387695,315.021484 C308.473633,315.021484 308.016602,315.425781 308.016602,316.234375 C308.016602,316.527344 308.02832,316.758789 308.051758,316.928711 C308.075195,317.098633 308.195312,317.271484 308.412109,317.447266 C308.628906,317.623047 308.954102,317.710937 309.387695,317.710937 L309.387695,317.710937 L312.375977,317.710937 L312.375977,328.292969 L309.387695,328.292969 C308.473633,328.292969 308.016602,328.714844 308.016602,329.558594 C308.016602,329.851562 308.02832,330.074219 308.051758,330.226562 C308.075195,330.378906 308.201172,330.545898 308.429687,330.727539 C308.658203,330.90918 308.977539,331 309.387695,331 L309.387695,331 L319.424805,331 Z M339.077148,331 C340.038086,331 340.518555,330.554687 340.518555,329.664062 C340.518555,329.253906 340.424805,328.93457 340.237305,328.706055 C340.049805,328.477539 339.882812,328.351562 339.736328,328.328125 C339.589844,328.304687 339.411133,328.292969 339.200195,328.292969 L339.200195,328.292969 L335.40332,328.292969 L335.40332,317.710937 L339.62207,317.710937 C340.55957,317.710937 341.02832,317.283203 341.02832,316.427734 C341.02832,315.490234 340.547852,315.021484 339.586914,315.021484 L339.586914,315.021484 L335.40332,315.021484 L335.40332,313.791016 C335.40332,313.533203 335.417969,313.331055 335.447266,313.18457 C335.476562,313.038086 335.561523,312.80957 335.702148,312.499023 C335.842773,312.188477 336.124023,311.954102 336.545898,311.795898 C336.967773,311.637695 337.512695,311.558594 338.180664,311.558594 C338.473633,311.558594 338.725586,311.570312 338.936523,311.59375 C339.25293,312.191406 339.709961,312.490234 340.307617,312.490234 C340.694336,312.490234 341.037109,312.34082 341.335937,312.041992 C341.634766,311.743164 341.78418,311.376953 341.78418,310.943359 C341.78418,310.416016 341.555664,309.935547 341.098633,309.501953 C340.641602,309.068359 339.862305,308.851562 338.760742,308.851562 C337.987305,308.851562 337.254883,308.930664 336.563477,309.088867 C335.87207,309.24707 335.201172,309.499023 334.550781,309.844727 C333.900391,310.19043 333.381836,310.706055 332.995117,311.391602 C332.608398,312.077148 332.415039,312.888672 332.415039,313.826172 L332.415039,313.826172 L332.415039,315.021484 L328.969727,315.021484 C328.055664,315.021484 327.598633,315.501953 327.598633,316.462891 C327.598633,317.294922 328.055664,317.710937 328.969727,317.710937 L328.969727,317.710937 L332.415039,317.710937 L332.415039,328.292969 L328.688477,328.292969 C327.774414,328.292969 327.317383,328.738281 327.317383,329.628906 C327.317383,330.542969 327.756836,331 328.635742,331 L328.635742,331 L339.077148,331 Z M355.143555,331.140625 C357.135742,331.140625 358.711914,330.630859 359.87207,329.611328 C361.032227,328.591797 361.612305,327.660156 361.612305,326.816406 C361.612305,326.078125 361.155273,325.708984 360.241211,325.708984 L360.241211,325.708984 L360.135742,325.708984 C359.807617,325.708984 359.546875,325.744141 359.353516,325.814453 C359.160156,325.884766 359.03418,325.949219 358.975586,326.007812 C358.916992,326.066406 358.826172,326.21875 358.703125,326.464844 C358.580078,326.710937 358.483398,326.892578 358.413086,327.009766 C357.827148,327.970703 356.959961,328.451172 355.811523,328.451172 C354.475586,328.451172 353.248047,328.143555 352.128906,327.52832 C351.009766,326.913086 350.233398,325.873047 349.799805,324.408203 L349.799805,324.408203 L360.276367,324.408203 C361.19043,324.408203 361.647461,323.992187 361.647461,323.160156 C361.647461,321.742187 361.474609,320.50293 361.128906,319.442383 C360.783203,318.381836 360.370117,317.564453 359.889648,316.990234 C359.40918,316.416016 358.826172,315.956055 358.140625,315.610352 C357.455078,315.264648 356.842773,315.041992 356.303711,314.942383 C355.764648,314.842773 355.208008,314.792969 354.633789,314.792969 C352.27832,314.792969 350.356445,315.537109 348.868164,317.025391 C347.379883,318.513672 346.635742,320.482422 346.635742,322.931641 C346.635742,325.404297 347.417969,327.390625 348.982422,328.890625 C350.546875,330.390625 352.600586,331.140625 355.143555,331.140625 Z M358.553711,321.929687 L349.729492,321.929687 C349.893555,320.582031 350.40918,319.506836 351.276367,318.704102 C352.143555,317.901367 353.262695,317.5 354.633789,317.5 C357.05957,317.5 358.366211,318.976562 358.553711,321.929687 L358.553711,321.929687 Z M374.286133,331.140625 C375.43457,331.140625 376.454102,330.956055 377.344727,330.586914 C378.235352,330.217773 378.897461,329.763672 379.331055,329.224609 C379.764648,328.685547 380.081055,328.196289 380.280273,327.756836 C380.479492,327.317383 380.579102,326.980469 380.579102,326.746094 C380.579102,326.054687 380.075195,325.708984 379.067383,325.708984 L379.067383,325.708984 L378.926758,325.708984 C378.563477,325.708984 378.285156,325.761719 378.091797,325.867187 C377.898437,325.972656 377.719727,326.242187 377.555664,326.675781 C377.098633,327.859375 376.249023,328.451172 375.006836,328.451172 C373.354492,328.451172 371.974609,327.967773 370.867187,327.000977 C369.759766,326.03418 369.206055,324.689453 369.206055,322.966797 C369.206055,321.478516 369.619141,320.195312 370.445312,319.117187 C371.271484,318.039062 372.668945,317.5 374.637695,317.5 C375.844727,317.5 376.700195,317.558594 377.204102,317.675781 C377.391602,318.449219 377.883789,318.835937 378.680664,318.835937 C379.114258,318.835937 379.474609,318.692383 379.761719,318.405273 C380.048828,318.118164 380.192383,317.757812 380.192383,317.324219 C380.192383,316.75 380.016602,316.275391 379.665039,315.900391 C379.313477,315.525391 378.81543,315.267578 378.170898,315.126953 C377.526367,314.986328 376.966797,314.895508 376.492187,314.854492 C376.017578,314.813477 375.422852,314.792969 374.708008,314.792969 L374.708008,314.792969 L374.461914,314.792969 C371.825195,314.792969 369.786133,315.566406 368.344727,317.113281 C366.90332,318.660156 366.182617,320.623047 366.182617,323.001953 C366.182617,325.427734 366.926758,327.390625 368.415039,328.890625 C369.90332,330.390625 371.860352,331.140625 374.286133,331.140625 Z M392.901367,331.140625 C394.624023,331.140625 396.0625,330.578125 397.216797,329.453125 C398.371094,328.328125 398.948242,327.080078 398.948242,325.708984 C398.936523,324.865234 398.40332,324.443359 397.348633,324.443359 C396.586914,324.443359 396.124023,324.71875 395.959961,325.269531 C395.913086,325.398437 395.889648,325.594727 395.889648,325.858398 C395.889648,326.12207 395.828125,326.40332 395.705078,326.702148 C395.582031,327.000977 395.362305,327.355469 395.045898,327.765625 C394.47168,328.222656 393.920898,328.451172 393.393555,328.451172 C392.936523,328.451172 392.546875,328.37793 392.224609,328.231445 C391.902344,328.084961 391.662109,327.915039 391.503906,327.72168 C391.345703,327.52832 391.225586,327.264648 391.143555,326.930664 C391.061523,326.59668 391.014648,326.31543 391.00293,326.086914 C390.991211,325.858398 390.985352,325.550781 390.985352,325.164062 L390.985352,325.164062 L390.985352,317.710937 L396.926758,317.710937 C397.74707,317.710937 398.157227,317.271484 398.157227,316.392578 C398.157227,315.478516 397.711914,315.021484 396.821289,315.021484 L396.821289,315.021484 L390.985352,315.021484 L390.985352,311.769531 C390.985352,311.464844 390.944336,311.21582 390.862305,311.022461 C390.780273,310.829102 390.654297,310.697266 390.484375,310.626953 C390.314453,310.556641 390.173828,310.509766 390.0625,310.486328 C389.951172,310.462891 389.813477,310.451172 389.649414,310.451172 L389.649414,310.451172 L389.473633,310.451172 C389.180664,310.451172 388.952148,310.462891 388.788086,310.486328 C388.624023,310.509766 388.445312,310.626953 388.251953,310.837891 C388.058594,311.048828 387.961914,311.359375 387.961914,311.769531 L387.961914,311.769531 L387.961914,315.021484 L385.008789,315.021484 C384.094727,315.021484 383.637695,315.501953 383.637695,316.462891 C383.637695,317.294922 384.083008,317.710937 384.973633,317.710937 L384.973633,317.710937 L387.961914,317.710937 L387.961914,325.058594 C387.961914,325.65625 387.99707,326.253906 388.067383,326.851562 C388.18457,327.765625 388.436523,328.536133 388.823242,329.163086 C389.209961,329.790039 389.666992,330.229492 390.194336,330.481445 C390.72168,330.733398 391.196289,330.90625 391.618164,331 C392.040039,331.09375 392.467773,331.140625 392.901367,331.140625 Z" id="Perfect" fill="#000000"></path>
            <path d="M283.198242,484 C284.088867,484 284.53418,483.542969 284.53418,482.628906 C284.581055,481.738281 284.124023,481.292969 283.163086,481.292969 L283.163086,481.292969 L279.805664,481.292969 L279.805664,463.117187 C279.817383,462.179687 279.413086,461.710937 278.592773,461.710937 C278.041992,461.722656 277.620117,462.050781 277.327148,462.695312 C276.436523,464.535156 275.258789,465.636719 273.793945,466 C273.700195,466.023437 273.492187,466.052734 273.169922,466.087891 C272.847656,466.123047 272.619141,466.164062 272.484375,466.210937 C272.349609,466.257812 272.211914,466.383789 272.071289,466.588867 C271.930664,466.793945 271.860352,467.078125 271.860352,467.441406 C271.860352,468.355469 272.299805,468.8125 273.178711,468.8125 C274.362305,468.8125 275.563477,468.355469 276.782227,467.441406 L276.782227,467.441406 L276.782227,481.292969 L273.442383,481.292969 C272.504883,481.292969 272.036133,481.75 272.036133,482.664062 C272.036133,483.027344 272.138672,483.334961 272.34375,483.586914 C272.548828,483.838867 272.856445,483.976562 273.266602,484 L273.266602,484 L283.198242,484 Z M296.944336,484.140625 C298.291992,484.140625 299.443359,483.979492 300.398437,483.657227 C301.353516,483.334961 302.05957,482.910156 302.516602,482.382812 C302.973633,481.855469 303.298828,481.333984 303.492187,480.818359 C303.685547,480.302734 303.782227,479.757812 303.782227,479.183594 C303.782227,478.175781 303.448242,477.273437 302.780273,476.476562 C302.077148,475.65625 301.163086,475.067383 300.038086,474.709961 C298.913086,474.352539 297.726562,474.088867 296.478516,473.918945 C295.230469,473.749023 294.354492,473.558594 293.850586,473.347656 C293.100586,473.054687 292.725586,472.65625 292.725586,472.152344 C292.737305,471.050781 294.049805,470.5 296.663086,470.5 C297.541992,470.5 298.21582,470.584961 298.68457,470.754883 C299.15332,470.924805 299.4375,471.135742 299.537109,471.387695 C299.636719,471.639648 299.698242,471.891602 299.72168,472.143555 C299.745117,472.395508 299.850586,472.603516 300.038086,472.767578 C300.225586,472.931641 300.55957,473.013672 301.040039,473.013672 L301.040039,473.013672 L301.338867,473.013672 C301.666992,473.013672 301.916016,472.996094 302.085937,472.960937 C302.255859,472.925781 302.408203,472.793945 302.542969,472.56543 C302.677734,472.336914 302.745117,471.994141 302.745117,471.537109 L302.745117,471.537109 L302.745117,469.058594 C302.745117,468.214844 302.34668,467.792969 301.549805,467.792969 C301.104492,467.792969 300.723633,467.998047 300.407227,468.408203 C299.399414,467.998047 298.186523,467.792969 296.768555,467.792969 C294.166992,467.792969 292.362305,468.25 291.354492,469.164062 C290.34668,470.078125 289.842773,471.132812 289.842773,472.328125 C289.842773,473.394531 290.229492,474.285156 291.00293,475 C291.741211,475.714844 292.743164,476.224609 294.008789,476.529297 C295.274414,476.833984 296.510742,477.085937 297.717773,477.285156 C298.924805,477.484375 299.791992,477.800781 300.319336,478.234375 C300.706055,478.621094 300.899414,478.984375 300.899414,479.324219 C300.899414,480.742187 299.581055,481.451172 296.944336,481.451172 C296.25293,481.451172 295.661133,481.37793 295.168945,481.231445 C294.676758,481.084961 294.290039,480.879883 294.008789,480.616211 C293.727539,480.352539 293.516602,480.118164 293.375977,479.913086 C293.235352,479.708008 293.103516,479.450195 292.980469,479.139648 C292.857422,478.829102 292.772461,478.638672 292.725586,478.568359 C292.514648,478.181641 292.12207,477.988281 291.547852,477.988281 C290.915039,477.988281 290.472656,478.073242 290.220703,478.243164 C289.96875,478.413086 289.842773,478.785156 289.842773,479.359375 L289.842773,479.359375 L289.842773,482.839844 C289.842773,483.707031 290.229492,484.140625 291.00293,484.140625 C291.366211,484.140625 291.629883,484.064453 291.793945,483.912109 C291.958008,483.759766 292.174805,483.455078 292.444336,482.998047 C293.81543,483.759766 295.31543,484.140625 296.944336,484.140625 Z M316.31543,484.140625 C318.038086,484.140625 319.476562,483.578125 320.630859,482.453125 C321.785156,481.328125 322.362305,480.080078 322.362305,478.708984 C322.350586,477.865234 321.817383,477.443359 320.762695,477.443359 C320.000977,477.443359 319.538086,477.71875 319.374023,478.269531 C319.327148,478.398437 319.303711,478.594727 319.303711,478.858398 C319.303711,479.12207 319.242187,479.40332 319.119141,479.702148 C318.996094,480.000977 318.776367,480.355469 318.459961,480.765625 C317.885742,481.222656 317.334961,481.451172 316.807617,481.451172 C316.350586,481.451172 315.960937,481.37793 315.638672,481.231445 C315.316406,481.084961 315.076172,480.915039 314.917969,480.72168 C314.759766,480.52832 314.639648,480.264648 314.557617,479.930664 C314.475586,479.59668 314.428711,479.31543 314.416992,479.086914 C314.405273,478.858398 314.399414,478.550781 314.399414,478.164062 L314.399414,478.164062 L314.399414,470.710937 L320.34082,470.710937 C321.161133,470.710937 321.571289,470.271484 321.571289,469.392578 C321.571289,468.478516 321.125977,468.021484 320.235352,468.021484 L320.235352,468.021484 L314.399414,468.021484 L314.399414,464.769531 C314.399414,464.464844 314.358398,464.21582 314.276367,464.022461 C314.194336,463.829102 314.068359,463.697266 313.898437,463.626953 C313.728516,463.556641 313.587891,463.509766 313.476562,463.486328 C313.365234,463.462891 313.227539,463.451172 313.063477,463.451172 L313.063477,463.451172 L312.887695,463.451172 C312.594727,463.451172 312.366211,463.462891 312.202148,463.486328 C312.038086,463.509766 311.859375,463.626953 311.666016,463.837891 C311.472656,464.048828 311.375977,464.359375 311.375977,464.769531 L311.375977,464.769531 L311.375977,468.021484 L308.422852,468.021484 C307.508789,468.021484 307.051758,468.501953 307.051758,469.462891 C307.051758,470.294922 307.49707,470.710937 308.387695,470.710937 L308.387695,470.710937 L311.375977,470.710937 L311.375977,478.058594 C311.375977,478.65625 311.411133,479.253906 311.481445,479.851562 C311.598633,480.765625 311.850586,481.536133 312.237305,482.163086 C312.624023,482.790039 313.081055,483.229492 313.608398,483.481445 C314.135742,483.733398 314.610352,483.90625 315.032227,484 C315.454102,484.09375 315.881836,484.140625 316.31543,484.140625 Z M328.514648,486.988281 C329.077148,486.988281 329.516602,486.654297 329.833008,485.986328 L329.833008,485.986328 L341.575195,461.253906 C341.739258,460.960937 341.821289,460.65625 341.821289,460.339844 C341.821289,460.011719 341.692383,459.709961 341.43457,459.43457 C341.176758,459.15918 340.854492,459.021484 340.467773,459.021484 C340.31543,459.021484 340.186523,459.039062 340.081055,459.074219 C339.975586,459.109375 339.873047,459.162109 339.773437,459.232422 C339.673828,459.302734 339.588867,459.367187 339.518555,459.425781 C339.448242,459.484375 339.37793,459.575195 339.307617,459.698242 C339.237305,459.821289 339.19043,459.90625 339.166992,459.953125 C339.143555,460 339.102539,460.079102 339.043945,460.19043 C338.985352,460.301758 338.956055,460.369141 338.956055,460.392578 L338.956055,460.392578 L327.424805,484.720703 C327.237305,485.107422 327.143555,485.417969 327.143555,485.652344 C327.143555,486.015625 327.28125,486.329102 327.556641,486.592773 C327.832031,486.856445 328.151367,486.988281 328.514648,486.988281 Z M360.032227,484 C360.969727,484 361.438477,483.542969 361.438477,482.628906 C361.49707,481.714844 361.045898,481.257812 360.084961,481.257812 C360.026367,481.257812 359.961914,481.263672 359.891602,481.275391 C359.821289,481.287109 359.774414,481.292969 359.750977,481.292969 L359.750977,481.292969 L357.764648,481.292969 L357.764648,477.953125 L360.436523,477.953125 C361.327148,477.929687 361.772461,477.472656 361.772461,476.582031 C361.772461,475.691406 361.338867,475.246094 360.47168,475.246094 L360.47168,475.246094 L357.764648,475.246094 L357.764648,463.292969 C357.764648,462.964844 357.74707,462.704102 357.711914,462.510742 C357.676758,462.317383 357.553711,462.135742 357.342773,461.96582 C357.131836,461.795898 356.821289,461.710937 356.411133,461.710937 L356.411133,461.710937 L354.530273,461.710937 C354.120117,461.710937 353.818359,461.763672 353.625,461.869141 C353.431641,461.974609 353.217773,462.220703 352.983398,462.607422 L352.983398,462.607422 L345.56543,474.314453 C345.495117,474.431641 345.407227,474.575195 345.301758,474.745117 C345.196289,474.915039 345.128906,475.029297 345.099609,475.087891 C345.070312,475.146484 345.043945,475.231445 345.020508,475.342773 C344.99707,475.454102 344.985352,475.603516 344.985352,475.791016 L344.985352,475.791016 L344.985352,476.546875 C344.985352,476.957031 345.064453,477.276367 345.222656,477.504883 C345.380859,477.733398 345.541992,477.865234 345.706055,477.900391 C345.870117,477.935547 346.086914,477.953125 346.356445,477.953125 L346.356445,477.953125 L355.321289,477.953125 L355.321289,481.292969 L353.352539,481.292969 C353.317383,481.292969 353.264648,481.287109 353.194336,481.275391 C353.124023,481.263672 353.06543,481.257812 353.018555,481.257812 C352.104492,481.257812 351.647461,481.714844 351.647461,482.628906 C351.647461,483.039062 351.732422,483.352539 351.902344,483.569336 C352.072266,483.786133 352.233398,483.912109 352.385742,483.947266 C352.538086,483.982422 352.749023,484 353.018555,484 L353.018555,484 L360.032227,484 Z M355.321289,475.246094 L348.09668,475.246094 L355.321289,463.837891 L355.321289,475.246094 Z M377.680664,484 C378.571289,484 379.016602,483.542969 379.016602,482.628906 C379.063477,481.738281 378.606445,481.292969 377.645508,481.292969 L377.645508,481.292969 L374.288086,481.292969 L374.288086,463.117187 C374.299805,462.179687 373.895508,461.710937 373.075195,461.710937 C372.524414,461.722656 372.102539,462.050781 371.80957,462.695312 C370.918945,464.535156 369.741211,465.636719 368.276367,466 C368.182617,466.023437 367.974609,466.052734 367.652344,466.087891 C367.330078,466.123047 367.101562,466.164062 366.966797,466.210937 C366.832031,466.257812 366.694336,466.383789 366.553711,466.588867 C366.413086,466.793945 366.342773,467.078125 366.342773,467.441406 C366.342773,468.355469 366.782227,468.8125 367.661133,468.8125 C368.844727,468.8125 370.045898,468.355469 371.264648,467.441406 L371.264648,467.441406 L371.264648,481.292969 L367.924805,481.292969 C366.987305,481.292969 366.518555,481.75 366.518555,482.664062 C366.518555,483.027344 366.621094,483.334961 366.826172,483.586914 C367.03125,483.838867 367.338867,483.976562 367.749023,484 L367.749023,484 L377.680664,484 Z M391.180664,484.28125 C393.65332,484.28125 395.578125,483.633789 396.955078,482.338867 C398.332031,481.043945 399.020508,479.447266 399.020508,477.548828 C399.020508,476.494141 398.727539,475.462891 398.141602,474.455078 C397.555664,473.447266 396.553711,472.65625 395.135742,472.082031 C397.03418,470.757812 397.983398,469.041016 397.983398,466.931641 C397.983398,465.443359 397.388672,464.201172 396.199219,463.205078 C395.009766,462.208984 393.348633,461.710937 391.21582,461.710937 C388.813477,461.710937 387.073242,462.138672 385.995117,462.994141 C384.916992,463.849609 384.37793,464.792969 384.37793,465.824219 C384.37793,466.328125 384.500977,466.735352 384.74707,467.045898 C384.993164,467.356445 385.356445,467.511719 385.836914,467.511719 C386.129883,467.511719 386.378906,467.458984 386.583984,467.353516 C386.789062,467.248047 386.938477,467.104492 387.032227,466.922852 C387.125977,466.741211 387.205078,466.571289 387.269531,466.413086 C387.333984,466.254883 387.37793,466.09375 387.401367,465.929687 L387.401367,465.929687 L387.436523,465.71875 C387.729492,464.851562 388.989258,464.417969 391.21582,464.417969 C392.575195,464.417969 393.539062,464.675781 394.107422,465.191406 C394.675781,465.707031 394.959961,466.287109 394.959961,466.931641 C394.959961,467.892578 394.599609,468.727539 393.878906,469.436523 C393.158203,470.145508 392.317383,470.535156 391.356445,470.605469 C391.110352,470.628906 390.791016,470.652344 390.398437,470.675781 C390.005859,470.699219 389.724609,470.716797 389.554687,470.728516 C389.384766,470.740234 389.173828,470.77832 388.921875,470.842773 C388.669922,470.907227 388.49707,470.986328 388.40332,471.080078 C388.30957,471.173828 388.21875,471.302734 388.130859,471.466797 C388.042969,471.630859 387.999023,471.847656 387.999023,472.117187 C387.999023,473.03125 388.397461,473.488281 389.194336,473.488281 L389.194336,473.488281 L390.776367,473.488281 C392.745117,473.488281 394.107422,473.895508 394.863281,474.709961 C395.619141,475.524414 395.99707,476.458984 395.99707,477.513672 C395.99707,478.568359 395.619141,479.511719 394.863281,480.34375 C394.107422,481.175781 392.879883,481.591797 391.180664,481.591797 C389.879883,481.591797 388.749023,481.363281 387.788086,480.90625 C387.495117,480.765625 387.249023,480.610352 387.049805,480.44043 C386.850586,480.270508 386.701172,480.088867 386.601562,479.895508 C386.501953,479.702148 386.428711,479.549805 386.381836,479.438477 C386.334961,479.327148 386.299805,479.177734 386.276367,478.990234 L386.276367,478.990234 L386.276367,478.708984 C386.229492,478.345703 386.074219,478.038086 385.810547,477.786133 C385.546875,477.53418 385.209961,477.408203 384.799805,477.408203 C384.389648,477.408203 384.035156,477.545898 383.736328,477.821289 C383.4375,478.09668 383.288086,478.498047 383.288086,479.025391 C383.288086,480.583984 384.032227,481.849609 385.520508,482.822266 C387.008789,483.794922 388.895508,484.28125 391.180664,484.28125 Z" id="1st/413" fill="#000000"></path>
            <path d="M311.798828,293 C312.232422,293 312.563477,292.897461 312.791992,292.692383 C313.020508,292.487305 313.146484,292.302734 313.169922,292.138672 C313.193359,291.974609 313.205078,291.746094 313.205078,291.453125 L313.205078,291.453125 L313.205078,289.976562 C313.205078,289.542969 313.114258,289.217773 312.932617,289.000977 C312.750977,288.78418 312.578125,288.658203 312.414062,288.623047 C312.25,288.587891 312.009766,288.570312 311.693359,288.570312 L311.693359,288.570312 L311.623047,288.570312 C311.189453,288.570312 310.84082,288.655273 310.577148,288.825195 C310.313477,288.995117 310.181641,289.378906 310.181641,289.976562 L310.181641,289.976562 L310.181641,290.292969 L302.798828,290.292969 C303.373047,289.8125 304.222656,289.118164 305.347656,288.209961 C306.472656,287.301758 307.257812,286.654297 307.703125,286.267578 C308.148437,285.880859 308.760742,285.338867 309.540039,284.641602 C310.319336,283.944336 310.861328,283.387695 311.166016,282.97168 C311.470703,282.555664 311.819336,282.040039 312.211914,281.424805 C312.604492,280.80957 312.868164,280.220703 313.00293,279.658203 C313.137695,279.095703 313.205078,278.492187 313.205078,277.847656 C313.205078,275.738281 312.4375,274.021484 310.902344,272.697266 C309.367187,271.373047 307.457031,270.710937 305.171875,270.710937 C303.085937,270.710937 301.380859,271.329102 300.056641,272.56543 C298.732422,273.801758 298.070312,275.164062 298.070312,276.652344 C298.070312,277.25 298.228516,277.674805 298.544922,277.926758 C298.861328,278.178711 299.212891,278.304687 299.599609,278.304687 C300.044922,278.304687 300.393555,278.155273 300.645508,277.856445 C300.897461,277.557617 301.038086,277.317383 301.067383,277.135742 C301.09668,276.954102 301.111328,276.78125 301.111328,276.617187 C301.181641,275.808594 301.515625,275.073242 302.113281,274.411133 C302.710937,273.749023 303.537109,273.417969 304.591797,273.417969 C306.033203,273.417969 307.325195,273.801758 308.467773,274.569336 C309.610352,275.336914 310.181641,276.441406 310.181641,277.882812 C310.181641,278.269531 310.149414,278.635742 310.084961,278.981445 C310.020508,279.327148 309.888672,279.693359 309.689453,280.080078 C309.490234,280.466797 309.293945,280.80957 309.100586,281.108398 C308.907227,281.407227 308.587891,281.791016 308.142578,282.259766 C307.697266,282.728516 307.301758,283.124023 306.956055,283.446289 C306.610352,283.768555 306.083008,284.228516 305.374023,284.826172 C304.665039,285.423828 304.052734,285.933594 303.537109,286.355469 C303.021484,286.777344 302.262695,287.401367 301.260742,288.227539 C300.258789,289.053711 299.400391,289.765625 298.685547,290.363281 C298.275391,290.726562 298.070312,291.171875 298.070312,291.699219 C298.09375,292.566406 298.5625,293 299.476562,293 L299.476562,293 L311.798828,293 Z M324.542969,293.28125 C325.398437,293.28125 326.259766,293.09668 327.126953,292.727539 C327.994141,292.358398 328.84082,291.77832 329.666992,290.987305 C330.493164,290.196289 331.164062,289.018555 331.679687,287.454102 C332.195312,285.889648 332.453125,284.064453 332.453125,281.978516 C332.453125,279.916016 332.201172,278.117187 331.697266,276.582031 C331.193359,275.046875 330.53418,273.87793 329.719727,273.075195 C328.905273,272.272461 328.067383,271.677734 327.206055,271.291016 C326.344727,270.904297 325.457031,270.710937 324.542969,270.710937 C323.652344,270.710937 322.773437,270.898437 321.90625,271.273437 C321.039062,271.648437 320.192383,272.243164 319.366211,273.057617 C318.540039,273.87207 317.875,275.046875 317.371094,276.582031 C316.867187,278.117187 316.615234,279.916016 316.615234,281.978516 C316.615234,284.087891 316.873047,285.918945 317.388672,287.47168 C317.904297,289.024414 318.575195,290.202148 319.401367,291.004883 C320.227539,291.807617 321.068359,292.387695 321.923828,292.745117 C322.779297,293.102539 323.652344,293.28125 324.542969,293.28125 Z M324.542969,290.591797 C323.289062,290.591797 322.158203,289.888672 321.150391,288.482422 C320.142578,287.076172 319.638672,284.802734 319.638672,281.662109 C319.638672,278.732422 320.145508,276.625977 321.15918,275.342773 C322.172852,274.05957 323.289062,273.417969 324.507812,273.417969 C325.035156,273.417969 325.556641,273.543945 326.072266,273.795898 C326.587891,274.047852 327.115234,274.455078 327.654297,275.017578 C328.193359,275.580078 328.624023,276.438477 328.946289,277.592773 C329.268555,278.74707 329.429687,280.103516 329.429687,281.662109 C329.429687,284.802734 328.919922,287.076172 327.900391,288.482422 C326.880859,289.888672 325.761719,290.591797 324.542969,290.591797 Z M349.591797,293 C350.025391,293 350.356445,292.897461 350.584961,292.692383 C350.813477,292.487305 350.939453,292.302734 350.962891,292.138672 C350.986328,291.974609 350.998047,291.746094 350.998047,291.453125 L350.998047,291.453125 L350.998047,289.976562 C350.998047,289.542969 350.907227,289.217773 350.725586,289.000977 C350.543945,288.78418 350.371094,288.658203 350.207031,288.623047 C350.042969,288.587891 349.802734,288.570312 349.486328,288.570312 L349.486328,288.570312 L349.416016,288.570312 C348.982422,288.570312 348.633789,288.655273 348.370117,288.825195 C348.106445,288.995117 347.974609,289.378906 347.974609,289.976562 L347.974609,289.976562 L347.974609,290.292969 L340.591797,290.292969 C341.166016,289.8125 342.015625,289.118164 343.140625,288.209961 C344.265625,287.301758 345.050781,286.654297 345.496094,286.267578 C345.941406,285.880859 346.553711,285.338867 347.333008,284.641602 C348.112305,283.944336 348.654297,283.387695 348.958984,282.97168 C349.263672,282.555664 349.612305,282.040039 350.004883,281.424805 C350.397461,280.80957 350.661133,280.220703 350.795898,279.658203 C350.930664,279.095703 350.998047,278.492187 350.998047,277.847656 C350.998047,275.738281 350.230469,274.021484 348.695312,272.697266 C347.160156,271.373047 345.25,270.710937 342.964844,270.710937 C340.878906,270.710937 339.173828,271.329102 337.849609,272.56543 C336.525391,273.801758 335.863281,275.164062 335.863281,276.652344 C335.863281,277.25 336.021484,277.674805 336.337891,277.926758 C336.654297,278.178711 337.005859,278.304687 337.392578,278.304687 C337.837891,278.304687 338.186523,278.155273 338.438477,277.856445 C338.69043,277.557617 338.831055,277.317383 338.860352,277.135742 C338.889648,276.954102 338.904297,276.78125 338.904297,276.617187 C338.974609,275.808594 339.308594,275.073242 339.90625,274.411133 C340.503906,273.749023 341.330078,273.417969 342.384766,273.417969 C343.826172,273.417969 345.118164,273.801758 346.260742,274.569336 C347.40332,275.336914 347.974609,276.441406 347.974609,277.882812 C347.974609,278.269531 347.942383,278.635742 347.87793,278.981445 C347.813477,279.327148 347.681641,279.693359 347.482422,280.080078 C347.283203,280.466797 347.086914,280.80957 346.893555,281.108398 C346.700195,281.407227 346.380859,281.791016 345.935547,282.259766 C345.490234,282.728516 345.094727,283.124023 344.749023,283.446289 C344.40332,283.768555 343.875977,284.228516 343.166992,284.826172 C342.458008,285.423828 341.845703,285.933594 341.330078,286.355469 C340.814453,286.777344 340.055664,287.401367 339.053711,288.227539 C338.051758,289.053711 337.193359,289.765625 336.478516,290.363281 C336.068359,290.726562 335.863281,291.171875 335.863281,291.699219 C335.886719,292.566406 336.355469,293 337.269531,293 L337.269531,293 L349.591797,293 Z M368.980469,293 C369.917969,293 370.386719,292.542969 370.386719,291.628906 C370.445312,290.714844 369.994141,290.257812 369.033203,290.257812 C368.974609,290.257812 368.910156,290.263672 368.839844,290.275391 C368.769531,290.287109 368.722656,290.292969 368.699219,290.292969 L368.699219,290.292969 L366.712891,290.292969 L366.712891,286.953125 L369.384766,286.953125 C370.275391,286.929687 370.720703,286.472656 370.720703,285.582031 C370.720703,284.691406 370.287109,284.246094 369.419922,284.246094 L369.419922,284.246094 L366.712891,284.246094 L366.712891,272.292969 C366.712891,271.964844 366.695312,271.704102 366.660156,271.510742 C366.625,271.317383 366.501953,271.135742 366.291016,270.96582 C366.080078,270.795898 365.769531,270.710937 365.359375,270.710937 L365.359375,270.710937 L363.478516,270.710937 C363.068359,270.710937 362.766602,270.763672 362.573242,270.869141 C362.379883,270.974609 362.166016,271.220703 361.931641,271.607422 L361.931641,271.607422 L354.513672,283.314453 C354.443359,283.431641 354.355469,283.575195 354.25,283.745117 C354.144531,283.915039 354.077148,284.029297 354.047852,284.087891 C354.018555,284.146484 353.992187,284.231445 353.96875,284.342773 C353.945312,284.454102 353.933594,284.603516 353.933594,284.791016 L353.933594,284.791016 L353.933594,285.546875 C353.933594,285.957031 354.012695,286.276367 354.170898,286.504883 C354.329102,286.733398 354.490234,286.865234 354.654297,286.900391 C354.818359,286.935547 355.035156,286.953125 355.304687,286.953125 L355.304687,286.953125 L364.269531,286.953125 L364.269531,290.292969 L362.300781,290.292969 C362.265625,290.292969 362.212891,290.287109 362.142578,290.275391 C362.072266,290.263672 362.013672,290.257812 361.966797,290.257812 C361.052734,290.257812 360.595703,290.714844 360.595703,291.628906 C360.595703,292.039062 360.680664,292.352539 360.850586,292.569336 C361.020508,292.786133 361.181641,292.912109 361.333984,292.947266 C361.486328,292.982422 361.697266,293 361.966797,293 L361.966797,293 L368.980469,293 Z M364.269531,284.246094 L357.044922,284.246094 L364.269531,272.837891 L364.269531,284.246094 Z" id="2024" fill="#000000"></path>
        </g>
    </g>
</svg>
